<svg version="1.1" viewBox="0.0 0.0 960.0 540.0" fill="none" stroke="none" stroke-linecap="square" stroke-miterlimit="10" xmlns:xlink="http://www.w3.org/1999/xlink" xmlns="http://www.w3.org/2000/svg"><clipPath id="g596a490178_0_304.0"><path d="m0 0l960.0 0l0 540.0l-960.0 0l0 -540.0z" clip-rule="nonzero"/></clipPath><g clip-path="url(#g596a490178_0_304.0)"><path fill="#ffffff" d="m0 0l960.0 0l0 540.0l-960.0 0z" fill-rule="evenodd"/><path fill="#000000" fill-opacity="0.0" d="m581.6859 123.586655l0 0c0 -40.7734 33.053345 -73.826775 73.82678 -73.826775l0 0c19.580078 0 38.358215 7.7781563 52.20337 21.62336c13.845215 13.845207 21.623413 32.623337 21.623413 52.203415l0 0c0 40.77339 -33.053406 73.82677 -73.82678 73.82677l0 0c-40.773438 0 -73.82678 -33.053375 -73.82678 -73.82677z" fill-rule="evenodd"/><path stroke="#efefef" stroke-width="8.0" stroke-linejoin="round" stroke-linecap="butt" d="m581.6859 123.586655l0 0c0 -40.7734 33.053345 -73.826775 73.82678 -73.826775l0 0c19.580078 0 38.358215 7.7781563 52.20337 21.62336c13.845215 13.845207 21.623413 32.623337 21.623413 52.203415l0 0c0 40.77339 -33.053406 73.82677 -73.82678 73.82677l0 0c-40.773438 0 -73.82678 -33.053375 -73.82678 -73.82677z" fill-rule="evenodd"/><path fill="#000000" fill-opacity="0.0" d="m581.6859 113.23248l147.65356 0l0 20.724411l-147.65356 0z" fill-rule="evenodd"/><path fill="#efefef" d="m609.84784 112.11218q-3.265625 0 -5.1875 -2.140625q-1.921875 -2.140625 -2.21875 -5.78125l2.171875 -0.625q0.234375 3.5 1.59375 5.0625q1.375 1.5625 3.734375 1.5625q2.109375 0 3.25 -1.171875q1.15625 -1.1875 1.15625 -3.34375q0 -1.484375 -0.984375 -3.09375q-0.984375 -1.609375 -3.09375 -3.390625l-3.21875 -2.734375q-2.0625 -1.765625 -3.03125 -3.375q-0.953125 -1.609375 -0.953125 -3.671875q0 -1.921875 0.796875 -3.21875q0.796875 -1.296875 2.203125 -1.984375q1.421875 -0.703125 3.296875 -0.703125q3.109375 0 4.640625 1.96875q1.546875 1.96875 1.640625 5.28125l-1.875 0.5625q-0.046875 -2.15625 -0.59375 -3.453125q-0.546875 -1.296875 -1.484375 -1.859375q-0.9375 -0.578125 -2.1875 -0.578125q-1.828125 0 -2.953125 0.9375q-1.125 0.921875 -1.125 2.75q0 1.53125 0.59375 2.671875q0.609375 1.125 2.234375 2.609375l3.3125 2.921875q1.25 1.0625 2.390625 2.265625q1.15625 1.203125 1.90625 2.671875q0.75 1.453125 0.75 3.46875q0 2.015625 -0.84375 3.4375q-0.84375 1.40625 -2.359375 2.1875q-1.5 0.765625 -3.5625 0.765625zm17.322388 0q-2.203125 0 -3.796875 -0.890625q-1.578125 -0.890625 -2.421875 -3.21875q-0.84375 -2.328125 -0.84375 -6.59375l0 -7.390625q0 -4.375 0.859375 -6.625q0.875 -2.265625 2.484375 -3.078125q1.609375 -0.8125 3.765625 -0.8125q2.59375 0 4.078125 1.109375q1.484375 1.09375 2.109375 3.515625q0.625 2.421875 0.625 6.40625l0 2.640625l-11.375 0l0 4.421875q0 3.3125 0.453125 5.1875q0.453125 1.859375 1.46875 2.640625q1.015625 0.765625 2.59375 0.765625q1.0 0 2.0 -0.328125q1.015625 -0.34375 1.6875 -1.59375q0.671875 -1.25 0.671875 -3.890625l0 -2.0625l2.5 0l0 1.828125q0 3.546875 -1.46875 5.765625q-1.453125 2.203125 -5.390625 2.203125zm-4.515625 -16.46875l8.875 0l0 -2.15625q0 -2.5 -0.265625 -4.296875q-0.25 -1.796875 -1.171875 -2.78125q-0.90625 -0.984375 -2.875 -0.984375q-1.53125 0 -2.5625 0.65625q-1.03125 0.640625 -1.515625 2.390625q-0.484375 1.75 -0.484375 5.0625l0 2.109375zm22.660767 16.46875q-3.125 0 -4.609375 -1.46875q-1.484375 -1.46875 -1.953125 -3.90625q-0.453125 -2.453125 -0.453125 -5.484375l0 -6.515625q0 -4.09375 0.625 -6.5625q0.625 -2.46875 2.15625 -3.5625q1.546875 -1.109375 4.234375 -1.109375q2.875 0 4.34375 1.171875q1.46875 1.171875 1.9375 3.21875q0.484375 2.03125 0.484375 4.578125l0 1.109375l-2.40625 0l0 -1.109375q0 -2.828125 -0.453125 -4.34375q-0.453125 -1.515625 -1.421875 -2.109375q-0.953125 -0.59375 -2.484375 -0.59375q-1.875 0 -2.84375 0.890625q-0.953125 0.875 -1.296875 2.84375q-0.328125 1.96875 -0.328125 5.28125l0 7.203125q0 4.515625 0.890625 6.53125q0.890625 2.015625 3.625 2.015625q1.875 0 2.8125 -0.8125q0.9375 -0.828125 1.21875 -2.546875q0.28125 -1.734375 0.28125 -4.46875l0 -1.0625l2.40625 0l0 1.015625q0 2.78125 -0.4375 5.0q-0.421875 2.203125 -1.875 3.5q-1.4375 1.296875 -4.453125 1.296875zm17.953186 0q-2.734375 0 -4.25 -1.203125q-1.515625 -1.203125 -2.125 -3.546875q-0.59375 -2.359375 -0.59375 -5.8125l0 -7.484375q0 -3.46875 0.59375 -5.8125q0.609375 -2.359375 2.125 -3.546875q1.515625 -1.203125 4.25 -1.203125q2.78125 0 4.28125 1.203125q1.515625 1.1875 2.109375 3.515625q0.609375 2.328125 0.609375 5.84375l0 7.484375q0 3.453125 -0.609375 5.8125q-0.59375 2.34375 -2.109375 3.546875q-1.5 1.203125 -4.28125 1.203125zm0 -1.921875q2.015625 0 2.96875 -1.03125q0.96875 -1.03125 1.21875 -2.953125q0.265625 -1.921875 0.265625 -4.5625l0 -7.6875q0 -2.6875 -0.265625 -4.578125q-0.25 -1.890625 -1.21875 -2.921875q-0.953125 -1.03125 -2.96875 -1.03125q-2.015625 0 -2.953125 1.03125q-0.9375 1.03125 -1.203125 2.921875q-0.265625 1.890625 -0.265625 4.578125l0 7.6875q0 2.640625 0.265625 4.5625q0.265625 1.921875 1.203125 2.953125q0.9375 1.03125 2.953125 1.03125zm11.946533 1.484375l0 -27.75l2.546875 0l0 2.984375q1.296875 -1.53125 2.96875 -2.46875q1.6875 -0.9375 3.609375 -0.9375q1.25 0 2.234375 0.609375q0.984375 0.59375 1.546875 1.90625q0.578125 1.3125 0.578125 3.53125l0 22.125l-2.53125 0l0 -21.84375q0 -2.546875 -0.796875 -3.453125q-0.796875 -0.90625 -2.140625 -0.90625q-1.390625 0 -2.8125 0.84375q-1.40625 0.828125 -2.65625 2.21875l0 23.140625l-2.546875 0zm24.768005 0.4375q-3.59375 0 -5.0625 -2.765625q-1.46875 -2.765625 -1.46875 -9.046875l0 -4.9375q0 -3.9375 0.53125 -6.546875q0.53125 -2.625 1.921875 -3.96875q1.390625 -1.34375 3.9375 -1.34375q1.78125 0 3.015625 0.796875q1.25 0.78125 2.015625 1.75l0 -13.25l2.546875 0l0 38.875l-2.546875 0l0 -2.109375q-0.765625 0.90625 -1.984375 1.734375q-1.21875 0.8125 -2.90625 0.8125zm0.34375 -1.96875q1.390625 0 2.5625 -0.71875q1.171875 -0.71875 1.984375 -1.640625l0 -19.921875q-0.765625 -0.765625 -1.9375 -1.578125q-1.171875 -0.8125 -2.65625 -0.8125q-2.640625 0 -3.46875 2.203125q-0.8125 2.203125 -0.8125 7.0625l0 5.75q0 3.359375 0.359375 5.5q0.359375 2.140625 1.296875 3.15625q0.9375 1.0 2.671875 1.0z" fill-rule="nonzero"/><path fill="#efefef" d="m621.095 169.67468l0 -27.75l2.546875 0l0 2.984375q1.296875 -1.53125 2.96875 -2.46875q1.6875 -0.9375 3.609375 -0.9375q1.25 0 2.234375 0.609375q0.984375 0.59375 1.546875 1.90625q0.578125 1.3125 0.578125 3.53125l0 22.125l-2.53125 0l0 -21.84375q0 -2.546875 -0.796875 -3.453125q-0.796875 -0.90625 -2.140625 -0.90625q-1.390625 0 -2.8125 0.84375q-1.40625 0.828125 -2.65625 2.21875l0 23.140625l-2.546875 0zm25.205566 0.4375q-2.734375 0 -4.25 -1.203125q-1.515625 -1.203125 -2.125 -3.546875q-0.59375 -2.359375 -0.59375 -5.8125l0 -7.484375q0 -3.46875 0.59375 -5.8125q0.609375 -2.359375 2.125 -3.546875q1.515625 -1.203125 4.25 -1.203125q2.78125 0 4.28125 1.203125q1.515625 1.1875 2.109375 3.515625q0.609375 2.328125 0.609375 5.84375l0 7.484375q0 3.453125 -0.609375 5.8125q-0.59375 2.34375 -2.109375 3.546875q-1.5 1.203125 -4.28125 1.203125zm0 -1.921875q2.015625 0 2.96875 -1.03125q0.96875 -1.03125 1.21875 -2.953125q0.265625 -1.921875 0.265625 -4.5625l0 -7.6875q0 -2.6875 -0.265625 -4.578125q-0.25 -1.890625 -1.21875 -2.921875q-0.953125 -1.03125 -2.96875 -1.03125q-2.015625 0 -2.953125 1.03125q-0.9375 1.03125 -1.203125 2.921875q-0.265625 1.890625 -0.265625 4.578125l0 7.6875q0 2.640625 0.265625 4.5625q0.265625 1.921875 1.203125 2.953125q0.9375 1.03125 2.953125 1.03125zm17.946533 1.921875q-3.59375 0 -5.0625 -2.765625q-1.46875 -2.765625 -1.46875 -9.046875l0 -4.9375q0 -3.9375 0.53125 -6.546875q0.53125 -2.625 1.921875 -3.96875q1.390625 -1.34375 3.9375 -1.34375q1.78125 0 3.015625 0.796875q1.25 0.78125 2.015625 1.75l0 -13.25l2.546875 0l0 38.875l-2.546875 0l0 -2.109375q-0.765625 0.90625 -1.984375 1.734375q-1.21875 0.8125 -2.90625 0.8125zm0.34375 -1.96875q1.390625 0 2.5625 -0.71875q1.171875 -0.71875 1.984375 -1.640625l0 -19.921875q-0.765625 -0.765625 -1.9375 -1.578125q-1.171875 -0.8125 -2.65625 -0.8125q-2.640625 0 -3.46875 2.203125q-0.8125 2.203125 -0.8125 7.0625l0 5.75q0 3.359375 0.359375 5.5q0.359375 2.140625 1.296875 3.15625q0.9375 1.0 2.671875 1.0zm19.147522 1.96875q-2.203125 0 -3.796875 -0.890625q-1.578125 -0.890625 -2.421875 -3.21875q-0.84375 -2.328125 -0.84375 -6.59375l0 -7.390625q0 -4.375 0.859375 -6.625q0.875 -2.265625 2.484375 -3.078125q1.609375 -0.8125 3.765625 -0.8125q2.59375 0 4.078125 1.109375q1.484375 1.09375 2.109375 3.515625q0.625 2.421875 0.625 6.40625l0 2.640625l-11.375 0l0 4.421875q0 3.3125 0.453125 5.1875q0.453125 1.859375 1.46875 2.640625q1.015625 0.765625 2.59375 0.765625q1.0 0 2.0 -0.328125q1.015625 -0.34375 1.6875 -1.59375q0.671875 -1.25 0.671875 -3.890625l0 -2.0625l2.5 0l0 1.828125q0 3.546875 -1.46875 5.765625q-1.453125 2.203125 -5.390625 2.203125zm-4.515625 -16.46875l8.875 0l0 -2.15625q0 -2.5 -0.265625 -4.296875q-0.25 -1.796875 -1.171875 -2.78125q-0.90625 -0.984375 -2.875 -0.984375q-1.53125 0 -2.5625 0.65625q-1.03125 0.640625 -1.515625 2.390625q-0.484375 1.75 -0.484375 5.0625l0 2.109375z" fill-rule="nonzero"/><path fill="#000000" fill-opacity="0.0" d="m406.9496 249.54092l203.02362 114.58267" fill-rule="evenodd"/><path stroke="#efefef" stroke-width="8.0" stroke-linejoin="round" stroke-linecap="butt" d="m406.9496 249.54092l203.02362 114.58267" fill-rule="evenodd"/><path fill="#000000" fill-opacity="0.0" d="m414.7968 193.58818l146.14172 -42.14174" fill-rule="evenodd"/><path stroke="#efefef" stroke-width="8.0" stroke-linejoin="round" stroke-linecap="butt" d="m414.7968 193.58818l146.14172 -42.14174" fill-rule="evenodd"/><path fill="#000000" fill-opacity="0.0" d="m236.8774 138.40959l0 0c-8.18425 -31.615044 10.810165 -63.878746 42.425217 -72.062996l0 0c15.182068 -3.9302177 31.303589 -1.6684036 44.818024 6.2878647c13.514435 7.9562683 23.314728 20.955254 27.244965 36.13733l0 0c8.184235 31.615036 -10.810181 63.87874 -42.4252 72.06299l0 0c-31.615051 8.18425 -63.878754 -10.81015 -72.063 -42.425186z" fill-rule="evenodd"/><path stroke="#595959" stroke-width="8.0" stroke-linejoin="round" stroke-linecap="butt" d="m236.8774 138.40959l0 0c-8.18425 -31.615044 10.810165 -63.878746 42.425217 -72.062996l0 0c15.182068 -3.9302177 31.303589 -1.6684036 44.818024 6.2878647c13.514435 7.9562683 23.314728 20.955254 27.244965 36.13733l0 0c8.184235 31.615036 -10.810181 63.87874 -42.4252 72.06299l0 0c-31.615051 8.18425 -63.878754 -10.81015 -72.063 -42.425186z" fill-rule="evenodd"/><path fill="#ffffff" d="m271.8677 230.59605l0 0c-10.219452 -39.468796 13.491821 -79.74907 52.9606 -89.968506l0 0c18.953583 -4.907547 39.080414 -2.0848236 55.95276 7.847229c16.872375 9.932037 29.108215 26.15982 34.015747 45.113403l0 0c10.219452 39.46878 -13.491821 79.74907 -52.960632 89.96849l0 0c-39.46878 10.219452 -79.749054 -13.491821 -89.968475 -52.960617z" fill-rule="evenodd"/><path stroke="#595959" stroke-width="8.0" stroke-linejoin="round" stroke-linecap="butt" d="m271.8677 230.59605l0 0c-10.219452 -39.468796 13.491821 -79.74907 52.9606 -89.968506l0 0c18.953583 -4.907547 39.080414 -2.0848236 55.95276 7.847229c16.872375 9.932037 29.108215 26.15982 34.015747 45.113403l0 0c10.219452 39.46878 -13.491821 79.74907 -52.960632 89.96849l0 0c-39.46878 10.219452 -79.749054 -13.491821 -89.968475 -52.960617z" fill-rule="evenodd"/><path fill="#f3f3f3" d="m556.6562 140.80713l24.582642 2.551178l-16.047241 18.740158z" fill-rule="evenodd"/><path fill="#000000" fill-opacity="0.0" d="m411.11038 132.72063l153.51181 0l0 21.51181l-153.51181 0z" fill-rule="evenodd"/><path fill="#efefef" d="m444.4288 155.38403q-1.28125 0 -1.921875 -0.5q-0.640625 -0.515625 -0.84375 -1.375q-0.1875 -0.875 -0.1875 -1.953125l0 -13.734375l-2.421875 0l0 -1.125l2.421875 0l0 -5.921875l1.703125 0l0 5.921875l3.140625 0l0 1.125l-3.140625 0l0 13.5q0 1.5 0.28125 2.109375q0.296875 0.609375 1.3125 0.609375q0.328125 0 0.6875 -0.046875q0.375 -0.046875 0.6875 -0.109375l0 1.3125q-0.375 0.09375 -0.859375 0.140625q-0.484375 0.046875 -0.859375 0.046875zm4.5722656 -0.1875l0 -18.5l1.703125 0l0 2.5q0.828125 -1.375 2.0625 -2.03125q1.234375 -0.65625 2.3125 -0.65625q0.0625 0 0.140625 0q0.09375 0 0.1875 0.03125l0 1.765625q-0.140625 -0.0625 -0.34375 -0.078125q-0.203125 -0.015625 -0.359375 -0.015625q-1.28125 0 -2.296875 0.609375q-1.0 0.59375 -1.703125 1.75l0 14.625l-1.703125 0zm11.803009 0.28125q-1.109375 0 -1.953125 -0.5q-0.828125 -0.515625 -1.296875 -1.421875q-0.453125 -0.921875 -0.453125 -2.109375q0 -1.171875 0.296875 -2.046875q0.3125 -0.890625 1.109375 -1.65625q0.796875 -0.765625 2.28125 -1.609375q1.5 -0.859375 3.859375 -1.984375l0 -1.3125q0 -2.015625 -0.25 -3.125q-0.234375 -1.125 -0.796875 -1.5625q-0.546875 -0.453125 -1.515625 -0.453125q-0.734375 0 -1.40625 0.265625q-0.671875 0.25 -1.109375 1.0q-0.421875 0.75 -0.421875 2.21875l0 0.484375l-1.671875 0q0 -2.65625 1.078125 -3.953125q1.078125 -1.296875 3.59375 -1.296875q2.34375 0 3.265625 1.46875q0.9375 1.46875 0.9375 4.765625l0 9.3125q0 0.265625 0.015625 0.984375q0.015625 0.71875 0.03125 1.390625q0.015625 0.671875 0.046875 0.859375l-1.46875 0q-0.0625 -0.671875 -0.171875 -1.40625q-0.09375 -0.734375 -0.125 -1.0625q-0.40625 1.15625 -1.4375 1.953125q-1.015625 0.796875 -2.4375 0.796875zm0.421875 -1.40625q0.796875 0 1.4375 -0.359375q0.640625 -0.375 1.15625 -0.96875q0.515625 -0.59375 0.828125 -1.265625l0 -6.078125q-1.6875 0.90625 -2.828125 1.546875q-1.140625 0.640625 -1.796875 1.21875q-0.65625 0.5625 -0.953125 1.28125q-0.28125 0.71875 -0.28125 1.75q0 1.65625 0.765625 2.265625q0.78125 0.609375 1.671875 0.609375zm8.612396 1.125l0 -18.5l1.6875 0l0 1.984375q0.875 -1.015625 1.984375 -1.640625q1.125 -0.625 2.40625 -0.625q0.828125 0 1.484375 0.40625q0.65625 0.390625 1.03125 1.28125q0.390625 0.875 0.390625 2.34375l0 14.75l-1.6875 0l0 -14.5625q0 -1.6875 -0.53125 -2.296875q-0.53125 -0.609375 -1.421875 -0.609375q-0.9375 0 -1.875 0.5625q-0.9375 0.546875 -1.78125 1.484375l0 15.421875l-1.6875 0zm16.699524 0.28125q-2.171875 0 -3.453125 -1.421875q-1.28125 -1.421875 -1.46875 -3.84375l1.4375 -0.421875q0.15625 2.328125 1.0625 3.375q0.921875 1.046875 2.484375 1.046875q1.40625 0 2.171875 -0.78125q0.78125 -0.796875 0.78125 -2.234375q0 -0.984375 -0.65625 -2.0625q-0.65625 -1.078125 -2.078125 -2.25l-2.140625 -1.828125q-1.375 -1.1875 -2.015625 -2.25q-0.640625 -1.078125 -0.640625 -2.453125q0 -1.28125 0.53125 -2.140625q0.53125 -0.875 1.46875 -1.328125q0.953125 -0.46875 2.203125 -0.46875q2.078125 0 3.09375 1.3125q1.03125 1.3125 1.09375 3.515625l-1.25 0.390625q-0.03125 -1.453125 -0.40625 -2.3125q-0.359375 -0.859375 -0.984375 -1.234375q-0.625 -0.390625 -1.453125 -0.390625q-1.21875 0 -1.96875 0.625q-0.75 0.625 -0.75 1.828125q0 1.03125 0.390625 1.78125q0.40625 0.75 1.484375 1.75l2.21875 1.953125q0.828125 0.703125 1.59375 1.5q0.765625 0.796875 1.265625 1.78125q0.5 0.96875 0.5 2.3125q0 1.34375 -0.5625 2.296875q-0.5625 0.9375 -1.578125 1.453125q-1.0 0.5 -2.375 0.5zm7.454529 -0.28125l0 -18.5l1.734375 0l0 18.5l-1.734375 0zm0 -20.921875l0 -2.953125l1.734375 0l0 2.953125l-1.734375 0zm9.860504 21.109375q-1.28125 0 -1.921875 -0.5q-0.640625 -0.515625 -0.84375 -1.375q-0.1875 -0.875 -0.1875 -1.953125l0 -13.734375l-2.421875 0l0 -1.125l2.421875 0l0 -5.921875l1.703125 0l0 5.921875l3.140625 0l0 1.125l-3.140625 0l0 13.5q0 1.5 0.28125 2.109375q0.296875 0.609375 1.3125 0.609375q0.328125 0 0.6875 -0.046875q0.375 -0.046875 0.6875 -0.109375l0 1.3125q-0.375 0.09375 -0.859375 0.140625q-0.484375 0.046875 -0.859375 0.046875zm4.6035156 -0.1875l0 -18.5l1.734375 0l0 18.5l-1.734375 0zm0 -20.921875l0 -2.953125l1.734375 0l0 2.953125l-1.734375 0zm10.079285 21.203125q-1.828125 0 -2.84375 -0.796875q-1.0 -0.796875 -1.40625 -2.359375q-0.390625 -1.578125 -0.390625 -3.875l0 -5.0q0 -2.296875 0.390625 -3.859375q0.40625 -1.578125 1.40625 -2.375q1.015625 -0.796875 2.84375 -0.796875q1.859375 0 2.859375 0.796875q1.015625 0.796875 1.40625 2.359375q0.40625 1.546875 0.40625 3.875l0 5.0q0 2.296875 -0.40625 3.875q-0.390625 1.5625 -1.40625 2.359375q-1.0 0.796875 -2.859375 0.796875zm0 -1.265625q1.34375 0 1.984375 -0.6875q0.640625 -0.703125 0.8125 -1.96875q0.1875 -1.28125 0.1875 -3.046875l0 -5.125q0 -1.78125 -0.1875 -3.046875q-0.171875 -1.265625 -0.8125 -1.953125q-0.640625 -0.6875 -1.984375 -0.6875q-1.34375 0 -1.96875 0.6875q-0.625 0.6875 -0.796875 1.953125q-0.171875 1.265625 -0.171875 3.046875l0 5.125q0 1.765625 0.171875 3.046875q0.171875 1.265625 0.796875 1.96875q0.625 0.6875 1.96875 0.6875zm7.9747925 0.984375l0 -18.5l1.6875 0l0 1.984375q0.875 -1.015625 1.984375 -1.640625q1.125 -0.625 2.40625 -0.625q0.828125 0 1.484375 0.40625q0.65625 0.390625 1.03125 1.28125q0.390625 0.875 0.390625 2.34375l0 14.75l-1.6875 0l0 -14.5625q0 -1.6875 -0.53125 -2.296875q-0.53125 -0.609375 -1.421875 -0.609375q-0.9375 0 -1.875 0.5625q-0.9375 0.546875 -1.78125 1.484375l0 15.421875l-1.6875 0z" fill-rule="nonzero"/><path fill="#595959" d="m264.05582 162.08829l15.574799 19.228348l-24.614166 1.842514z" fill-rule="evenodd"/><path fill="#000000" fill-opacity="0.0" d="m176.75168 31.947765l234.70865 0l0 32.913387l-234.70865 0z" fill-rule="evenodd"/><path fill="#595959" d="m228.93748 60.40571q-2.171875 0 -3.453125 -1.421875q-1.28125 -1.421875 -1.46875 -3.84375l1.4375 -0.421875q0.15625 2.328125 1.0625 3.375q0.921875 1.046875 2.484375 1.046875q1.40625 0 2.171875 -0.78125q0.78125 -0.796875 0.78125 -2.234375q0 -0.984375 -0.65625 -2.0625q-0.65625 -1.078125 -2.078125 -2.25l-2.140625 -1.828125q-1.375 -1.1875 -2.015625 -2.25q-0.640625 -1.078125 -0.640625 -2.453125q0 -1.28125 0.53125 -2.140625q0.53125 -0.875 1.46875 -1.328125q0.953125 -0.46875 2.203125 -0.46875q2.078125 0 3.09375 1.3125q1.03125 1.3125 1.09375 3.515625l-1.25 0.390625q-0.03125 -1.453125 -0.40625 -2.3125q-0.359375 -0.859375 -0.984375 -1.234375q-0.625 -0.390625 -1.453125 -0.390625q-1.21875 0 -1.96875 0.625q-0.75 0.625 -0.75 1.828125q0 1.03125 0.390625 1.78125q0.40625 0.75 1.484375 1.75l2.21875 1.953125q0.828125 0.703125 1.59375 1.5q0.765625 0.796875 1.265625 1.78125q0.5 0.96875 0.5 2.3125q0 1.34375 -0.5625 2.296875q-0.5625 0.9375 -1.578125 1.453125q-1.0 0.5 -2.375 0.5zm11.548279 0q-1.46875 0 -2.53125 -0.578125q-1.046875 -0.59375 -1.609375 -2.140625q-0.5625 -1.5625 -0.5625 -4.40625l0 -4.9375q0 -2.90625 0.578125 -4.40625q0.578125 -1.515625 1.640625 -2.046875q1.078125 -0.546875 2.515625 -0.546875q1.734375 0 2.71875 0.734375q1.0 0.734375 1.40625 2.359375q0.421875 1.609375 0.421875 4.265625l0 1.765625l-7.578125 0l0 2.9375q0 2.203125 0.296875 3.453125q0.3125 1.25 0.984375 1.765625q0.671875 0.515625 1.71875 0.515625q0.671875 0 1.34375 -0.21875q0.671875 -0.234375 1.125 -1.0625q0.453125 -0.84375 0.453125 -2.59375l0 -1.375l1.65625 0l0 1.203125q0 2.375 -0.984375 3.84375q-0.96875 1.46875 -3.59375 1.46875zm-3.0 -10.96875l5.921875 0l0 -1.4375q0 -1.671875 -0.1875 -2.859375q-0.171875 -1.203125 -0.78125 -1.859375q-0.609375 -0.65625 -1.921875 -0.65625q-1.015625 0 -1.703125 0.4375q-0.6875 0.421875 -1.015625 1.59375q-0.3125 1.171875 -0.3125 3.375l0 1.40625zm11.096771 10.6875l0 -25.921875l1.703125 0l0 25.921875l-1.703125 0zm6.858261 0l0 -17.3125l-2.5 0l0 -1.1875l2.5 0l0 -2.484375q0 -1.1875 0.171875 -2.125q0.171875 -0.953125 0.8125 -1.515625q0.640625 -0.5625 2.015625 -0.5625q0.421875 0 0.859375 0.046875q0.453125 0.046875 0.84375 0.1875l0 1.265625q-0.328125 -0.09375 -0.703125 -0.140625q-0.359375 -0.046875 -0.640625 -0.046875q-1.09375 0 -1.390625 0.671875q-0.28125 0.671875 -0.28125 2.171875l0 2.53125l3.109375 0l0 1.1875l-3.109375 0l0 17.3125l-1.6875 0zm17.08377 0.1875q-1.28125 0 -1.921875 -0.5q-0.640625 -0.515625 -0.84375 -1.375q-0.1875 -0.875 -0.1875 -1.953125l0 -13.734375l-2.421875 0l0 -1.125l2.421875 0l0 -5.921875l1.703125 0l0 5.921875l3.140625 0l0 1.125l-3.140625 0l0 13.5q0 1.5 0.28125 2.109375q0.296875 0.609375 1.3125 0.609375q0.328125 0 0.6875 -0.046875q0.375 -0.046875 0.6875 -0.109375l0 1.3125q-0.375 0.09375 -0.859375 0.140625q-0.484375 0.046875 -0.859375 0.046875zm4.5722656 -0.1875l0 -18.5l1.703125 0l0 2.5q0.828125 -1.375 2.0625 -2.03125q1.234375 -0.65625 2.3125 -0.65625q0.0625 0 0.140625 0q0.09375 0 0.1875 0.03125l0 1.765625q-0.140625 -0.0625 -0.34375 -0.078125q-0.203125 -0.015625 -0.359375 -0.015625q-1.28125 0 -2.296875 0.609375q-1.0 0.59375 -1.703125 1.75l0 14.625l-1.703125 0zm11.803009 0.28125q-1.109375 0 -1.953125 -0.5q-0.828125 -0.515625 -1.296875 -1.421875q-0.453125 -0.921875 -0.453125 -2.109375q0 -1.171875 0.296875 -2.046875q0.3125 -0.890625 1.109375 -1.65625q0.796875 -0.765625 2.28125 -1.609375q1.5 -0.859375 3.859375 -1.984375l0 -1.3125q0 -2.015625 -0.25 -3.125q-0.234375 -1.125 -0.796875 -1.5625q-0.546875 -0.453125 -1.515625 -0.453125q-0.734375 0 -1.40625 0.265625q-0.671875 0.25 -1.109375 1.0q-0.421875 0.75 -0.421875 2.21875l0 0.484375l-1.671875 0q0 -2.65625 1.078125 -3.953125q1.078125 -1.296875 3.59375 -1.296875q2.34375 0 3.265625 1.46875q0.9375 1.46875 0.9375 4.765625l0 9.3125q0 0.265625 0.015625 0.984375q0.015625 0.71875 0.03125 1.390625q0.015625 0.671875 0.046875 0.859375l-1.46875 0q-0.0625 -0.671875 -0.171875 -1.40625q-0.09375 -0.734375 -0.125 -1.0625q-0.40625 1.15625 -1.4375 1.953125q-1.015625 0.796875 -2.4375 0.796875zm0.421875 -1.40625q0.796875 0 1.4375 -0.359375q0.640625 -0.375 1.15625 -0.96875q0.515625 -0.59375 0.828125 -1.265625l0 -6.078125q-1.6875 0.90625 -2.828125 1.546875q-1.140625 0.640625 -1.796875 1.21875q-0.65625 0.5625 -0.953125 1.28125q-0.28125 0.71875 -0.28125 1.75q0 1.65625 0.765625 2.265625q0.78125 0.609375 1.671875 0.609375zm8.612396 1.125l0 -18.5l1.6875 0l0 1.984375q0.875 -1.015625 1.984375 -1.640625q1.125 -0.625 2.40625 -0.625q0.828125 0 1.484375 0.40625q0.65625 0.390625 1.03125 1.28125q0.390625 0.875 0.390625 2.34375l0 14.75l-1.6875 0l0 -14.5625q0 -1.6875 -0.53125 -2.296875q-0.53125 -0.609375 -1.421875 -0.609375q-0.9375 0 -1.875 0.5625q-0.9375 0.546875 -1.78125 1.484375l0 15.421875l-1.6875 0zm16.699524 0.28125q-2.171875 0 -3.453125 -1.421875q-1.28125 -1.421875 -1.46875 -3.84375l1.4375 -0.421875q0.15625 2.328125 1.0625 3.375q0.921875 1.046875 2.484375 1.046875q1.40625 0 2.171875 -0.78125q0.78125 -0.796875 0.78125 -2.234375q0 -0.984375 -0.65625 -2.0625q-0.65625 -1.078125 -2.078125 -2.25l-2.140625 -1.828125q-1.375 -1.1875 -2.015625 -2.25q-0.640625 -1.078125 -0.640625 -2.453125q0 -1.28125 0.53125 -2.140625q0.53125 -0.875 1.46875 -1.328125q0.953125 -0.46875 2.203125 -0.46875q2.078125 0 3.09375 1.3125q1.03125 1.3125 1.09375 3.515625l-1.25 0.390625q-0.03125 -1.453125 -0.40625 -2.3125q-0.359375 -0.859375 -0.984375 -1.234375q-0.625 -0.390625 -1.453125 -0.390625q-1.21875 0 -1.96875 0.625q-0.75 0.625 -0.75 1.828125q0 1.03125 0.390625 1.78125q0.40625 0.75 1.484375 1.75l2.21875 1.953125q0.828125 0.703125 1.59375 1.5q0.765625 0.796875 1.265625 1.78125q0.5 0.96875 0.5 2.3125q0 1.34375 -0.5625 2.296875q-0.5625 0.9375 -1.578125 1.453125q-1.0 0.5 -2.375 0.5zm7.454529 -0.28125l0 -18.5l1.734375 0l0 18.5l-1.734375 0zm0 -20.921875l0 -2.953125l1.734375 0l0 2.953125l-1.734375 0zm9.860535 21.109375q-1.28125 0 -1.921875 -0.5q-0.640625 -0.515625 -0.84375 -1.375q-0.1875 -0.875 -0.1875 -1.953125l0 -13.734375l-2.421875 0l0 -1.125l2.421875 0l0 -5.921875l1.703125 0l0 5.921875l3.140625 0l0 1.125l-3.140625 0l0 13.5q0 1.5 0.28125 2.109375q0.296875 0.609375 1.3125 0.609375q0.328125 0 0.6875 -0.046875q0.375 -0.046875 0.6875 -0.109375l0 1.3125q-0.375 0.09375 -0.859375 0.140625q-0.484375 0.046875 -0.859375 0.046875zm4.6035156 -0.1875l0 -18.5l1.734375 0l0 18.5l-1.734375 0zm0 -20.921875l0 -2.953125l1.734375 0l0 2.953125l-1.734375 0zm10.079254 21.203125q-1.828125 0 -2.84375 -0.796875q-1.0 -0.796875 -1.40625 -2.359375q-0.390625 -1.578125 -0.390625 -3.875l0 -5.0q0 -2.296875 0.390625 -3.859375q0.40625 -1.578125 1.40625 -2.375q1.015625 -0.796875 2.84375 -0.796875q1.859375 0 2.859375 0.796875q1.015625 0.796875 1.40625 2.359375q0.40625 1.546875 0.40625 3.875l0 5.0q0 2.296875 -0.40625 3.875q-0.390625 1.5625 -1.40625 2.359375q-1.0 0.796875 -2.859375 0.796875zm0 -1.265625q1.34375 0 1.984375 -0.6875q0.640625 -0.703125 0.8125 -1.96875q0.1875 -1.28125 0.1875 -3.046875l0 -5.125q0 -1.78125 -0.1875 -3.046875q-0.171875 -1.265625 -0.8125 -1.953125q-0.640625 -0.6875 -1.984375 -0.6875q-1.34375 0 -1.96875 0.6875q-0.625 0.6875 -0.796875 1.953125q-0.171875 1.265625 -0.171875 3.046875l0 5.125q0 1.765625 0.171875 3.046875q0.171875 1.265625 0.796875 1.96875q0.625 0.6875 1.96875 0.6875zm7.9747925 0.984375l0 -18.5l1.6875 0l0 1.984375q0.875 -1.015625 1.984375 -1.640625q1.125 -0.625 2.40625 -0.625q0.828125 0 1.484375 0.40625q0.65625 0.390625 1.03125 1.28125q0.390625 0.875 0.390625 2.34375l0 14.75l-1.6875 0l0 -14.5625q0 -1.6875 -0.53125 -2.296875q-0.53125 -0.609375 -1.421875 -0.609375q-0.9375 0 -1.875 0.5625q-0.9375 0.546875 -1.78125 1.484375l0 15.421875l-1.6875 0z" fill-rule="nonzero"/><path fill="#000000" fill-opacity="0.0" d="m602.35016 141.12239l0 0c0 -4.6402283 3.7616577 -8.401886 8.401855 -8.401886l0 0c2.2283325 0 4.3654175 0.8851929 5.94104 2.4608612c1.5756836 1.5756531 2.4608765 3.7127075 2.4608765 5.941025l0 0c0 4.6402435 -3.7616577 8.401901 -8.4019165 8.401901l0 0c-4.6401978 0 -8.401855 -3.7616577 -8.401855 -8.401901z" fill-rule="evenodd"/><path stroke="#3d85c6" stroke-width="4.0" stroke-linejoin="round" stroke-linecap="butt" d="m602.35016 141.12239l0 0c0 -4.6402283 3.7616577 -8.401886 8.401855 -8.401886l0 0c2.2283325 0 4.3654175 0.8851929 5.94104 2.4608612c1.5756836 1.5756531 2.4608765 3.7127075 2.4608765 5.941025l0 0c0 4.6402435 -3.7616577 8.401901 -8.4019165 8.401901l0 0c-4.6401978 0 -8.401855 -3.7616577 -8.401855 -8.401901z" fill-rule="evenodd"/><path fill="#ffffff" d="m603.24634 159.78796l5.524292 -23.451767l16.404663 17.633453z" fill-rule="evenodd"/><path fill="#595959" d="m610.2263 168.82355l0 -28.545425l23.30127 28.545425z" fill-rule="evenodd"/><path stroke="#595959" stroke-width="1.0" stroke-linejoin="round" stroke-linecap="butt" d="m610.2263 168.82355l0 -28.545425l23.30127 28.545425z" fill-rule="evenodd"/><path fill="#595959" d="m622.6969 165.86203l-12.658813 -25.583755l-6.0143433 34.825836z" fill-rule="evenodd"/><path stroke="#595959" stroke-width="1.0" stroke-linejoin="round" stroke-linecap="butt" d="m622.6969 165.86203l-12.658813 -25.583755l-6.0143433 34.825836z" fill-rule="evenodd"/><path fill="#595959" d="m612.86 166.94392l0 0c-0.1762085 -0.7257843 0.2692871 -1.4573212 0.9949951 -1.6339111l5.2557983 -1.2789459l0 0c0.3484497 -0.08479309 0.7163086 -0.027664185 1.022522 0.15882874c0.3062744 0.18647766 0.5258179 0.48706055 0.61047363 0.8356018l3.8709717 15.946838c0.1762085 0.72579956 -0.2692871 1.4573212 -0.9949951 1.6339111l-5.2557983 1.2789459c-0.725708 0.17658997 -1.4567871 -0.26863098 -1.6329956 -0.99443054z" fill-rule="evenodd"/><path stroke="#595959" stroke-width="1.0" stroke-linejoin="round" stroke-linecap="butt" d="m612.86 166.94392l0 0c-0.1762085 -0.7257843 0.2692871 -1.4573212 0.9949951 -1.6339111l5.2557983 -1.2789459l0 0c0.3484497 -0.08479309 0.7163086 -0.027664185 1.022522 0.15882874c0.3062744 0.18647766 0.5258179 0.48706055 0.61047363 0.8356018l3.8709717 15.946838c0.1762085 0.72579956 -0.2692871 1.4573212 -0.9949951 1.6339111l-5.2557983 1.2789459c-0.725708 0.17658997 -1.4567871 -0.26863098 -1.6329956 -0.99443054z" fill-rule="evenodd"/><path fill="#f3f3f3" d="m14.097113 474.87158l0 0c0 -5.31131 4.3056736 -9.616974 9.616991 -9.616974l102.08885 0c2.5505905 0 4.9967117 1.0132141 6.8002396 2.816742c1.8035431 1.8035278 2.8167572 4.249634 2.8167572 6.800232l0 38.466797c0 5.3113403 -4.3056793 9.617004 -9.616997 9.617004l-102.08885 0c-5.3113174 0 -9.616991 -4.305664 -9.616991 -9.617004z" fill-rule="evenodd"/><path stroke="#595959" stroke-width="1.0" stroke-linejoin="round" stroke-linecap="butt" d="m14.097113 474.87158l0 0c0 -5.31131 4.3056736 -9.616974 9.616991 -9.616974l102.08885 0c2.5505905 0 4.9967117 1.0132141 6.8002396 2.816742c1.8035431 1.8035278 2.8167572 4.249634 2.8167572 6.800232l0 38.466797c0 5.3113403 -4.3056793 9.617004 -9.616997 9.617004l-102.08885 0c-5.3113174 0 -9.616991 -4.305664 -9.616991 -9.617004z" fill-rule="evenodd"/><path fill="#595959" d="m57.5046 506.13748q-2.046875 0 -3.375 -0.828125q-1.328125 -0.828125 -2.015625 -2.328125q-0.6875 -1.515625 -0.84375 -3.5625l1.5 -0.46875q0.234375 1.6875 0.6875 3.0q0.46875 1.3125 1.421875 2.03125q0.96875 0.71875 2.65625 0.71875q1.921875 0 3.03125 -0.953125q1.109375 -0.96875 1.109375 -3.203125q0 -1.6875 -0.890625 -3.046875q-0.875 -1.375 -2.46875 -2.9375l-4.75 -4.703125q-1.171875 -1.21875 -1.71875 -2.421875q-0.546875 -1.21875 -0.546875 -2.5q0 -2.5625 1.578125 -3.9375q1.59375 -1.375 4.125 -1.375q1.3125 0 2.359375 0.34375q1.0625 0.328125 1.84375 1.078125q0.78125 0.75 1.21875 2.0q0.453125 1.25 0.59375 3.0625l-1.484375 0.359375q-0.125 -1.828125 -0.609375 -3.03125q-0.46875 -1.21875 -1.40625 -1.8125q-0.921875 -0.59375 -2.484375 -0.59375q-1.765625 0 -2.953125 0.890625q-1.1875 0.890625 -1.1875 2.875q0 1.0 0.40625 1.9375q0.40625 0.921875 1.484375 2.0l4.671875 4.609375q1.578125 1.546875 2.703125 3.296875q1.140625 1.734375 1.140625 3.8125q0 1.953125 -0.734375 3.21875q-0.734375 1.265625 -2.046875 1.875q-1.3125 0.59375 -3.015625 0.59375zm8.714035 -0.3125l0 -25.921875l1.6875 0l0 9.375q0.90625 -1.015625 2.015625 -1.625q1.125 -0.609375 2.40625 -0.609375q0.828125 0 1.484375 0.40625q0.65625 0.390625 1.03125 1.28125q0.390625 0.875 0.390625 2.34375l0 14.75l-1.71875 0l0 -14.5625q0 -1.6875 -0.515625 -2.296875q-0.515625 -0.609375 -1.40625 -0.609375q-0.9375 0 -1.890625 0.5625q-0.953125 0.546875 -1.796875 1.484375l0 15.421875l-1.6875 0zm12.794022 0l0 -18.5l1.734375 0l0 18.5l-1.734375 0zm0 -20.921875l0 -2.953125l1.734375 0l0 2.953125l-1.734375 0zm7.0167694 20.921875l0 -17.3125l-2.5 0l0 -1.1875l2.5 0l0 -2.484375q0 -1.1875 0.171875 -2.125q0.171875 -0.953125 0.8125 -1.515625q0.640625 -0.5625 2.015625 -0.5625q0.421875 0 0.859375 0.046875q0.453125 0.046875 0.84375 0.1875l0 1.265625q-0.328125 -0.09375 -0.703125 -0.140625q-0.359375 -0.046875 -0.640625 -0.046875q-1.09375 0 -1.390625 0.671875q-0.28125 0.671875 -0.28125 2.171875l0 2.53125l3.109375 0l0 1.1875l-3.109375 0l0 17.3125l-1.6875 0zm11.035767 0.1875q-1.28125 0 -1.921875 -0.5q-0.640625 -0.515625 -0.84375 -1.375q-0.1875 -0.875 -0.1875 -1.953125l0 -13.734375l-2.421875 0l0 -1.125l2.421875 0l0 -5.921875l1.703125 0l0 5.921875l3.140625 0l0 1.125l-3.140625 0l0 13.5q0 1.5 0.28125 2.109375q0.296875 0.609375 1.3125 0.609375q0.328125 0 0.6875 -0.046875q0.375 -0.046875 0.6875 -0.109375l0 1.3125q-0.375 0.09375 -0.859375 0.140625q-0.484375 0.046875 -0.859375 0.046875z" fill-rule="nonzero"/><path fill="#ffffff" d="m621.8152 436.58554l0 0c-10.219421 -39.46878 13.491821 -79.749054 52.960632 -89.968506l0 0c18.953613 -4.9075317 39.080383 -2.0848083 55.95276 7.847229c16.872375 9.932068 29.108215 26.15982 34.015747 45.113403l0 0c10.219421 39.46881 -13.491821 79.749084 -52.960632 89.968506l0 0c-39.46875 10.219452 -79.74902 -13.491821 -89.968506 -52.960632z" fill-rule="evenodd"/><path stroke="#595959" stroke-width="8.0" stroke-linejoin="round" stroke-linecap="butt" d="m621.8152 436.58554l0 0c-10.219421 -39.46878 13.491821 -79.749054 52.960632 -89.968506l0 0c18.953613 -4.9075317 39.080383 -2.0848083 55.95276 7.847229c16.872375 9.932068 29.108215 26.15982 34.015747 45.113403l0 0c10.219421 39.46881 -13.491821 79.749084 -52.960632 89.968506l0 0c-39.46875 10.219452 -79.74902 -13.491821 -89.968506 -52.960632z" fill-rule="evenodd"/><path fill="#000000" fill-opacity="0.0" d="m619.44794 407.73767l147.6535 0l0 20.724396l-147.6535 0z" fill-rule="evenodd"/><path fill="#595959" d="m665.6707 406.46112q-1.921875 0 -2.890625 -0.765625q-0.953125 -0.765625 -1.234375 -2.0625q-0.28125 -1.296875 -0.28125 -2.921875l0 -20.59375l-3.65625 0l0 -1.6875l3.65625 0l0 -8.875l2.53125 0l0 8.875l4.703125 0l0 1.6875l-4.703125 0l0 20.25q0 2.265625 0.4375 3.171875q0.4375 0.90625 1.96875 0.90625q0.484375 0 1.03125 -0.0625q0.546875 -0.078125 1.03125 -0.171875l0 1.96875q-0.578125 0.140625 -1.296875 0.203125q-0.71875 0.078125 -1.296875 0.078125zm6.5302734 -0.28125l0 -38.875l2.546875 0l0 14.0625q1.34375 -1.546875 3.015625 -2.453125q1.6875 -0.90625 3.609375 -0.90625q1.25 0 2.234375 0.609375q0.984375 0.59375 1.546875 1.90625q0.578125 1.3125 0.578125 3.53125l0 22.125l-2.578125 0l0 -21.84375q0 -2.546875 -0.78125 -3.453125q-0.765625 -0.90625 -2.109375 -0.90625q-1.390625 0 -2.828125 0.84375q-1.4375 0.828125 -2.6875 2.21875l0 23.140625l-2.546875 0zm19.206665 0l0 -27.75l2.59375 0l0 27.75l-2.59375 0zm0 -31.390625l0 -4.421875l2.59375 0l0 4.421875l-2.59375 0zm9.0251465 31.390625l0 -27.75l2.53125 0l0 3.75q1.25 -2.0625 3.09375 -3.046875q1.859375 -0.984375 3.484375 -0.984375q0.09375 0 0.21875 0q0.125 0 0.265625 0.046875l0 2.640625q-0.1875 -0.09375 -0.5 -0.109375q-0.3125 -0.03125 -0.5625 -0.03125q-1.90625 0 -3.421875 0.921875q-1.515625 0.90625 -2.578125 2.625l0 21.9375l-2.53125 0zm19.048279 0.4375q-3.59375 0 -5.0625 -2.765625q-1.46875 -2.765625 -1.46875 -9.046875l0 -4.9375q0 -3.9375 0.53125 -6.546875q0.53125 -2.625 1.921875 -3.96875q1.390625 -1.34375 3.9375 -1.34375q1.78125 0 3.015625 0.796875q1.25 0.78125 2.015625 1.75l0 -13.25l2.546875 0l0 38.875l-2.546875 0l0 -2.109375q-0.765625 0.90625 -1.984375 1.734375q-1.21875 0.8125 -2.90625 0.8125zm0.34375 -1.96875q1.390625 0 2.5625 -0.71875q1.171875 -0.71875 1.984375 -1.640625l0 -19.921875q-0.765625 -0.765625 -1.9375 -1.578125q-1.171875 -0.8125 -2.65625 -0.8125q-2.640625 0 -3.46875 2.203125q-0.8125 2.203125 -0.8125 7.0625l0 5.75q0 3.359375 0.359375 5.5q0.359375 2.140625 1.296875 3.15625q0.9375 1.0 2.671875 1.0z" fill-rule="nonzero"/><path fill="#595959" d="m658.857 464.17987l0 -27.75l2.546875 0l0 2.984375q1.296875 -1.53125 2.96875 -2.46875q1.6875 -0.9375 3.609375 -0.9375q1.25 0 2.234375 0.609375q0.984375 0.59375 1.546875 1.90625q0.578125 1.3125 0.578125 3.53125l0 22.125l-2.53125 0l0 -21.84375q0 -2.546875 -0.796875 -3.453125q-0.796875 -0.90625 -2.140625 -0.90625q-1.390625 0 -2.8125 0.84375q-1.40625 0.828125 -2.65625 2.21875l0 23.140625l-2.546875 0zm25.205566 0.4375q-2.734375 0 -4.25 -1.203125q-1.515625 -1.203125 -2.125 -3.546875q-0.59375 -2.359375 -0.59375 -5.8125l0 -7.484375q0 -3.46875 0.59375 -5.8125q0.609375 -2.359375 2.125 -3.546875q1.515625 -1.203125 4.25 -1.203125q2.78125 0 4.28125 1.203125q1.515625 1.1875 2.109375 3.515625q0.609375 2.328125 0.609375 5.84375l0 7.484375q0 3.453125 -0.609375 5.8125q-0.59375 2.34375 -2.109375 3.546875q-1.5 1.203125 -4.28125 1.203125zm0 -1.921875q2.015625 0 2.96875 -1.03125q0.96875 -1.03125 1.21875 -2.953125q0.265625 -1.921875 0.265625 -4.5625l0 -7.6875q0 -2.6875 -0.265625 -4.578125q-0.25 -1.890625 -1.21875 -2.921875q-0.953125 -1.03125 -2.96875 -1.03125q-2.015625 0 -2.953125 1.03125q-0.9375 1.03125 -1.203125 2.921875q-0.265625 1.890625 -0.265625 4.578125l0 7.6875q0 2.640625 0.265625 4.5625q0.265625 1.921875 1.203125 2.953125q0.9375 1.03125 2.953125 1.03125zm17.946533 1.921875q-3.59375 0 -5.0625 -2.765625q-1.46875 -2.765625 -1.46875 -9.046875l0 -4.9375q0 -3.9375 0.53125 -6.546875q0.53125 -2.625 1.921875 -3.96875q1.390625 -1.34375 3.9375 -1.34375q1.78125 0 3.015625 0.796875q1.25 0.78125 2.015625 1.75l0 -13.25l2.546875 0l0 38.875l-2.546875 0l0 -2.109375q-0.765625 0.90625 -1.984375 1.734375q-1.21875 0.8125 -2.90625 0.8125zm0.34375 -1.96875q1.390625 0 2.5625 -0.71875q1.171875 -0.71875 1.984375 -1.640625l0 -19.921875q-0.765625 -0.765625 -1.9375 -1.578125q-1.171875 -0.8125 -2.65625 -0.8125q-2.640625 0 -3.46875 2.203125q-0.8125 2.203125 -0.8125 7.0625l0 5.75q0 3.359375 0.359375 5.5q0.359375 2.140625 1.296875 3.15625q0.9375 1.0 2.671875 1.0zm19.147522 1.96875q-2.203125 0 -3.796875 -0.890625q-1.578125 -0.890625 -2.421875 -3.21875q-0.84375 -2.328125 -0.84375 -6.59375l0 -7.390625q0 -4.375 0.859375 -6.625q0.875 -2.265625 2.484375 -3.078125q1.609375 -0.8125 3.765625 -0.8125q2.59375 0 4.078125 1.109375q1.484375 1.09375 2.109375 3.515625q0.625 2.421875 0.625 6.40625l0 2.640625l-11.375 0l0 4.421875q0 3.3125 0.453125 5.1875q0.453125 1.859375 1.46875 2.640625q1.015625 0.765625 2.59375 0.765625q1.0 0 2.0 -0.328125q1.015625 -0.34375 1.6875 -1.59375q0.671875 -1.25 0.671875 -3.890625l0 -2.0625l2.5 0l0 1.828125q0 3.546875 -1.46875 5.765625q-1.453125 2.203125 -5.390625 2.203125zm-4.515625 -16.46875l8.875 0l0 -2.15625q0 -2.5 -0.265625 -4.296875q-0.25 -1.796875 -1.171875 -2.78125q-0.90625 -0.984375 -2.875 -0.984375q-1.53125 0 -2.5625 0.65625q-1.03125 0.640625 -1.515625 2.390625q-0.484375 1.75 -0.484375 5.0625l0 2.109375z" fill-rule="nonzero"/><path fill="#f3f3f3" d="m615.18176 353.90067l14.251953 20.204742l-24.677185 0.23620605z" fill-rule="evenodd"/><path fill="#000000" fill-opacity="0.0" d="m465.9345 271.24557l153.51184 0l0 21.51181l-153.51184 0z" fill-rule="evenodd"/><path fill="#efefef" d="m499.25293 293.90897q-1.28125 0 -1.921875 -0.5q-0.640625 -0.515625 -0.84375 -1.375q-0.1875 -0.875 -0.1875 -1.953125l0 -13.734375l-2.421875 0l0 -1.125l2.421875 0l0 -5.921875l1.703125 0l0 5.921875l3.140625 0l0 1.125l-3.140625 0l0 13.5q0 1.5 0.28125 2.109375q0.296875 0.609375 1.3125 0.609375q0.328125 0 0.6875 -0.046875q0.375 -0.046875 0.6875 -0.109375l0 1.3125q-0.375 0.09375 -0.859375 0.140625q-0.484375 0.046875 -0.859375 0.046875zm4.5722656 -0.1875l0 -18.5l1.703125 0l0 2.5q0.828125 -1.375 2.0625 -2.03125q1.234375 -0.65625 2.3125 -0.65625q0.0625 0 0.140625 0q0.09375 0 0.1875 0.03125l0 1.765625q-0.140625 -0.0625 -0.34375 -0.078125q-0.203125 -0.015625 -0.359375 -0.015625q-1.28125 0 -2.296875 0.609375q-1.0 0.59375 -1.703125 1.75l0 14.625l-1.703125 0zm11.80304 0.28125q-1.109375 0 -1.953125 -0.5q-0.828125 -0.515625 -1.296875 -1.421875q-0.45315552 -0.921875 -0.45315552 -2.109375q0 -1.171875 0.29690552 -2.046875q0.3125 -0.890625 1.109375 -1.65625q0.796875 -0.765625 2.28125 -1.609375q1.5 -0.859375 3.859375 -1.984375l0 -1.3125q0 -2.015625 -0.25 -3.125q-0.234375 -1.125 -0.796875 -1.5625q-0.546875 -0.453125 -1.515625 -0.453125q-0.734375 0 -1.40625 0.265625q-0.671875 0.25 -1.109375 1.0q-0.421875 0.75 -0.421875 2.21875l0 0.484375l-1.671875 0q0 -2.65625 1.078125 -3.953125q1.078125 -1.296875 3.59375 -1.296875q2.34375 0 3.265625 1.46875q0.9375 1.46875 0.9375 4.765625l0 9.3125q0 0.265625 0.015625 0.984375q0.015625 0.71875 0.03125 1.390625q0.015625 0.671875 0.046875 0.859375l-1.46875 0q-0.0625 -0.671875 -0.171875 -1.40625q-0.09375 -0.734375 -0.125 -1.0625q-0.40625 1.15625 -1.4375 1.953125q-1.015625 0.796875 -2.4375 0.796875zm0.421875 -1.40625q0.796875 0 1.4375 -0.359375q0.640625 -0.375 1.15625 -0.96875q0.515625 -0.59375 0.828125 -1.265625l0 -6.078125q-1.6875 0.90625 -2.828125 1.546875q-1.140625 0.640625 -1.796875 1.21875q-0.65625 0.5625 -0.953125 1.28125q-0.28125 0.71875 -0.28125 1.75q0 1.65625 0.765625 2.265625q0.78125 0.609375 1.671875 0.609375zm8.612366 1.125l0 -18.5l1.6875 0l0 1.984375q0.875 -1.015625 1.984375 -1.640625q1.125 -0.625 2.40625 -0.625q0.828125 0 1.484375 0.40625q0.65625 0.390625 1.03125 1.28125q0.390625 0.875 0.390625 2.34375l0 14.75l-1.6875 0l0 -14.5625q0 -1.6875 -0.53125 -2.296875q-0.53125 -0.609375 -1.421875 -0.609375q-0.9375 0 -1.875 0.5625q-0.9375 0.546875 -1.78125 1.484375l0 15.421875l-1.6875 0zm16.699524 0.28125q-2.171875 0 -3.453125 -1.421875q-1.28125 -1.421875 -1.46875 -3.84375l1.4375 -0.421875q0.15625 2.328125 1.0625 3.375q0.921875 1.046875 2.484375 1.046875q1.40625 0 2.171875 -0.78125q0.78125 -0.796875 0.78125 -2.234375q0 -0.984375 -0.65625 -2.0625q-0.65625 -1.078125 -2.078125 -2.25l-2.140625 -1.828125q-1.375 -1.1875 -2.015625 -2.25q-0.640625 -1.078125 -0.640625 -2.453125q0 -1.28125 0.53125 -2.140625q0.53125 -0.875 1.46875 -1.328125q0.953125 -0.46875 2.203125 -0.46875q2.078125 0 3.09375 1.3125q1.03125 1.3125 1.09375 3.515625l-1.25 0.390625q-0.03125 -1.453125 -0.40625 -2.3125q-0.359375 -0.859375 -0.984375 -1.234375q-0.625 -0.390625 -1.453125 -0.390625q-1.21875 0 -1.96875 0.625q-0.75 0.625 -0.75 1.828125q0 1.03125 0.390625 1.78125q0.40625 0.75 1.484375 1.75l2.21875 1.953125q0.828125 0.703125 1.59375 1.5q0.765625 0.796875 1.265625 1.78125q0.5 0.96875 0.5 2.3125q0 1.34375 -0.5625 2.296875q-0.5625 0.9375 -1.578125 1.453125q-1.0 0.5 -2.375 0.5zm7.454529 -0.28125l0 -18.5l1.734375 0l0 18.5l-1.734375 0zm0 -20.921875l0 -2.953125l1.734375 0l0 2.953125l-1.734375 0zm9.860535 21.109375q-1.28125 0 -1.921875 -0.5q-0.640625 -0.515625 -0.84375 -1.375q-0.1875 -0.875 -0.1875 -1.953125l0 -13.734375l-2.421875 0l0 -1.125l2.421875 0l0 -5.921875l1.703125 0l0 5.921875l3.140625 0l0 1.125l-3.140625 0l0 13.5q0 1.5 0.28125 2.109375q0.296875 0.609375 1.3125 0.609375q0.328125 0 0.6875 -0.046875q0.375 -0.046875 0.6875 -0.109375l0 1.3125q-0.375 0.09375 -0.859375 0.140625q-0.484375 0.046875 -0.859375 0.046875zm4.6035156 -0.1875l0 -18.5l1.734375 0l0 18.5l-1.734375 0zm0 -20.921875l0 -2.953125l1.734375 0l0 2.953125l-1.734375 0zm10.079285 21.203125q-1.828125 0 -2.84375 -0.796875q-1.0 -0.796875 -1.40625 -2.359375q-0.390625 -1.578125 -0.390625 -3.875l0 -5.0q0 -2.296875 0.390625 -3.859375q0.40625 -1.578125 1.40625 -2.375q1.015625 -0.796875 2.84375 -0.796875q1.859375 0 2.859375 0.796875q1.015625 0.796875 1.40625 2.359375q0.40625 1.546875 0.40625 3.875l0 5.0q0 2.296875 -0.40625 3.875q-0.390625 1.5625 -1.40625 2.359375q-1.0 0.796875 -2.859375 0.796875zm0 -1.265625q1.34375 0 1.984375 -0.6875q0.640625 -0.703125 0.8125 -1.96875q0.1875 -1.28125 0.1875 -3.046875l0 -5.125q0 -1.78125 -0.1875 -3.046875q-0.171875 -1.265625 -0.8125 -1.953125q-0.640625 -0.6875 -1.984375 -0.6875q-1.34375 0 -1.96875 0.6875q-0.625 0.6875 -0.796875 1.953125q-0.171875 1.265625 -0.171875 3.046875l0 5.125q0 1.765625 0.171875 3.046875q0.171875 1.265625 0.796875 1.96875q0.625 0.6875 1.96875 0.6875zm7.9747314 0.984375l0 -18.5l1.6875 0l0 1.984375q0.875 -1.015625 1.984375 -1.640625q1.125 -0.625 2.40625 -0.625q0.828125 0 1.484375 0.40625q0.65625 0.390625 1.03125 1.28125q0.390625 0.875 0.390625 2.34375l0 14.75l-1.6875 0l0 -14.5625q0 -1.6875 -0.53125 -2.296875q-0.53125 -0.609375 -1.421875 -0.609375q-0.9375 0 -1.875 0.5625q-0.9375 0.546875 -1.78125 1.484375l0 15.421875l-1.6875 0z" fill-rule="nonzero"/><path fill="#000000" fill-opacity="0.0" d="m560.9853 340.66833l0 0c0 -4.6402283 3.7616577 -8.401886 8.4019165 -8.401886l0 0c2.2283325 0 4.3653564 0.8851929 5.94104 2.460846c1.5756226 1.5756531 2.4608765 3.7127075 2.4608765 5.94104l0 0c0 4.6402283 -3.7616577 8.401886 -8.4019165 8.401886l0 0c-4.640259 0 -8.4019165 -3.7616577 -8.4019165 -8.401886z" fill-rule="evenodd"/><path stroke="#3d85c6" stroke-width="4.0" stroke-linejoin="round" stroke-linecap="butt" d="m560.9853 340.66833l0 0c0 -4.6402283 3.7616577 -8.401886 8.4019165 -8.401886l0 0c2.2283325 0 4.3653564 0.8851929 5.94104 2.460846c1.5756226 1.5756531 2.4608765 3.7127075 2.4608765 5.94104l0 0c0 4.6402283 -3.7616577 8.401886 -8.4019165 8.401886l0 0c-4.640259 0 -8.4019165 -3.7616577 -8.4019165 -8.401886z" fill-rule="evenodd"/><path fill="#ffffff" d="m561.88153 359.3339l5.524231 -23.451782l16.404724 17.633484z" fill-rule="evenodd"/><path fill="#595959" d="m568.8615 368.36948l0 -28.54541l23.301208 28.54541z" fill-rule="evenodd"/><path stroke="#595959" stroke-width="1.0" stroke-linejoin="round" stroke-linecap="butt" d="m568.8615 368.36948l0 -28.54541l23.301208 28.54541z" fill-rule="evenodd"/><path fill="#595959" d="m581.3321 365.40796l-12.658813 -25.58374l-6.0144043 34.825836z" fill-rule="evenodd"/><path stroke="#595959" stroke-width="1.0" stroke-linejoin="round" stroke-linecap="butt" d="m581.3321 365.40796l-12.658813 -25.58374l-6.0144043 34.825836z" fill-rule="evenodd"/><path fill="#595959" d="m571.4951 366.48987l0 0c-0.17614746 -0.72579956 0.2692871 -1.4573364 0.9949951 -1.6339111l5.2557983 -1.2789612l0 0c0.34851074 -0.08477783 0.7163086 -0.027679443 1.022583 0.15881348c0.30621338 0.18649292 0.5258179 0.48709106 0.6104126 0.8356323l3.8710327 15.946838c0.17614746 0.72579956 -0.2692871 1.4573059 -0.9949951 1.6339111l-5.2557983 1.2789307c-0.725708 0.17660522 -1.4568481 -0.26861572 -1.6329956 -0.9944153z" fill-rule="evenodd"/><path stroke="#595959" stroke-width="1.0" stroke-linejoin="round" stroke-linecap="butt" d="m571.4951 366.48987l0 0c-0.17614746 -0.72579956 0.2692871 -1.4573364 0.9949951 -1.6339111l5.2557983 -1.2789612l0 0c0.34851074 -0.08477783 0.7163086 -0.027679443 1.022583 0.15881348c0.30621338 0.18649292 0.5258179 0.48709106 0.6104126 0.8356323l3.8710327 15.946838c0.17614746 0.72579956 -0.2692871 1.4573059 -0.9949951 1.6339111l-5.2557983 1.2789307c-0.725708 0.17660522 -1.4568481 -0.26861572 -1.6329956 -0.9944153z" fill-rule="evenodd"/><path fill="#000000" fill-opacity="0.0" d="m269.50568 201.72978l147.65353 0l0 20.724411l-147.65353 0z" fill-rule="evenodd"/><path fill="#595959" d="m315.95087 200.17198l0 -25.96875l-3.75 0l0 -1.78125l3.75 0l0 -3.734375q0 -1.828125 0.28125 -3.234375q0.296875 -1.421875 1.296875 -2.234375q1.015625 -0.828125 3.078125 -0.828125q0.53125 0 1.21875 0.109375q0.703125 0.09375 1.171875 0.234375l0 1.921875q-0.46875 -0.09375 -1.0 -0.171875q-0.53125 -0.078125 -1.015625 -0.078125q-1.625 0 -2.0625 0.921875q-0.421875 0.90625 -0.421875 3.3125l0 3.78125l10.078125 0l0 27.75l-2.546875 0l0 -25.96875l-7.53125 0l0 25.96875l-2.546875 0zm10.21875 -31.390625l0 -4.421875l2.40625 0l0 4.421875l-2.40625 0zm8.888916 31.390625l0 -27.75l2.53125 0l0 3.75q1.25 -2.0625 3.09375 -3.046875q1.859375 -0.984375 3.484375 -0.984375q0.09375 0 0.21875 0q0.125 0 0.265625 0.046875l0 2.640625q-0.1875 -0.09375 -0.5 -0.109375q-0.3125 -0.03125 -0.5625 -0.03125q-1.90625 0 -3.421875 0.921875q-1.515625 0.90625 -2.578125 2.625l0 21.9375l-2.53125 0zm19.53717 0.4375q-3.265625 0 -5.1875 -2.140625q-1.921875 -2.140625 -2.21875 -5.78125l2.171875 -0.625q0.234375 3.5 1.59375 5.0625q1.375 1.5625 3.734375 1.5625q2.109375 0 3.25 -1.171875q1.15625 -1.1875 1.15625 -3.34375q0 -1.484375 -0.984375 -3.09375q-0.984375 -1.609375 -3.09375 -3.390625l-3.21875 -2.734375q-2.0625 -1.765625 -3.03125 -3.375q-0.953125 -1.609375 -0.953125 -3.671875q0 -1.921875 0.796875 -3.21875q0.796875 -1.296875 2.203125 -1.984375q1.421875 -0.703125 3.296875 -0.703125q3.109375 0 4.640625 1.96875q1.546875 1.96875 1.640625 5.28125l-1.875 0.5625q-0.046875 -2.15625 -0.59375 -3.453125q-0.546875 -1.296875 -1.484375 -1.859375q-0.9375 -0.578125 -2.1875 -0.578125q-1.828125 0 -2.953125 0.9375q-1.125 0.921875 -1.125 2.75q0 1.53125 0.59375 2.671875q0.609375 1.125 2.234375 2.609375l3.3125 2.921875q1.25 1.0625 2.390625 2.265625q1.15625 1.203125 1.90625 2.671875q0.75 1.453125 0.75 3.46875q0 2.015625 -0.84375 3.4375q-0.84375 1.40625 -2.359375 2.1875q-1.5 0.765625 -3.5625 0.765625zm16.884888 -0.15625q-1.921875 0 -2.890625 -0.765625q-0.953125 -0.765625 -1.234375 -2.0625q-0.28125 -1.296875 -0.28125 -2.921875l0 -20.59375l-3.65625 0l0 -1.6875l3.65625 0l0 -8.875l2.53125 0l0 8.875l4.703125 0l0 1.6875l-4.703125 0l0 20.25q0 2.265625 0.4375 3.171875q0.4375 0.90625 1.96875 0.90625q0.484375 0 1.03125 -0.0625q0.546875 -0.078125 1.03125 -0.171875l0 1.96875q-0.578125 0.140625 -1.296875 0.203125q-0.71875 0.078125 -1.296875 0.078125z" fill-rule="nonzero"/><path fill="#595959" d="m308.91473 258.172l0 -27.750015l2.546875 0l0 2.984375q1.296875 -1.53125 2.96875 -2.46875q1.6875 -0.9375 3.609375 -0.9375q1.25 0 2.234375 0.609375q0.984375 0.59375 1.546875 1.90625q0.578125 1.3125 0.578125 3.53125l0 22.125015l-2.53125 0l0 -21.843765q0 -2.546875 -0.796875 -3.453125q-0.796875 -0.90625 -2.140625 -0.90625q-1.390625 0 -2.8125 0.84375q-1.40625 0.828125 -2.65625 2.21875l0 23.14064l-2.546875 0zm25.205536 0.4375q-2.734375 0 -4.25 -1.203125q-1.515625 -1.203125 -2.125 -3.5468903q-0.59375 -2.359375 -0.59375 -5.8125l0 -7.484375q0 -3.46875 0.59375 -5.8125q0.609375 -2.359375 2.125 -3.546875q1.515625 -1.203125 4.25 -1.203125q2.78125 0 4.28125 1.203125q1.515625 1.1875 2.109375 3.515625q0.609375 2.328125 0.609375 5.84375l0 7.484375q0 3.453125 -0.609375 5.8125q-0.59375 2.3437653 -2.109375 3.5468903q-1.5 1.203125 -4.28125 1.203125zm0 -1.921875q2.015625 0 2.96875 -1.0312653q0.96875 -1.03125 1.21875 -2.953125q0.265625 -1.921875 0.265625 -4.5625l0 -7.6875q0 -2.6875 -0.265625 -4.578125q-0.25 -1.890625 -1.21875 -2.921875q-0.953125 -1.03125 -2.96875 -1.03125q-2.015625 0 -2.953125 1.03125q-0.9375 1.03125 -1.203125 2.921875q-0.265625 1.890625 -0.265625 4.578125l0 7.6875q0 2.640625 0.265625 4.5625q0.265625 1.921875 1.203125 2.953125q0.9375 1.0312653 2.953125 1.0312653zm17.946533 1.921875q-3.59375 0 -5.0625 -2.7656403q-1.46875 -2.765625 -1.46875 -9.046875l0 -4.9375q0 -3.9375 0.53125 -6.546875q0.53125 -2.625 1.921875 -3.96875q1.390625 -1.34375 3.9375 -1.34375q1.78125 0 3.015625 0.796875q1.25 0.78125 2.015625 1.75l0 -13.25l2.546875 0l0 38.875015l-2.546875 0l0 -2.109375q-0.765625 0.90625 -1.984375 1.734375q-1.21875 0.8125 -2.90625 0.8125zm0.34375 -1.96875q1.390625 0 2.5625 -0.71876526q1.171875 -0.71875 1.984375 -1.640625l0 -19.921875q-0.765625 -0.765625 -1.9375 -1.578125q-1.171875 -0.8125 -2.65625 -0.8125q-2.640625 0 -3.46875 2.203125q-0.8125 2.203125 -0.8125 7.0625l0 5.75q0 3.359375 0.359375 5.5q0.359375 2.140625 1.296875 3.15625q0.9375 1.0000153 2.671875 1.0000153zm19.147552 1.96875q-2.203125 0 -3.796875 -0.890625q-1.578125 -0.890625 -2.421875 -3.2187653q-0.84375 -2.328125 -0.84375 -6.59375l0 -7.390625q0 -4.375 0.859375 -6.625q0.875 -2.265625 2.484375 -3.078125q1.609375 -0.8125 3.765625 -0.8125q2.59375 0 4.078125 1.109375q1.484375 1.09375 2.109375 3.515625q0.625 2.421875 0.625 6.40625l0 2.640625l-11.375 0l0 4.421875q0 3.3125 0.453125 5.1875q0.453125 1.859375 1.46875 2.640625q1.015625 0.76564026 2.59375 0.76564026q1.0 0 2.0 -0.328125q1.015625 -0.34375 1.6875 -1.5937653q0.671875 -1.25 0.671875 -3.890625l0 -2.0625l2.5 0l0 1.828125q0 3.546875 -1.46875 5.7656403q-1.453125 2.203125 -5.390625 2.203125zm-4.515625 -16.468765l8.875 0l0 -2.15625q0 -2.5 -0.265625 -4.296875q-0.25 -1.796875 -1.171875 -2.78125q-0.90625 -0.984375 -2.875 -0.984375q-1.53125 0 -2.5625 0.65625q-1.03125 0.640625 -1.515625 2.390625q-0.484375 1.75 -0.484375 5.0625l0 2.109375z" fill-rule="nonzero"/></g></svg>