<?xml version="1.0" encoding="UTF-8" standalone="no"?>
<!DOCTYPE svg PUBLIC "-//W3C//DTD SVG 1.1//EN"
 "http://www.w3.org/Graphics/SVG/1.1/DTD/svg11.dtd">
<!-- Generated by graphviz version 2.40.1 (20161225.0304)
 -->
<!-- Title: sample Pages: 1 -->
<svg width="1389pt" height="98pt"
 viewBox="0.00 0.00 1389.04 98.00" xmlns="http://www.w3.org/2000/svg" xmlns:xlink="http://www.w3.org/1999/xlink">
<g id="graph0" class="graph" transform="scale(1 1) rotate(0) translate(4 94)">
<title>sample</title>
<polygon fill="#ffffff" stroke="transparent" points="-4,4 -4,-94 1385.0358,-94 1385.0358,4 -4,4"/>
<!-- s3_data_source -->
<g id="node1" class="node">
<title>s3_data_source</title>
<ellipse fill="#b2dfee" stroke="#b2dfee" cx="64.9942" cy="-45" rx="64.9885" ry="18"/>
<text text-anchor="middle" x="64.9942" y="-41.3" font-family="Times,serif" font-size="14.00" fill="#000000">s3_data_source</text>
</g>
<!-- raw_data.tar.gz -->
<g id="node2" class="node">
<title>raw_data.tar.gz</title>
<ellipse fill="#b2dfee" stroke="#b2dfee" cx="331.6326" cy="-45" rx="65.7887" ry="18"/>
<text text-anchor="middle" x="331.6326" y="-41.3" font-family="Times,serif" font-size="14.00" fill="#000000">raw_data.tar.gz</text>
</g>
<!-- s3_data_source&#45;&gt;raw_data.tar.gz -->
<g id="edge1" class="edge">
<title>s3_data_source&#45;&gt;raw_data.tar.gz</title>
<path fill="none" stroke="#000000" d="M130.2213,-45C168.0898,-45 215.9774,-45 255.5563,-45"/>
<polygon fill="#000000" stroke="#000000" points="255.6913,-48.5001 265.6913,-45 255.6912,-41.5001 255.6913,-48.5001"/>
<text text-anchor="middle" x="197.9885" y="-48.8" font-family="Times,serif" font-size="14.00" fill="#000000">download_data.py</text>
</g>
<!-- preprocessed_data -->
<g id="node3" class="node">
<title>preprocessed_data</title>
<ellipse fill="#b2dfee" stroke="#b2dfee" cx="613.6701" cy="-45" rx="75.2868" ry="18"/>
<text text-anchor="middle" x="613.6701" y="-41.3" font-family="Times,serif" font-size="14.00" fill="#000000">preprocessed_data</text>
</g>
<!-- raw_data.tar.gz&#45;&gt;preprocessed_data -->
<g id="edge2" class="edge">
<title>raw_data.tar.gz&#45;&gt;preprocessed_data</title>
<path fill="none" stroke="#000000" d="M397.402,-45C436.2737,-45 485.9336,-45 527.8612,-45"/>
<polygon fill="#000000" stroke="#000000" points="528.0643,-48.5001 538.0643,-45 528.0642,-41.5001 528.0643,-48.5001"/>
<text text-anchor="middle" x="467.7768" y="-48.8" font-family="Times,serif" font-size="14.00" fill="#000000">preprocess_data.py</text>
</g>
<!-- feature_1 -->
<g id="node4" class="node">
<title>feature_1</title>
<ellipse fill="#b2dfee" stroke="#b2dfee" cx="866.2595" cy="-72" rx="44.393" ry="18"/>
<text text-anchor="middle" x="866.2595" y="-68.3" font-family="Times,serif" font-size="14.00" fill="#000000">feature_1</text>
</g>
<!-- preprocessed_data&#45;&gt;feature_1 -->
<g id="edge3" class="edge">
<title>preprocessed_data&#45;&gt;feature_1</title>
<path fill="none" stroke="#000000" d="M682.6913,-52.3779C723.8141,-56.7736 775.2152,-62.268 813.1576,-66.3238"/>
<polygon fill="#000000" stroke="#000000" points="813.1672,-69.8447 823.4826,-67.4275 813.9113,-62.8843 813.1672,-69.8447"/>
<text text-anchor="middle" x="755.5634" y="-67.8" font-family="Times,serif" font-size="14.00" fill="#000000">pca_transform.py</text>
</g>
<!-- feature_2 -->
<g id="node5" class="node">
<title>feature_2</title>
<ellipse fill="#b2dfee" stroke="#b2dfee" cx="866.2595" cy="-18" rx="44.393" ry="18"/>
<text text-anchor="middle" x="866.2595" y="-14.3" font-family="Times,serif" font-size="14.00" fill="#000000">feature_2</text>
</g>
<!-- preprocessed_data&#45;&gt;feature_2 -->
<g id="edge4" class="edge">
<title>preprocessed_data&#45;&gt;feature_2</title>
<path fill="none" stroke="#000000" d="M682.6913,-37.6221C723.8141,-33.2264 775.2152,-27.732 813.1576,-23.6762"/>
<polygon fill="#000000" stroke="#000000" points="813.9113,-27.1157 823.4826,-22.5725 813.1672,-20.1553 813.9113,-27.1157"/>
<text text-anchor="middle" x="755.5634" y="-37.8" font-family="Times,serif" font-size="14.00" fill="#000000">svd_transform.py</text>
</g>
<!-- model_initial -->
<g id="node6" class="node">
<title>model_initial</title>
<ellipse fill="#b2dfee" stroke="#b2dfee" cx="1095.3005" cy="-45" rx="57.6901" ry="18"/>
<text text-anchor="middle" x="1095.3005" y="-41.3" font-family="Times,serif" font-size="14.00" fill="#000000">model_initial</text>
</g>
<!-- feature_1&#45;&gt;model_initial -->
<g id="edge5" class="edge">
<title>feature_1&#45;&gt;model_initial</title>
<path fill="none" stroke="#000000" d="M908.8036,-66.9848C943.0055,-62.953 991.6113,-57.2232 1030.6268,-52.6239"/>
<polygon fill="#000000" stroke="#000000" points="1031.318,-56.0668 1040.8394,-51.42 1030.4984,-49.1149 1031.318,-56.0668"/>
<text text-anchor="middle" x="973.9556" y="-67.8" font-family="Times,serif" font-size="14.00" fill="#000000">model_initial.py</text>
</g>
<!-- feature_2&#45;&gt;model_initial -->
<g id="edge6" class="edge">
<title>feature_2&#45;&gt;model_initial</title>
<path fill="none" stroke="#000000" d="M909.2093,-22.5272C939.9348,-25.8243 982.2649,-30.4852 1019.4556,-35 1023.4213,-35.4814 1027.5021,-35.9878 1031.6163,-36.5065"/>
<polygon fill="#000000" stroke="#000000" points="1031.5023,-40.0203 1041.865,-37.8145 1032.3885,-33.0766 1031.5023,-40.0203"/>
<text text-anchor="middle" x="973.9556" y="-38.8" font-family="Times,serif" font-size="14.00" fill="#000000">model_initial.py</text>
</g>
<!-- model_final -->
<g id="node7" class="node">
<title>model_final</title>
<ellipse fill="#b2dfee" stroke="#b2dfee" cx="1327.0905" cy="-45" rx="53.8905" ry="18"/>
<text text-anchor="middle" x="1327.0905" y="-41.3" font-family="Times,serif" font-size="14.00" fill="#000000">model_final</text>
</g>
<!-- model_initial&#45;&gt;model_final -->
<g id="edge7" class="edge">
<title>model_initial&#45;&gt;model_final</title>
<path fill="none" stroke="#000000" d="M1153.193,-45C1186.4894,-45 1228.3919,-45 1262.7211,-45"/>
<polygon fill="#000000" stroke="#000000" points="1263.114,-48.5001 1273.1139,-45 1263.1139,-41.5001 1263.114,-48.5001"/>
<text text-anchor="middle" x="1213.1453" y="-48.8" font-family="Times,serif" font-size="14.00" fill="#000000">model_final.py</text>
</g>
</g>
</svg>
