<svg version="1.1" viewBox="0.0 0.0 960.0 540.0" fill="none" stroke="none" stroke-linecap="square" stroke-miterlimit="10" xmlns:xlink="http://www.w3.org/1999/xlink" xmlns="http://www.w3.org/2000/svg"><clipPath id="g596a490178_0_464.0"><path d="m0 0l960.0 0l0 540.0l-960.0 0l0 -540.0z" clip-rule="nonzero"/></clipPath><g clip-path="url(#g596a490178_0_464.0)"><path fill="#ffffff" d="m0 0l960.0 0l0 540.0l-960.0 0z" fill-rule="evenodd"/><path fill="#000000" fill-opacity="0.0" d="m353.2908 207.8244l194.11026 141.70078" fill-rule="evenodd"/><path stroke="#595959" stroke-width="8.0" stroke-linejoin="round" stroke-linecap="butt" d="m353.2908 207.8244l194.11026 141.70078" fill-rule="evenodd"/><path fill="#f3f3f3" d="m387.84833 207.8396l-24.913391 -19.826782l30.456696 -9.181091z" fill-rule="evenodd"/><path fill="#000000" fill-opacity="0.0" d="m389.79016 193.4506l0 0c30.299957 5.405304 72.32541 26.798721 112.26068 57.147232c39.93524 30.34851 72.61371 65.7258 87.29248 94.50174l-115.86972 -51.747803z" fill-rule="evenodd"/><path fill="#000000" fill-opacity="0.0" d="m389.79016 193.4506l0 0c30.299957 5.405304 72.32541 26.798721 112.26068 57.147232c39.93524 30.34851 72.61371 65.7258 87.29248 94.50174" fill-rule="evenodd"/><path stroke="#efefef" stroke-width="8.0" stroke-linejoin="round" stroke-linecap="butt" d="m389.79016 193.4506l0 0c30.299957 5.405304 72.32541 26.798721 112.26068 57.147232c39.93524 30.34851 72.61371 65.7258 87.29248 94.50174" fill-rule="evenodd"/><path fill="#000000" fill-opacity="0.0" d="m368.9265 170.94194l0 0c54.22528 -10.086578 110.23651 1.7808685 155.71185 32.991653c45.475403 31.21077 76.68976 79.20825 86.776306 133.43353l-204.45667 38.031494z" fill-rule="evenodd"/><path fill="#000000" fill-opacity="0.0" d="m368.9265 170.94194l0 0c54.22528 -10.086578 110.23651 1.7808685 155.71185 32.991653c45.475403 31.21077 76.68976 79.20825 86.776306 133.43353" fill-rule="evenodd"/><path stroke="#595959" stroke-width="8.0" stroke-linejoin="round" stroke-linecap="butt" d="m368.9265 170.94194l0 0c54.22528 -10.086578 110.23651 1.7808685 155.71185 32.991653c45.475403 31.21077 76.68976 79.20825 86.776306 133.43353" fill-rule="evenodd"/><path fill="#000000" fill-opacity="0.0" d="m383.74896 178.51096l0 0c33.866608 -3.144989 83.78311 16.550598 129.21326 50.98378c45.430176 34.43318 78.70032 77.78783 86.12268 112.22728l-125.613525 -56.099945z" fill-rule="evenodd"/><path fill="#000000" fill-opacity="0.0" d="m383.74896 178.51096l0 0c33.866608 -3.144989 83.78311 16.550598 129.21326 50.98378c45.430176 34.43318 78.70032 77.78783 86.12268 112.22728" fill-rule="evenodd"/><path stroke="#d9d9d9" stroke-width="8.0" stroke-linejoin="round" stroke-linecap="butt" d="m383.74896 178.51096l0 0c33.866608 -3.144989 83.78311 16.550598 129.21326 50.98378c45.430176 34.43318 78.70032 77.78783 86.12268 112.22728" fill-rule="evenodd"/><path fill="#d9d9d9" d="m388.09903 195.09895l-27.937012 -14.771652l27.937012 -14.771652z" fill-rule="evenodd"/><path fill="#ffffff" d="m218.2089 188.87952l0 0c-10.219437 -39.468796 13.491852 -79.74907 52.960632 -89.968506l0 0c18.953583 -4.9075546 39.080383 -2.084816 55.95276 7.847229c16.872375 9.932045 29.108185 26.15982 34.015747 45.113403l0 0c10.219452 39.46878 -13.491852 79.749054 -52.960632 89.968506l0 0c-39.46878 10.219437 -79.749054 -13.491852 -89.968506 -52.960632z" fill-rule="evenodd"/><path stroke="#595959" stroke-width="8.0" stroke-linejoin="round" stroke-linecap="butt" d="m218.2089 188.87952l0 0c-10.219437 -39.468796 13.491852 -79.74907 52.960632 -89.968506l0 0c18.953583 -4.9075546 39.080383 -2.084816 55.95276 7.847229c16.872375 9.932045 29.108185 26.15982 34.015747 45.113403l0 0c10.219452 39.46878 -13.491852 79.749054 -52.960632 89.968506l0 0c-39.46878 10.219437 -79.749054 -13.491852 -89.968506 -52.960632z" fill-rule="evenodd"/><path fill="#ffffff" d="m554.096 426.81915l0 0c-10.219421 -39.46881 13.491882 -79.749084 52.960632 -89.968506l0 0c18.953613 -4.9075623 39.080444 -2.0848083 55.95276 7.847229c16.872375 9.932037 29.108215 26.15982 34.015747 45.113403l0 0c10.219482 39.46878 -13.491821 79.749054 -52.960632 89.968506l0 0c-39.46875 10.219421 -79.74902 -13.491852 -89.968506 -52.960632z" fill-rule="evenodd"/><path stroke="#595959" stroke-width="8.0" stroke-linejoin="round" stroke-linecap="butt" d="m554.096 426.81915l0 0c-10.219421 -39.46881 13.491882 -79.749084 52.960632 -89.968506l0 0c18.953613 -4.9075623 39.080444 -2.0848083 55.95276 7.847229c16.872375 9.932037 29.108215 26.15982 34.015747 45.113403l0 0c10.219482 39.46878 -13.491821 79.749054 -52.960632 89.968506l0 0c-39.46875 10.219421 -79.74902 -13.491852 -89.968506 -52.960632z" fill-rule="evenodd"/><path fill="#000000" fill-opacity="0.0" d="m551.734 397.95288l147.65356 0l0 20.724396l-147.65356 0z" fill-rule="evenodd"/><path fill="#595959" d="m591.14307 425.39508l0 -27.75l2.546875 0l0 2.984375q1.296875 -1.53125 2.96875 -2.46875q1.6875 -0.9375 3.609375 -0.9375q1.25 0 2.234375 0.609375q0.984375 0.59375 1.546875 1.90625q0.578125 1.3125 0.578125 3.53125l0 22.125l-2.53125 0l0 -21.84375q0 -2.546875 -0.796875 -3.453125q-0.796875 -0.90625 -2.140625 -0.90625q-1.390625 0 -2.8125 0.84375q-1.40625 0.828125 -2.65625 2.21875l0 23.140625l-2.546875 0zm25.205566 0.4375q-2.734375 0 -4.25 -1.203125q-1.515625 -1.203125 -2.125 -3.546875q-0.59375 -2.359375 -0.59375 -5.8125l0 -7.484375q0 -3.46875 0.59375 -5.8125q0.609375 -2.359375 2.125 -3.546875q1.515625 -1.203125 4.25 -1.203125q2.78125 0 4.28125 1.203125q1.515625 1.1875 2.109375 3.515625q0.609375 2.328125 0.609375 5.84375l0 7.484375q0 3.453125 -0.609375 5.8125q-0.59375 2.34375 -2.109375 3.546875q-1.5 1.203125 -4.28125 1.203125zm0 -1.921875q2.015625 0 2.96875 -1.03125q0.96875 -1.03125 1.21875 -2.953125q0.265625 -1.921875 0.265625 -4.5625l0 -7.6875q0 -2.6875 -0.265625 -4.578125q-0.25 -1.890625 -1.21875 -2.921875q-0.953125 -1.03125 -2.96875 -1.03125q-2.015625 0 -2.953125 1.03125q-0.9375 1.03125 -1.203125 2.921875q-0.265625 1.890625 -0.265625 4.578125l0 7.6875q0 2.640625 0.265625 4.5625q0.265625 1.921875 1.203125 2.953125q0.9375 1.03125 2.953125 1.03125zm17.946533 1.921875q-3.59375 0 -5.0625 -2.765625q-1.46875 -2.765625 -1.46875 -9.046875l0 -4.9375q0 -3.9375 0.53125 -6.546875q0.53125 -2.625 1.921875 -3.96875q1.390625 -1.34375 3.9375 -1.34375q1.78125 0 3.015625 0.796875q1.25 0.78125 2.015625 1.75l0 -13.25l2.546875 0l0 38.875l-2.546875 0l0 -2.109375q-0.765625 0.90625 -1.984375 1.734375q-1.21875 0.8125 -2.90625 0.8125zm0.34375 -1.96875q1.390625 0 2.5625 -0.71875q1.171875 -0.71875 1.984375 -1.640625l0 -19.921875q-0.765625 -0.765625 -1.9375 -1.578125q-1.171875 -0.8125 -2.65625 -0.8125q-2.640625 0 -3.46875 2.203125q-0.8125 2.203125 -0.8125 7.0625l0 5.75q0 3.359375 0.359375 5.5q0.359375 2.140625 1.296875 3.15625q0.9375 1.0 2.671875 1.0zm19.147522 1.96875q-2.203125 0 -3.796875 -0.890625q-1.578125 -0.890625 -2.421875 -3.21875q-0.84375 -2.328125 -0.84375 -6.59375l0 -7.390625q0 -4.375 0.859375 -6.625q0.875 -2.265625 2.484375 -3.078125q1.609375 -0.8125 3.765625 -0.8125q2.59375 0 4.078125 1.109375q1.484375 1.09375 2.109375 3.515625q0.625 2.421875 0.625 6.40625l0 2.640625l-11.375 0l0 4.421875q0 3.3125 0.453125 5.1875q0.453125 1.859375 1.46875 2.640625q1.015625 0.765625 2.59375 0.765625q1.0 0 2.0 -0.328125q1.015625 -0.34375 1.6875 -1.59375q0.671875 -1.25 0.671875 -3.890625l0 -2.0625l2.5 0l0 1.828125q0 3.546875 -1.46875 5.765625q-1.453125 2.203125 -5.390625 2.203125zm-4.515625 -16.46875l8.875 0l0 -2.15625q0 -2.5 -0.265625 -4.296875q-0.25 -1.796875 -1.171875 -2.78125q-0.90625 -0.984375 -2.875 -0.984375q-1.53125 0 -2.5625 0.65625q-1.03125 0.640625 -1.515625 2.390625q-0.484375 1.75 -0.484375 5.0625l0 2.109375z" fill-rule="nonzero"/><path fill="#000000" fill-opacity="0.0" d="m215.84688 160.01324l147.65355 0l0 20.724411l-147.65355 0z" fill-rule="evenodd"/><path fill="#595959" d="m255.25595 187.45544l0 -27.75l2.546875 0l0 2.984375q1.296875 -1.53125 2.96875 -2.46875q1.6875 -0.9375 3.609375 -0.9375q1.25 0 2.234375 0.609375q0.984375 0.59375 1.546875 1.90625q0.578125 1.3125 0.578125 3.53125l0 22.125l-2.53125 0l0 -21.84375q0 -2.546875 -0.796875 -3.453125q-0.796875 -0.90625 -2.140625 -0.90625q-1.390625 0 -2.8125 0.84375q-1.40625 0.828125 -2.65625 2.21875l0 23.140625l-2.546875 0zm25.205536 0.4375q-2.734375 0 -4.25 -1.203125q-1.515625 -1.203125 -2.125 -3.546875q-0.59375 -2.359375 -0.59375 -5.8125l0 -7.484375q0 -3.46875 0.59375 -5.8125q0.609375 -2.359375 2.125 -3.546875q1.515625 -1.203125 4.25 -1.203125q2.78125 0 4.28125 1.203125q1.515625 1.1875 2.109375 3.515625q0.609375 2.328125 0.609375 5.84375l0 7.484375q0 3.453125 -0.609375 5.8125q-0.59375 2.34375 -2.109375 3.546875q-1.5 1.203125 -4.28125 1.203125zm0 -1.921875q2.015625 0 2.96875 -1.03125q0.96875 -1.03125 1.21875 -2.953125q0.265625 -1.921875 0.265625 -4.5625l0 -7.6875q0 -2.6875 -0.265625 -4.578125q-0.25 -1.890625 -1.21875 -2.921875q-0.953125 -1.03125 -2.96875 -1.03125q-2.015625 0 -2.953125 1.03125q-0.9375 1.03125 -1.203125 2.921875q-0.265625 1.890625 -0.265625 4.578125l0 7.6875q0 2.640625 0.265625 4.5625q0.265625 1.921875 1.203125 2.953125q0.9375 1.03125 2.953125 1.03125zm17.946533 1.921875q-3.59375 0 -5.0625 -2.765625q-1.46875 -2.765625 -1.46875 -9.046875l0 -4.9375q0 -3.9375 0.53125 -6.546875q0.53125 -2.625 1.921875 -3.96875q1.390625 -1.34375 3.9375 -1.34375q1.78125 0 3.015625 0.796875q1.25 0.78125 2.015625 1.75l0 -13.25l2.546875 0l0 38.875l-2.546875 0l0 -2.109375q-0.765625 0.90625 -1.984375 1.734375q-1.21875 0.8125 -2.90625 0.8125zm0.34375 -1.96875q1.390625 0 2.5625 -0.71875q1.171875 -0.71875 1.984375 -1.640625l0 -19.921875q-0.765625 -0.765625 -1.9375 -1.578125q-1.171875 -0.8125 -2.65625 -0.8125q-2.640625 0 -3.46875 2.203125q-0.8125 2.203125 -0.8125 7.0625l0 5.75q0 3.359375 0.359375 5.5q0.359375 2.140625 1.296875 3.15625q0.9375 1.0 2.671875 1.0zm19.147552 1.96875q-2.203125 0 -3.796875 -0.890625q-1.578125 -0.890625 -2.421875 -3.21875q-0.84375 -2.328125 -0.84375 -6.59375l0 -7.390625q0 -4.375 0.859375 -6.625q0.875 -2.265625 2.484375 -3.078125q1.609375 -0.8125 3.765625 -0.8125q2.59375 0 4.078125 1.109375q1.484375 1.09375 2.109375 3.515625q0.625 2.421875 0.625 6.40625l0 2.640625l-11.375 0l0 4.421875q0 3.3125 0.453125 5.1875q0.453125 1.859375 1.46875 2.640625q1.015625 0.765625 2.59375 0.765625q1.0 0 2.0 -0.328125q1.015625 -0.34375 1.6875 -1.59375q0.671875 -1.25 0.671875 -3.890625l0 -2.0625l2.5 0l0 1.828125q0 3.546875 -1.46875 5.765625q-1.453125 2.203125 -5.390625 2.203125zm-4.515625 -16.46875l8.875 0l0 -2.15625q0 -2.5 -0.265625 -4.296875q-0.25 -1.796875 -1.171875 -2.78125q-0.90625 -0.984375 -2.875 -0.984375q-1.53125 0 -2.5625 0.65625q-1.03125 0.640625 -1.515625 2.390625q-0.484375 1.75 -0.484375 5.0625l0 2.109375z" fill-rule="nonzero"/><path fill="#595959" d="m390.46194 182.64334l-30.236237 -9.968506l25.385834 -19.16536z" fill-rule="evenodd"/><path fill="#f3f3f3" d="m488.13156 274.65173l0 -38.99794l31.843964 38.99794z" fill-rule="evenodd"/><path fill="#f3f3f3" d="m505.17413 270.6058l-17.299835 -34.951797l-8.21936 47.57808z" fill-rule="evenodd"/><path fill="#f3f3f3" d="m491.73087 272.08438l0 0c-0.24084473 -0.9918518 0.3678894 -1.9914856 1.3596497 -2.232727l7.182678 -1.7472534l0 0c0.47625732 -0.11584473 0.9789429 -0.037750244 1.3974915 0.21713257c0.41854858 0.2548828 0.71865845 0.6656494 0.83432007 1.1419373l5.2899475 21.785095c0.24084473 0.9918518 -0.3678894 1.9914551 -1.3596497 2.232727l-7.182678 1.7472534c-0.99176025 0.24124146 -1.9909668 -0.36721802 -2.2318115 -1.3590698z" fill-rule="evenodd"/><path fill="#d9d9d9" d="m499.5356 256.904l0 -38.997955l31.843964 38.997955z" fill-rule="evenodd"/><path fill="#d9d9d9" d="m516.5782 252.85805l-17.299835 -34.951797l-8.21936 47.578064z" fill-rule="evenodd"/><path fill="#d9d9d9" d="m503.13492 254.33662l0 0c-0.24084473 -0.9918518 0.3678894 -1.9914703 1.3596497 -2.232727l7.182678 -1.7472534l0 0c0.47625732 -0.115859985 0.9789429 -0.037750244 1.397522 0.21713257c0.41851807 0.25486755 0.7186279 0.6656494 0.83428955 1.1419525l5.289978 21.785065c0.24084473 0.9918518 -0.36791992 1.9914856 -1.3596802 2.232727l-7.182678 1.7472534c-0.99176025 0.24127197 -1.9909668 -0.36721802 -2.2318115 -1.3590698z" fill-rule="evenodd"/><path fill="#595959" d="m512.66455 238.86667l0 -38.997955l31.843994 38.997955z" fill-rule="evenodd"/><path stroke="#595959" stroke-width="1.0" stroke-linejoin="round" stroke-linecap="butt" d="m512.66455 238.86667l0 -38.997955l31.843994 38.997955z" fill-rule="evenodd"/><path fill="#595959" d="m529.70715 234.82074l-17.299866 -34.951813l-8.21936 47.57808z" fill-rule="evenodd"/><path stroke="#595959" stroke-width="1.0" stroke-linejoin="round" stroke-linecap="butt" d="m529.70715 234.82074l-17.299866 -34.951813l-8.21936 47.57808z" fill-rule="evenodd"/><path fill="#595959" d="m516.26385 236.29932l0 0c-0.24084473 -0.9918518 0.3678589 -1.9914856 1.3596191 -2.232727l7.182678 -1.7472534l0 0c0.47625732 -0.115859985 0.9790039 -0.037750244 1.397522 0.21711731c0.41851807 0.2548828 0.7186279 0.6656494 0.83428955 1.1419525l5.289978 21.78508c0.24084473 0.99183655 -0.36791992 1.9914703 -1.3596191 2.2327423l-7.1827393 1.7472534c-0.9916992 0.24124146 -1.9909668 -0.36724854 -2.2318115 -1.3591003z" fill-rule="evenodd"/><path stroke="#595959" stroke-width="1.0" stroke-linejoin="round" stroke-linecap="butt" d="m516.26385 236.29932l0 0c-0.24084473 -0.9918518 0.3678589 -1.9914856 1.3596191 -2.232727l7.182678 -1.7472534l0 0c0.47625732 -0.115859985 0.9790039 -0.037750244 1.397522 0.21711731c0.41851807 0.2548828 0.7186279 0.6656494 0.83428955 1.1419525l5.289978 21.78508c0.24084473 0.99183655 -0.36791992 1.9914703 -1.3596191 2.2327423l-7.1827393 1.7472534c-0.9916992 0.24124146 -1.9909668 -0.36724854 -2.2318115 -1.3591003z" fill-rule="evenodd"/><path fill="#000000" fill-opacity="0.0" d="m462.35303 160.01227l197.7323 0l0 27.716537l-197.7323 0z" fill-rule="evenodd"/><path fill="#595959" d="m506.94965 185.77803q-1.28125 0 -1.921875 -0.5q-0.640625 -0.515625 -0.84375 -1.375q-0.1875 -0.875 -0.1875 -1.953125l0 -13.734375l-2.421875 0l0 -1.125l2.421875 0l0 -5.921875l1.703125 0l0 5.921875l3.140625 0l0 1.125l-3.140625 0l0 13.5q0 1.5 0.28125 2.109375q0.296875 0.609375 1.3125 0.609375q0.328125 0 0.6875 -0.046875q0.375 -0.046875 0.6875 -0.109375l0 1.3125q-0.375 0.09375 -0.859375 0.140625q-0.484375 0.046875 -0.859375 0.046875zm4.5722656 -0.1875l0 -18.5l1.703125 0l0 2.5q0.828125 -1.375 2.0625 -2.03125q1.234375 -0.65625 2.3125 -0.65625q0.0625 0 0.140625 0q0.09375 0 0.1875 0.03125l0 1.765625q-0.140625 -0.0625 -0.34375 -0.078125q-0.203125 -0.015625 -0.359375 -0.015625q-1.28125 0 -2.296875 0.609375q-1.0 0.59375 -1.703125 1.75l0 14.625l-1.703125 0zm11.80304 0.28125q-1.109375 0 -1.953125 -0.5q-0.828125 -0.515625 -1.296875 -1.421875q-0.453125 -0.921875 -0.453125 -2.109375q0 -1.171875 0.296875 -2.046875q0.3125 -0.890625 1.109375 -1.65625q0.796875 -0.765625 2.28125 -1.609375q1.5 -0.859375 3.859375 -1.984375l0 -1.3125q0 -2.015625 -0.25 -3.125q-0.234375 -1.125 -0.796875 -1.5625q-0.546875 -0.453125 -1.515625 -0.453125q-0.734375 0 -1.40625 0.265625q-0.671875 0.25 -1.109375 1.0q-0.421875 0.75 -0.421875 2.21875l0 0.484375l-1.671875 0q0 -2.65625 1.078125 -3.953125q1.078125 -1.296875 3.59375 -1.296875q2.34375 0 3.265625 1.46875q0.9375 1.46875 0.9375 4.765625l0 9.3125q0 0.265625 0.015625 0.984375q0.015625 0.71875 0.03125 1.390625q0.015625 0.671875 0.046875 0.859375l-1.46875 0q-0.0625 -0.671875 -0.171875 -1.40625q-0.09375 -0.734375 -0.125 -1.0625q-0.40625 1.15625 -1.4375 1.953125q-1.015625 0.796875 -2.4375 0.796875zm0.421875 -1.40625q0.796875 0 1.4375 -0.359375q0.640625 -0.375 1.15625 -0.96875q0.515625 -0.59375 0.828125 -1.265625l0 -6.078125q-1.6875 0.90625 -2.828125 1.546875q-1.140625 0.640625 -1.796875 1.21875q-0.65625 0.5625 -0.953125 1.28125q-0.28125 0.71875 -0.28125 1.75q0 1.65625 0.765625 2.265625q0.78125 0.609375 1.671875 0.609375zm8.612366 1.125l0 -18.5l1.6875 0l0 1.984375q0.875 -1.015625 1.984375 -1.640625q1.125 -0.625 2.40625 -0.625q0.828125 0 1.484375 0.40625q0.65625 0.390625 1.03125 1.28125q0.390625 0.875 0.390625 2.34375l0 14.75l-1.6875 0l0 -14.5625q0 -1.6875 -0.53125 -2.296875q-0.53125 -0.609375 -1.421875 -0.609375q-0.9375 0 -1.875 0.5625q-0.9375 0.546875 -1.78125 1.484375l0 15.421875l-1.6875 0zm16.699524 0.28125q-2.171875 0 -3.453125 -1.421875q-1.28125 -1.421875 -1.46875 -3.84375l1.4375 -0.421875q0.15625 2.328125 1.0625 3.375q0.921875 1.046875 2.484375 1.046875q1.40625 0 2.171875 -0.78125q0.78125 -0.796875 0.78125 -2.234375q0 -0.984375 -0.65625 -2.0625q-0.65625 -1.078125 -2.078125 -2.25l-2.140625 -1.828125q-1.375 -1.1875 -2.015625 -2.25q-0.640625 -1.078125 -0.640625 -2.453125q0 -1.28125 0.53125 -2.140625q0.53125 -0.875 1.46875 -1.328125q0.953125 -0.46875 2.203125 -0.46875q2.078125 0 3.09375 1.3125q1.03125 1.3125 1.09375 3.515625l-1.25 0.390625q-0.03125 -1.453125 -0.40625 -2.3125q-0.359375 -0.859375 -0.984375 -1.234375q-0.625 -0.390625 -1.453125 -0.390625q-1.21875 0 -1.96875 0.625q-0.75 0.625 -0.75 1.828125q0 1.03125 0.390625 1.78125q0.40625 0.75 1.484375 1.75l2.21875 1.953125q0.828125 0.703125 1.59375 1.5q0.765625 0.796875 1.265625 1.78125q0.5 0.96875 0.5 2.3125q0 1.34375 -0.5625 2.296875q-0.5625 0.9375 -1.578125 1.453125q-1.0 0.5 -2.375 0.5zm7.454529 -0.28125l0 -18.5l1.734375 0l0 18.5l-1.734375 0zm0 -20.921875l0 -2.953125l1.734375 0l0 2.953125l-1.734375 0zm9.860535 21.109375q-1.28125 0 -1.921875 -0.5q-0.640625 -0.515625 -0.84375 -1.375q-0.1875 -0.875 -0.1875 -1.953125l0 -13.734375l-2.421875 0l0 -1.125l2.421875 0l0 -5.921875l1.703125 0l0 5.921875l3.140625 0l0 1.125l-3.140625 0l0 13.5q0 1.5 0.28125 2.109375q0.296875 0.609375 1.3125 0.609375q0.328125 0 0.6875 -0.046875q0.375 -0.046875 0.6875 -0.109375l0 1.3125q-0.375 0.09375 -0.859375 0.140625q-0.484375 0.046875 -0.859375 0.046875zm4.6035156 -0.1875l0 -18.5l1.734375 0l0 18.5l-1.734375 0zm0 -20.921875l0 -2.953125l1.734375 0l0 2.953125l-1.734375 0zm10.079285 21.203125q-1.828125 0 -2.84375 -0.796875q-1.0 -0.796875 -1.40625 -2.359375q-0.390625 -1.578125 -0.390625 -3.875l0 -5.0q0 -2.296875 0.390625 -3.859375q0.40625 -1.578125 1.40625 -2.375q1.015625 -0.796875 2.84375 -0.796875q1.859375 0 2.859375 0.796875q1.015625 0.796875 1.40625 2.359375q0.40625 1.546875 0.40625 3.875l0 5.0q0 2.296875 -0.40625 3.875q-0.390625 1.5625 -1.40625 2.359375q-1.0 0.796875 -2.859375 0.796875zm0 -1.265625q1.34375 0 1.984375 -0.6875q0.640625 -0.703125 0.8125 -1.96875q0.1875 -1.28125 0.1875 -3.046875l0 -5.125q0 -1.78125 -0.1875 -3.046875q-0.171875 -1.265625 -0.8125 -1.953125q-0.640625 -0.6875 -1.984375 -0.6875q-1.34375 0 -1.96875 0.6875q-0.625 0.6875 -0.796875 1.953125q-0.171875 1.265625 -0.171875 3.046875l0 5.125q0 1.765625 0.171875 3.046875q0.171875 1.265625 0.796875 1.96875q0.625 0.6875 1.96875 0.6875zm7.9747314 0.984375l0 -18.5l1.6875 0l0 1.984375q0.875 -1.015625 1.984375 -1.640625q1.125 -0.625 2.40625 -0.625q0.828125 0 1.484375 0.40625q0.65625 0.390625 1.03125 1.28125q0.390625 0.875 0.390625 2.34375l0 14.75l-1.6875 0l0 -14.5625q0 -1.6875 -0.53125 -2.296875q-0.53125 -0.609375 -1.421875 -0.609375q-0.9375 0 -1.875 0.5625q-0.9375 0.546875 -1.78125 1.484375l0 15.421875l-1.6875 0zm19.138184 0l0 -25.921875l5.34375 0q1.78125 0 2.953125 0.5q1.171875 0.5 1.828125 1.390625q0.65625 0.890625 0.921875 2.0625q0.28125 1.171875 0.28125 2.515625q0 1.015625 -0.25 2.1875q-0.234375 1.171875 -0.875 2.078125q-0.640625 0.890625 -1.921875 1.203125q1.5 0.453125 2.28125 1.546875q0.796875 1.078125 1.0625 2.40625q0.265625 1.328125 0.265625 2.484375q0 1.46875 -0.203125 2.8125q-0.203125 1.34375 -0.8125 2.421875q-0.609375 1.0625 -1.75 1.6875q-1.125 0.625 -3.015625 0.625l-6.109375 0zm1.71875 -1.375l4.15625 0q2.5625 0 3.4375 -1.5q0.890625 -1.515625 0.890625 -4.640625q0 -1.578125 -0.375 -2.84375q-0.359375 -1.28125 -1.25 -2.046875q-0.875 -0.78125 -2.4375 -0.78125l-4.421875 0l0 11.8125zm0 -13.1875l4.390625 0q1.4375 0 2.203125 -0.671875q0.765625 -0.671875 1.0625 -1.765625q0.3125 -1.109375 0.3125 -2.453125q0 -1.4375 -0.359375 -2.59375q-0.34375 -1.15625 -1.359375 -1.8125q-1.0 -0.65625 -3.046875 -0.65625l-3.203125 0l0 9.953125z" fill-rule="nonzero"/><path fill="#595959" d="m553.98444 340.11682l11.307068 22.0l-24.472412 -3.196869z" fill-rule="evenodd"/><path fill="#000000" fill-opacity="0.0" d="m339.00143 300.98572l153.51181 0l0 21.51181l-153.51181 0z" fill-rule="evenodd"/><path fill="#595959" d="m361.80786 323.64914q-1.28125 0 -1.921875 -0.5q-0.640625 -0.515625 -0.84375 -1.375q-0.1875 -0.875 -0.1875 -1.953125l0 -13.734375l-2.421875 0l0 -1.125l2.421875 0l0 -5.921875l1.703125 0l0 5.921875l3.140625 0l0 1.125l-3.140625 0l0 13.5q0 1.5 0.28125 2.109375q0.296875 0.609375 1.3125 0.609375q0.328125 0 0.6875 -0.046875q0.375 -0.046875 0.6875 -0.109375l0 1.3125q-0.375 0.09375 -0.859375 0.140625q-0.484375 0.046875 -0.859375 0.046875zm4.5722656 -0.1875l0 -18.5l1.703125 0l0 2.5q0.828125 -1.375 2.0625 -2.03125q1.234375 -0.65625 2.3125 -0.65625q0.0625 0 0.140625 0q0.09375 0 0.1875 0.03125l0 1.765625q-0.140625 -0.0625 -0.34375 -0.078125q-0.203125 -0.015625 -0.359375 -0.015625q-1.28125 0 -2.296875 0.609375q-1.0 0.59375 -1.703125 1.75l0 14.625l-1.703125 0zm11.803009 0.28125q-1.109375 0 -1.953125 -0.5q-0.828125 -0.515625 -1.296875 -1.421875q-0.453125 -0.921875 -0.453125 -2.109375q0 -1.171875 0.296875 -2.046875q0.3125 -0.890625 1.109375 -1.65625q0.796875 -0.765625 2.28125 -1.609375q1.5 -0.859375 3.859375 -1.984375l0 -1.3125q0 -2.015625 -0.25 -3.125q-0.234375 -1.125 -0.796875 -1.5625q-0.546875 -0.453125 -1.515625 -0.453125q-0.734375 0 -1.40625 0.265625q-0.671875 0.25 -1.109375 1.0q-0.421875 0.75 -0.421875 2.21875l0 0.484375l-1.671875 0q0 -2.65625 1.078125 -3.953125q1.078125 -1.296875 3.59375 -1.296875q2.34375 0 3.265625 1.46875q0.9375 1.46875 0.9375 4.765625l0 9.3125q0 0.265625 0.015625 0.984375q0.015625 0.71875 0.03125 1.390625q0.015625 0.671875 0.046875 0.859375l-1.46875 0q-0.0625 -0.671875 -0.171875 -1.40625q-0.09375 -0.734375 -0.125 -1.0625q-0.40625 1.15625 -1.4375 1.953125q-1.015625 0.796875 -2.4375 0.796875zm0.421875 -1.40625q0.796875 0 1.4375 -0.359375q0.640625 -0.375 1.15625 -0.96875q0.515625 -0.59375 0.828125 -1.265625l0 -6.078125q-1.6875 0.90625 -2.828125 1.546875q-1.140625 0.640625 -1.796875 1.21875q-0.65625 0.5625 -0.953125 1.28125q-0.28125 0.71875 -0.28125 1.75q0 1.65625 0.765625 2.265625q0.78125 0.609375 1.671875 0.609375zm8.612396 1.125l0 -18.5l1.6875 0l0 1.984375q0.875 -1.015625 1.984375 -1.640625q1.125 -0.625 2.40625 -0.625q0.828125 0 1.484375 0.40625q0.65625 0.390625 1.03125 1.28125q0.390625 0.875 0.390625 2.34375l0 14.75l-1.6875 0l0 -14.5625q0 -1.6875 -0.53125 -2.296875q-0.53125 -0.609375 -1.421875 -0.609375q-0.9375 0 -1.875 0.5625q-0.9375 0.546875 -1.78125 1.484375l0 15.421875l-1.6875 0zm16.699524 0.28125q-2.171875 0 -3.453125 -1.421875q-1.28125 -1.421875 -1.46875 -3.84375l1.4375 -0.421875q0.15625 2.328125 1.0625 3.375q0.921875 1.046875 2.484375 1.046875q1.40625 0 2.171875 -0.78125q0.78125 -0.796875 0.78125 -2.234375q0 -0.984375 -0.65625 -2.0625q-0.65625 -1.078125 -2.078125 -2.25l-2.140625 -1.828125q-1.375 -1.1875 -2.015625 -2.25q-0.640625 -1.078125 -0.640625 -2.453125q0 -1.28125 0.53125 -2.140625q0.53125 -0.875 1.46875 -1.328125q0.953125 -0.46875 2.203125 -0.46875q2.078125 0 3.09375 1.3125q1.03125 1.3125 1.09375 3.515625l-1.25 0.390625q-0.03125 -1.453125 -0.40625 -2.3125q-0.359375 -0.859375 -0.984375 -1.234375q-0.625 -0.390625 -1.453125 -0.390625q-1.21875 0 -1.96875 0.625q-0.75 0.625 -0.75 1.828125q0 1.03125 0.390625 1.78125q0.40625 0.75 1.484375 1.75l2.21875 1.953125q0.828125 0.703125 1.59375 1.5q0.765625 0.796875 1.265625 1.78125q0.5 0.96875 0.5 2.3125q0 1.34375 -0.5625 2.296875q-0.5625 0.9375 -1.578125 1.453125q-1.0 0.5 -2.375 0.5zm7.454529 -0.28125l0 -18.5l1.734375 0l0 18.5l-1.734375 0zm0 -20.921875l0 -2.953125l1.734375 0l0 2.953125l-1.734375 0zm9.860504 21.109375q-1.28125 0 -1.921875 -0.5q-0.640625 -0.515625 -0.84375 -1.375q-0.1875 -0.875 -0.1875 -1.953125l0 -13.734375l-2.421875 0l0 -1.125l2.421875 0l0 -5.921875l1.703125 0l0 5.921875l3.140625 0l0 1.125l-3.140625 0l0 13.5q0 1.5 0.28125 2.109375q0.296875 0.609375 1.3125 0.609375q0.328125 0 0.6875 -0.046875q0.375 -0.046875 0.6875 -0.109375l0 1.3125q-0.375 0.09375 -0.859375 0.140625q-0.484375 0.046875 -0.859375 0.046875zm4.6035156 -0.1875l0 -18.5l1.734375 0l0 18.5l-1.734375 0zm0 -20.921875l0 -2.953125l1.734375 0l0 2.953125l-1.734375 0zm10.079285 21.203125q-1.828125 0 -2.84375 -0.796875q-1.0 -0.796875 -1.40625 -2.359375q-0.390625 -1.578125 -0.390625 -3.875l0 -5.0q0 -2.296875 0.390625 -3.859375q0.40625 -1.578125 1.40625 -2.375q1.015625 -0.796875 2.84375 -0.796875q1.859375 0 2.859375 0.796875q1.015625 0.796875 1.40625 2.359375q0.40625 1.546875 0.40625 3.875l0 5.0q0 2.296875 -0.40625 3.875q-0.390625 1.5625 -1.40625 2.359375q-1.0 0.796875 -2.859375 0.796875zm0 -1.265625q1.34375 0 1.984375 -0.6875q0.640625 -0.703125 0.8125 -1.96875q0.1875 -1.28125 0.1875 -3.046875l0 -5.125q0 -1.78125 -0.1875 -3.046875q-0.171875 -1.265625 -0.8125 -1.953125q-0.640625 -0.6875 -1.984375 -0.6875q-1.34375 0 -1.96875 0.6875q-0.625 0.6875 -0.796875 1.953125q-0.171875 1.265625 -0.171875 3.046875l0 5.125q0 1.765625 0.171875 3.046875q0.171875 1.265625 0.796875 1.96875q0.625 0.6875 1.96875 0.6875zm7.974762 0.984375l0 -18.5l1.6875 0l0 1.984375q0.875 -1.015625 1.984375 -1.640625q1.125 -0.625 2.40625 -0.625q0.828125 0 1.484375 0.40625q0.65625 0.390625 1.03125 1.28125q0.390625 0.875 0.390625 2.34375l0 14.75l-1.6875 0l0 -14.5625q0 -1.6875 -0.53125 -2.296875q-0.53125 -0.609375 -1.421875 -0.609375q-0.9375 0 -1.875 0.5625q-0.9375 0.546875 -1.78125 1.484375l0 15.421875l-1.6875 0zm17.763184 0l5.4374695 -25.921875l2.015625 0l5.46875 25.921875l-1.765625 0l-1.34375 -7.171875l-6.7187195 0l-1.375 7.171875l-1.71875 0zm3.359375 -8.453125l6.2343445 0l-3.140625 -15.359375l-3.0937195 15.359375z" fill-rule="nonzero"/></g></svg>