<?xml version="1.0" encoding="UTF-8"?>
<svg width="36px" height="33px" viewBox="0 0 36 33" version="1.1" xmlns="http://www.w3.org/2000/svg" xmlns:xlink="http://www.w3.org/1999/xlink">
    <!-- Generator: Sketch 53.2 (72643) - https://sketchapp.com -->
    <title>Path Copy</title>
    <desc>Created with Sketch.</desc>
    <g id="Dashboard--Launch-Version-(beta)" stroke="none" stroke-width="1" fill="none" fill-rule="evenodd">
        <g id="Drive-mode" transform="translate(-335.000000, -412.000000)" fill="#FFFFFF" fill-rule="nonzero">
            <path d="M355.490502,412.006397 C346.461688,411.74978 339.064801,419.24666 339.064801,428.503199 L335.889639,428.503199 C335.091413,428.503199 334.70117,429.493007 335.268797,430.06123 L340.217793,435.175238 C340.57256,435.541834 341.122448,435.541834 341.477215,435.175238 L346.426211,430.06123 C346.9761,429.493007 346.585856,428.503199 345.787631,428.503199 L342.612469,428.503199 C342.612469,421.354585 348.25326,415.580704 355.206688,415.672353 C361.80535,415.764002 367.35745,421.501223 367.446142,428.319901 C367.534833,435.486845 361.947257,441.334044 355.029305,441.334044 C352.812013,441.334044 350.736627,440.710832 348.927317,439.666034 C348.235522,439.262779 347.384082,439.409417 346.834193,439.99597 C346.01823,440.83914 346.177875,442.287193 347.18896,442.873746 C349.512682,444.211819 352.173433,445 355.029305,445 C363.987166,445 371.242146,437.356482 370.993809,428.026624 C370.763211,419.429958 363.809782,412.244684 355.490502,412.006397 Z" id="Path-Copy" transform="translate(353.000000, 428.500000) scale(-1, 1) translate(-353.000000, -428.500000) "></path>
        </g>
    </g>
</svg>