<svg version="1.1" viewBox="0.0 0.0 960.0 540.0" fill="none" stroke="none" stroke-linecap="square" stroke-miterlimit="10" xmlns:xlink="http://www.w3.org/1999/xlink" xmlns="http://www.w3.org/2000/svg"><clipPath id="g596a490178_0_21.0"><path d="m0 0l960.0 0l0 540.0l-960.0 0l0 -540.0z" clip-rule="nonzero"/></clipPath><g clip-path="url(#g596a490178_0_21.0)"><path fill="#ffffff" d="m0 0l960.0 0l0 540.0l-960.0 0z" fill-rule="evenodd"/><path fill="#f3f3f3" d="m520.54297 307.22186l0 -50.233765l41.015625 50.233765z" fill-rule="evenodd"/><path fill="#f3f3f3" d="m542.49414 302.01025l-22.282532 -45.02188l-10.58667 61.28595z" fill-rule="evenodd"/><path fill="#f3f3f3" d="m525.1789 303.91467l0 0c-0.31018066 -1.2775269 0.47387695 -2.565094 1.7512817 -2.8758545l9.251465 -2.2506714l0 0c0.6134033 -0.14923096 1.2608643 -0.04864502 1.7999878 0.2796631c0.5390625 0.3282776 0.92559814 0.85736084 1.074585 1.4708557l6.8135986 28.06192c0.31018066 1.2775574 -0.47387695 2.5651245 -1.7512817 2.875885l-9.251404 2.2506409c-1.2774048 0.3107605 -2.564392 -0.47296143 -2.8746338 -1.7504883z" fill-rule="evenodd"/><path fill="#d9d9d9" d="m537.5272 291.22186l0 -50.233765l41.015625 50.233765z" fill-rule="evenodd"/><path fill="#d9d9d9" d="m559.4784 286.01025l-22.282532 -45.02188l-10.58667 61.28595z" fill-rule="evenodd"/><path fill="#d9d9d9" d="m542.16315 287.91467l0 0c-0.31018066 -1.2775269 0.47387695 -2.565094 1.7512817 -2.8758545l9.251465 -2.2506714l0 0c0.6134033 -0.14923096 1.2608643 -0.04864502 1.7999878 0.2796631c0.5390625 0.3282776 0.92559814 0.85736084 1.074585 1.4708557l6.8135986 28.06192c0.31018066 1.2775574 -0.47387695 2.5651245 -1.7512817 2.875885l-9.251404 2.2506409c-1.2774048 0.3107605 -2.564392 -0.47296143 -2.8746338 -1.7504883z" fill-rule="evenodd"/><path fill="#000000" fill-opacity="0.0" d="m221.40158 399.439l190.20471 0l0 26.677185l-190.20471 0z" fill-rule="evenodd"/><path fill="#595959" d="m289.12238 400.85757l0 -25.96875l-3.75 0l0 -1.78125l3.75 0l0 -3.734375q0 -1.828125 0.28125 -3.234375q0.296875 -1.421875 1.296875 -2.234375q1.015625 -0.828125 3.078125 -0.828125q0.53125 0 1.21875 0.109375q0.703125 0.09375 1.171875 0.234375l0 1.921875q-0.46875 -0.09375 -1.0 -0.171875q-0.53125 -0.078125 -1.015625 -0.078125q-1.625 0 -2.0625 0.921875q-0.421875 0.90625 -0.421875 3.3125l0 3.78125l10.078125 0l0 27.75l-2.546875 0l0 -25.96875l-7.53125 0l0 25.96875l-2.546875 0zm10.21875 -31.390625l0 -4.421875l2.40625 0l0 4.421875l-2.40625 0zm8.888916 31.390625l0 -27.75l2.53125 0l0 3.75q1.25 -2.0625 3.09375 -3.046875q1.859375 -0.984375 3.484375 -0.984375q0.09375 0 0.21875 0q0.125 0 0.265625 0.046875l0 2.640625q-0.1875 -0.09375 -0.5 -0.109375q-0.3125 -0.03125 -0.5625 -0.03125q-1.90625 0 -3.421875 0.921875q-1.515625 0.90625 -2.578125 2.625l0 21.9375l-2.53125 0zm19.53717 0.4375q-3.265625 0 -5.1875 -2.140625q-1.921875 -2.140625 -2.21875 -5.78125l2.171875 -0.625q0.234375 3.5 1.59375 5.0625q1.375 1.5625 3.734375 1.5625q2.109375 0 3.25 -1.171875q1.15625 -1.1875 1.15625 -3.34375q0 -1.484375 -0.984375 -3.09375q-0.984375 -1.609375 -3.09375 -3.390625l-3.21875 -2.734375q-2.0625 -1.765625 -3.03125 -3.375q-0.953125 -1.609375 -0.953125 -3.671875q0 -1.921875 0.796875 -3.21875q0.796875 -1.296875 2.203125 -1.984375q1.421875 -0.703125 3.296875 -0.703125q3.109375 0 4.640625 1.96875q1.546875 1.96875 1.640625 5.28125l-1.875 0.5625q-0.046875 -2.15625 -0.59375 -3.453125q-0.546875 -1.296875 -1.484375 -1.859375q-0.9375 -0.578125 -2.1875 -0.578125q-1.828125 0 -2.953125 0.9375q-1.125 0.921875 -1.125 2.75q0 1.53125 0.59375 2.671875q0.609375 1.125 2.234375 2.609375l3.3125 2.921875q1.25 1.0625 2.390625 2.265625q1.15625 1.203125 1.90625 2.671875q0.75 1.453125 0.75 3.46875q0 2.015625 -0.84375 3.4375q-0.84375 1.40625 -2.359375 2.1875q-1.5 0.765625 -3.5625 0.765625zm16.884888 -0.15625q-1.921875 0 -2.890625 -0.765625q-0.953125 -0.765625 -1.234375 -2.0625q-0.28125 -1.296875 -0.28125 -2.921875l0 -20.59375l-3.65625 0l0 -1.6875l3.65625 0l0 -8.875l2.53125 0l0 8.875l4.703125 0l0 1.6875l-4.703125 0l0 20.25q0 2.265625 0.4375 3.171875q0.4375 0.90625 1.96875 0.90625q0.484375 0 1.03125 -0.0625q0.546875 -0.078125 1.03125 -0.171875l0 1.96875q-0.578125 0.140625 -1.296875 0.203125q-0.71875 0.078125 -1.296875 0.078125z" fill-rule="nonzero"/><path fill="#595959" d="m282.08624 458.85757l0 -27.75l2.546875 0l0 2.984375q1.296875 -1.53125 2.96875 -2.46875q1.6875 -0.9375 3.609375 -0.9375q1.25 0 2.234375 0.609375q0.984375 0.59375 1.546875 1.90625q0.578125 1.3125 0.578125 3.53125l0 22.125l-2.53125 0l0 -21.84375q0 -2.546875 -0.796875 -3.453125q-0.796875 -0.90625 -2.140625 -0.90625q-1.390625 0 -2.8125 0.84375q-1.40625 0.828125 -2.65625 2.21875l0 23.140625l-2.546875 0zm25.205536 0.4375q-2.734375 0 -4.25 -1.203125q-1.515625 -1.203125 -2.125 -3.546875q-0.59375 -2.359375 -0.59375 -5.8125l0 -7.484375q0 -3.46875 0.59375 -5.8125q0.609375 -2.359375 2.125 -3.546875q1.515625 -1.203125 4.25 -1.203125q2.78125 0 4.28125 1.203125q1.515625 1.1875 2.109375 3.515625q0.609375 2.328125 0.609375 5.84375l0 7.484375q0 3.453125 -0.609375 5.8125q-0.59375 2.34375 -2.109375 3.546875q-1.5 1.203125 -4.28125 1.203125zm0 -1.921875q2.015625 0 2.96875 -1.03125q0.96875 -1.03125 1.21875 -2.953125q0.265625 -1.921875 0.265625 -4.5625l0 -7.6875q0 -2.6875 -0.265625 -4.578125q-0.25 -1.890625 -1.21875 -2.921875q-0.953125 -1.03125 -2.96875 -1.03125q-2.015625 0 -2.953125 1.03125q-0.9375 1.03125 -1.203125 2.921875q-0.265625 1.890625 -0.265625 4.578125l0 7.6875q0 2.640625 0.265625 4.5625q0.265625 1.921875 1.203125 2.953125q0.9375 1.03125 2.953125 1.03125zm17.946533 1.921875q-3.59375 0 -5.0625 -2.765625q-1.46875 -2.765625 -1.46875 -9.046875l0 -4.9375q0 -3.9375 0.53125 -6.546875q0.53125 -2.625 1.921875 -3.96875q1.390625 -1.34375 3.9375 -1.34375q1.78125 0 3.015625 0.796875q1.25 0.78125 2.015625 1.75l0 -13.25l2.546875 0l0 38.875l-2.546875 0l0 -2.109375q-0.765625 0.90625 -1.984375 1.734375q-1.21875 0.8125 -2.90625 0.8125zm0.34375 -1.96875q1.390625 0 2.5625 -0.71875q1.171875 -0.71875 1.984375 -1.640625l0 -19.921875q-0.765625 -0.765625 -1.9375 -1.578125q-1.171875 -0.8125 -2.65625 -0.8125q-2.640625 0 -3.46875 2.203125q-0.8125 2.203125 -0.8125 7.0625l0 5.75q0 3.359375 0.359375 5.5q0.359375 2.140625 1.296875 3.15625q0.9375 1.0 2.671875 1.0zm19.147552 1.96875q-2.203125 0 -3.796875 -0.890625q-1.578125 -0.890625 -2.421875 -3.21875q-0.84375 -2.328125 -0.84375 -6.59375l0 -7.390625q0 -4.375 0.859375 -6.625q0.875 -2.265625 2.484375 -3.078125q1.609375 -0.8125 3.765625 -0.8125q2.59375 0 4.078125 1.109375q1.484375 1.09375 2.109375 3.515625q0.625 2.421875 0.625 6.40625l0 2.640625l-11.375 0l0 4.421875q0 3.3125 0.453125 5.1875q0.453125 1.859375 1.46875 2.640625q1.015625 0.765625 2.59375 0.765625q1.0 0 2.0 -0.328125q1.015625 -0.34375 1.6875 -1.59375q0.671875 -1.25 0.671875 -3.890625l0 -2.0625l2.5 0l0 1.828125q0 3.546875 -1.46875 5.765625q-1.453125 2.203125 -5.390625 2.203125zm-4.515625 -16.46875l8.875 0l0 -2.15625q0 -2.5 -0.265625 -4.296875q-0.25 -1.796875 -1.171875 -2.78125q-0.90625 -0.984375 -2.875 -0.984375q-1.53125 0 -2.5625 0.65625q-1.03125 0.640625 -1.515625 2.390625q-0.484375 1.75 -0.484375 5.0625l0 2.109375z" fill-rule="nonzero"/><path fill="#000000" fill-opacity="0.0" d="m548.3937 127.22572l0 0c0 -52.523582 42.578796 -95.10236 95.102356 -95.10236l0 0c25.222717 0 49.412415 10.019684 67.24756 27.854836c17.835144 17.835152 27.854858 42.02481 27.854858 67.24753l0 0c0 52.52359 -42.578796 95.102356 -95.10242 95.102356l0 0c-52.52356 0 -95.102356 -42.578766 -95.102356 -95.102356z" fill-rule="evenodd"/><path stroke="#595959" stroke-width="8.0" stroke-linejoin="round" stroke-linecap="butt" d="m548.3937 127.22572l0 0c0 -52.523582 42.578796 -95.10236 95.102356 -95.10236l0 0c25.222717 0 49.412415 10.019684 67.24756 27.854836c17.835144 17.835152 27.854858 42.02481 27.854858 67.24753l0 0c0 52.52359 -42.578796 95.102356 -95.10242 95.102356l0 0c-52.52356 0 -95.102356 -42.578766 -95.102356 -95.102356z" fill-rule="evenodd"/><path fill="#000000" fill-opacity="0.0" d="m548.3937 113.89158l190.20477 0l0 26.677162l-190.20477 0z" fill-rule="evenodd"/><path fill="#595959" d="m597.83124 115.74766q-3.265625 0 -5.1875 -2.140625q-1.921875 -2.140625 -2.21875 -5.78125l2.171875 -0.625q0.234375 3.5 1.59375 5.0625q1.375 1.5625 3.734375 1.5625q2.109375 0 3.25 -1.171875q1.15625 -1.1875 1.15625 -3.34375q0 -1.484375 -0.984375 -3.09375q-0.984375 -1.609375 -3.09375 -3.390625l-3.21875 -2.734375q-2.0625 -1.765625 -3.03125 -3.375q-0.953125 -1.609375 -0.953125 -3.671875q0 -1.921875 0.796875 -3.21875q0.796875 -1.296875 2.203125 -1.984375q1.421875 -0.703125 3.296875 -0.703125q3.109375 0 4.640625 1.96875q1.546875 1.96875 1.640625 5.28125l-1.875 0.5625q-0.046875 -2.15625 -0.59375 -3.453125q-0.546875 -1.296875 -1.484375 -1.859375q-0.9375 -0.578125 -2.1875 -0.578125q-1.828125 0 -2.953125 0.9375q-1.125 0.921875 -1.125 2.75q0 1.53125 0.59375 2.671875q0.609375 1.125 2.234375 2.609375l3.3125 2.921875q1.25 1.0625 2.390625 2.265625q1.15625 1.203125 1.90625 2.671875q0.75 1.453125 0.75 3.46875q0 2.015625 -0.84375 3.4375q-0.84375 1.40625 -2.359375 2.1875q-1.5 0.765625 -3.5625 0.765625zm17.322388 0q-2.203125 0 -3.796875 -0.890625q-1.578125 -0.890625 -2.421875 -3.21875q-0.84375 -2.328125 -0.84375 -6.59375l0 -7.390625q0 -4.375 0.859375 -6.625q0.875 -2.265625 2.484375 -3.078125q1.609375 -0.8125 3.765625 -0.8125q2.59375 0 4.078125 1.109375q1.484375 1.09375 2.109375 3.515625q0.625 2.421875 0.625 6.40625l0 2.640625l-11.375 0l0 4.421875q0 3.3125 0.453125 5.1875q0.453125 1.859375 1.46875 2.640625q1.015625 0.765625 2.59375 0.765625q1.0 0 2.0 -0.328125q1.015625 -0.34375 1.6875 -1.59375q0.671875 -1.25 0.671875 -3.890625l0 -2.0625l2.5 0l0 1.828125q0 3.546875 -1.46875 5.765625q-1.453125 2.203125 -5.390625 2.203125zm-4.515625 -16.46875l8.875 0l0 -2.15625q0 -2.5 -0.265625 -4.296875q-0.25 -1.796875 -1.171875 -2.78125q-0.90625 -0.984375 -2.875 -0.984375q-1.53125 0 -2.5625 0.65625q-1.03125 0.640625 -1.515625 2.390625q-0.484375 1.75 -0.484375 5.0625l0 2.109375zm22.660767 16.46875q-3.125 0 -4.609375 -1.46875q-1.484375 -1.46875 -1.953125 -3.90625q-0.453125 -2.453125 -0.453125 -5.484375l0 -6.515625q0 -4.09375 0.625 -6.5625q0.625 -2.46875 2.15625 -3.5625q1.546875 -1.109375 4.234375 -1.109375q2.875 0 4.34375 1.171875q1.46875 1.171875 1.9375 3.21875q0.484375 2.03125 0.484375 4.578125l0 1.109375l-2.40625 0l0 -1.109375q0 -2.828125 -0.453125 -4.34375q-0.453125 -1.515625 -1.421875 -2.109375q-0.953125 -0.59375 -2.484375 -0.59375q-1.875 0 -2.84375 0.890625q-0.953125 0.875 -1.296875 2.84375q-0.328125 1.96875 -0.328125 5.28125l0 7.203125q0 4.515625 0.890625 6.53125q0.890625 2.015625 3.625 2.015625q1.875 0 2.8125 -0.8125q0.9375 -0.828125 1.21875 -2.546875q0.28125 -1.734375 0.28125 -4.46875l0 -1.0625l2.40625 0l0 1.015625q0 2.78125 -0.4375 5.0q-0.421875 2.203125 -1.875 3.5q-1.4375 1.296875 -4.453125 1.296875zm17.953186 0q-2.734375 0 -4.25 -1.203125q-1.515625 -1.203125 -2.125 -3.546875q-0.59375 -2.359375 -0.59375 -5.8125l0 -7.484375q0 -3.46875 0.59375 -5.8125q0.609375 -2.359375 2.125 -3.546875q1.515625 -1.203125 4.25 -1.203125q2.78125 0 4.28125 1.203125q1.515625 1.1875 2.109375 3.515625q0.609375 2.328125 0.609375 5.84375l0 7.484375q0 3.453125 -0.609375 5.8125q-0.59375 2.34375 -2.109375 3.546875q-1.5 1.203125 -4.28125 1.203125zm0 -1.921875q2.015625 0 2.96875 -1.03125q0.96875 -1.03125 1.21875 -2.953125q0.265625 -1.921875 0.265625 -4.5625l0 -7.6875q0 -2.6875 -0.265625 -4.578125q-0.25 -1.890625 -1.21875 -2.921875q-0.953125 -1.03125 -2.96875 -1.03125q-2.015625 0 -2.953125 1.03125q-0.9375 1.03125 -1.203125 2.921875q-0.265625 1.890625 -0.265625 4.578125l0 7.6875q0 2.640625 0.265625 4.5625q0.265625 1.921875 1.203125 2.953125q0.9375 1.03125 2.953125 1.03125zm11.946533 1.484375l0 -27.75l2.546875 0l0 2.984375q1.296875 -1.53125 2.96875 -2.46875q1.6875 -0.9375 3.609375 -0.9375q1.25 0 2.234375 0.609375q0.984375 0.59375 1.546875 1.90625q0.578125 1.3125 0.578125 3.53125l0 22.125l-2.53125 0l0 -21.84375q0 -2.546875 -0.796875 -3.453125q-0.796875 -0.90625 -2.140625 -0.90625q-1.390625 0 -2.8125 0.84375q-1.40625 0.828125 -2.65625 2.21875l0 23.140625l-2.546875 0zm24.768005 0.4375q-3.59375 0 -5.0625 -2.765625q-1.46875 -2.765625 -1.46875 -9.046875l0 -4.9375q0 -3.9375 0.53125 -6.546875q0.53125 -2.625 1.921875 -3.96875q1.390625 -1.34375 3.9375 -1.34375q1.78125 0 3.015625 0.796875q1.25 0.78125 2.015625 1.75l0 -13.25l2.546875 0l0 38.875l-2.546875 0l0 -2.109375q-0.765625 0.90625 -1.984375 1.734375q-1.21875 0.8125 -2.90625 0.8125zm0.34375 -1.96875q1.390625 0 2.5625 -0.71875q1.171875 -0.71875 1.984375 -1.640625l0 -19.921875q-0.765625 -0.765625 -1.9375 -1.578125q-1.171875 -0.8125 -2.65625 -0.8125q-2.640625 0 -3.46875 2.203125q-0.8125 2.203125 -0.8125 7.0625l0 5.75q0 3.359375 0.359375 5.5q0.359375 2.140625 1.296875 3.15625q0.9375 1.0 2.671875 1.0z" fill-rule="nonzero"/><path fill="#595959" d="m609.07837 173.31015l0 -27.75l2.546875 0l0 2.984375q1.296875 -1.53125 2.96875 -2.46875q1.6875 -0.9375 3.609375 -0.9375q1.25 0 2.234375 0.609375q0.984375 0.59375 1.546875 1.90625q0.578125 1.3125 0.578125 3.53125l0 22.125l-2.53125 0l0 -21.84375q0 -2.546875 -0.796875 -3.453125q-0.796875 -0.90625 -2.140625 -0.90625q-1.390625 0 -2.8125 0.84375q-1.40625 0.828125 -2.65625 2.21875l0 23.140625l-2.546875 0zm25.205566 0.4375q-2.734375 0 -4.25 -1.203125q-1.515625 -1.203125 -2.125 -3.546875q-0.59375 -2.359375 -0.59375 -5.8125l0 -7.484375q0 -3.46875 0.59375 -5.8125q0.609375 -2.359375 2.125 -3.546875q1.515625 -1.203125 4.25 -1.203125q2.78125 0 4.28125 1.203125q1.515625 1.1875 2.109375 3.515625q0.609375 2.328125 0.609375 5.84375l0 7.484375q0 3.453125 -0.609375 5.8125q-0.59375 2.34375 -2.109375 3.546875q-1.5 1.203125 -4.28125 1.203125zm0 -1.921875q2.015625 0 2.96875 -1.03125q0.96875 -1.03125 1.21875 -2.953125q0.265625 -1.921875 0.265625 -4.5625l0 -7.6875q0 -2.6875 -0.265625 -4.578125q-0.25 -1.890625 -1.21875 -2.921875q-0.953125 -1.03125 -2.96875 -1.03125q-2.015625 0 -2.953125 1.03125q-0.9375 1.03125 -1.203125 2.921875q-0.265625 1.890625 -0.265625 4.578125l0 7.6875q0 2.640625 0.265625 4.5625q0.265625 1.921875 1.203125 2.953125q0.9375 1.03125 2.953125 1.03125zm17.946533 1.921875q-3.59375 0 -5.0625 -2.765625q-1.46875 -2.765625 -1.46875 -9.046875l0 -4.9375q0 -3.9375 0.53125 -6.546875q0.53125 -2.625 1.921875 -3.96875q1.390625 -1.34375 3.9375 -1.34375q1.78125 0 3.015625 0.796875q1.25 0.78125 2.015625 1.75l0 -13.25l2.546875 0l0 38.875l-2.546875 0l0 -2.109375q-0.765625 0.90625 -1.984375 1.734375q-1.21875 0.8125 -2.90625 0.8125zm0.34375 -1.96875q1.390625 0 2.5625 -0.71875q1.171875 -0.71875 1.984375 -1.640625l0 -19.921875q-0.765625 -0.765625 -1.9375 -1.578125q-1.171875 -0.8125 -2.65625 -0.8125q-2.640625 0 -3.46875 2.203125q-0.8125 2.203125 -0.8125 7.0625l0 5.75q0 3.359375 0.359375 5.5q0.359375 2.140625 1.296875 3.15625q0.9375 1.0 2.671875 1.0zm19.147522 1.96875q-2.203125 0 -3.796875 -0.890625q-1.578125 -0.890625 -2.421875 -3.21875q-0.84375 -2.328125 -0.84375 -6.59375l0 -7.390625q0 -4.375 0.859375 -6.625q0.875 -2.265625 2.484375 -3.078125q1.609375 -0.8125 3.765625 -0.8125q2.59375 0 4.078125 1.109375q1.484375 1.09375 2.109375 3.515625q0.625 2.421875 0.625 6.40625l0 2.640625l-11.375 0l0 4.421875q0 3.3125 0.453125 5.1875q0.453125 1.859375 1.46875 2.640625q1.015625 0.765625 2.59375 0.765625q1.0 0 2.0 -0.328125q1.015625 -0.34375 1.6875 -1.59375q0.671875 -1.25 0.671875 -3.890625l0 -2.0625l2.5 0l0 1.828125q0 3.546875 -1.46875 5.765625q-1.453125 2.203125 -5.390625 2.203125zm-4.515625 -16.46875l8.875 0l0 -2.15625q0 -2.5 -0.265625 -4.296875q-0.25 -1.796875 -1.171875 -2.78125q-0.90625 -0.984375 -2.875 -0.984375q-1.53125 0 -2.5625 0.65625q-1.03125 0.640625 -1.515625 2.390625q-0.484375 1.75 -0.484375 5.0625l0 2.109375z" fill-rule="nonzero"/><path fill="#000000" fill-opacity="0.0" d="m383.75146 345.52676l155.43304 -122.488205" fill-rule="evenodd"/><path stroke="#ff9900" stroke-width="8.0" stroke-linejoin="round" stroke-linecap="butt" d="m383.75146 345.52676l155.43304 -122.488205" fill-rule="evenodd"/><path fill="#ff9900" d="m529.80774 211.6141l31.196838 -6.3937073l-12.456726 29.259842z" fill-rule="evenodd"/><path fill="#595959" d="m552.1519 272.56308l0 -50.23378l41.015625 50.23378z" fill-rule="evenodd"/><path stroke="#595959" stroke-width="1.0" stroke-linejoin="round" stroke-linecap="butt" d="m552.1519 272.56308l0 -50.23378l41.015625 50.23378z" fill-rule="evenodd"/><path fill="#595959" d="m574.103 267.35147l-22.282532 -45.021896l-10.58667 61.285934z" fill-rule="evenodd"/><path stroke="#595959" stroke-width="1.0" stroke-linejoin="round" stroke-linecap="butt" d="m574.103 267.35147l-22.282532 -45.021896l-10.58667 61.285934z" fill-rule="evenodd"/><path fill="#595959" d="m556.78784 269.2559l0 0c-0.31018066 -1.2775269 0.47387695 -2.565094 1.7512817 -2.8758545l9.251404 -2.2506714l0 0c0.61346436 -0.14923096 1.2609253 -0.04864502 1.7999878 0.27963257c0.53912354 0.3282776 0.9256592 0.85736084 1.074585 1.4708557l6.8136597 28.06195c0.31018066 1.2775269 -0.473938 2.565094 -1.7512817 2.8758545l-9.251465 2.2506714c-1.2774048 0.3107605 -2.564392 -0.47296143 -2.8745728 -1.7504883z" fill-rule="evenodd"/><path stroke="#595959" stroke-width="1.0" stroke-linejoin="round" stroke-linecap="butt" d="m556.78784 269.2559l0 0c-0.31018066 -1.2775269 0.47387695 -2.565094 1.7512817 -2.8758545l9.251404 -2.2506714l0 0c0.61346436 -0.14923096 1.2609253 -0.04864502 1.7999878 0.27963257c0.53912354 0.3282776 0.9256592 0.85736084 1.074585 1.4708557l6.8136597 28.06195c0.31018066 1.2775269 -0.473938 2.565094 -1.7512817 2.8758545l-9.251465 2.2506714c-1.2774048 0.3107605 -2.564392 -0.47296143 -2.8745728 -1.7504883z" fill-rule="evenodd"/><path fill="#000000" fill-opacity="0.0" d="m221.40158 412.7743l0 0c0 -52.52359 42.578766 -95.10239 95.102356 -95.10239l0 0c25.222717 0 49.412384 10.019684 67.24753 27.854858c17.835144 17.835144 27.854828 42.02481 27.854828 67.24753l0 0c0 52.52356 -42.578766 95.102356 -95.102356 95.102356l0 0c-52.52359 0 -95.102356 -42.578796 -95.102356 -95.102356z" fill-rule="evenodd"/><path stroke="#595959" stroke-width="8.0" stroke-linejoin="round" stroke-linecap="butt" d="m221.40158 412.7743l0 0c0 -52.52359 42.578766 -95.10239 95.102356 -95.10239l0 0c25.222717 0 49.412384 10.019684 67.24753 27.854858c17.835144 17.835144 27.854828 42.02481 27.854828 67.24753l0 0c0 52.52356 -42.578766 95.102356 -95.102356 95.102356l0 0c-52.52359 0 -95.102356 -42.578796 -95.102356 -95.102356z" fill-rule="evenodd"/></g></svg>