<svg version="1.1" viewBox="0.0 0.0 960.0 540.0" fill="none" stroke="none" stroke-linecap="square" stroke-miterlimit="10" xmlns:xlink="http://www.w3.org/1999/xlink" xmlns="http://www.w3.org/2000/svg"><clipPath id="g596a490178_0_46.0"><path d="m0 0l960.0 0l0 540.0l-960.0 0l0 -540.0z" clip-rule="nonzero"/></clipPath><g clip-path="url(#g596a490178_0_46.0)"><path fill="#ffffff" d="m0 0l960.0 0l0 540.0l-960.0 0z" fill-rule="evenodd"/><path fill="#eeeeee" d="m333.32678 236.61154l297.85828 0l0 70.677185l-297.85828 0z" fill-rule="evenodd"/><path fill="#000000" fill-opacity="0.0" d="m328.81497 248.80315l302.3622 0l0 42.393692l-302.3622 0z" fill-rule="evenodd"/><path fill="#ff9900" d="m419.85806 287.08l0 -27.75l2.53125 0l0 3.75q1.25 -2.0625 3.09375 -3.046875q1.859375 -0.984375 3.484375 -0.984375q0.09375 0 0.21875 0q0.125 0 0.265625 0.046875l0 2.640625q-0.1875 -0.09375 -0.5 -0.109375q-0.3125 -0.03125 -0.5625 -0.03125q-1.90625 0 -3.421875 0.921875q-1.515625 0.90625 -2.578125 2.625l0 21.9375l-2.53125 0zm19.579529 0.4375q-2.203125 0 -3.796875 -0.890625q-1.578125 -0.890625 -2.421875 -3.21875q-0.84375 -2.328125 -0.84375 -6.59375l0 -7.390625q0 -4.375 0.859375 -6.625q0.875 -2.265625 2.484375 -3.078125q1.609375 -0.8125 3.765625 -0.8125q2.59375 0 4.078125 1.109375q1.484375 1.09375 2.109375 3.515625q0.625 2.421875 0.625 6.40625l0 2.640625l-11.375 0l0 4.421875q0 3.3125 0.453125 5.1875q0.453125 1.859375 1.46875 2.640625q1.015625 0.765625 2.59375 0.765625q1.0 0 2.0 -0.328125q1.015625 -0.34375 1.6875 -1.59375q0.671875 -1.25 0.671875 -3.890625l0 -2.0625l2.5 0l0 1.828125q0 3.546875 -1.46875 5.765625q-1.453125 2.203125 -5.390625 2.203125zm-4.515625 -16.46875l8.875 0l0 -2.15625q0 -2.5 -0.265625 -4.296875q-0.25 -1.796875 -1.171875 -2.78125q-0.90625 -0.984375 -2.875 -0.984375q-1.53125 0 -2.5625 0.65625q-1.03125 0.640625 -1.515625 2.390625q-0.484375 1.75 -0.484375 5.0625l0 2.109375zm16.176422 16.03125l0 -27.75l2.546875 0l0 2.984375q1.296875 -1.53125 2.96875 -2.46875q1.6875 -0.9375 3.609375 -0.9375q1.25 0 2.234375 0.609375q0.984375 0.59375 1.546875 1.90625q0.578125 1.3125 0.578125 3.53125l0 22.125l-2.53125 0l0 -21.84375q0 -2.546875 -0.796875 -3.453125q-0.796875 -0.90625 -2.140625 -0.90625q-1.390625 0 -2.8125 0.84375q-1.40625 0.828125 -2.65625 2.21875l0 23.140625l-2.546875 0zm23.424286 0.4375q-1.671875 0 -2.921875 -0.765625q-1.25 -0.78125 -1.953125 -2.140625q-0.6875 -1.375 -0.6875 -3.140625q0 -1.78125 0.453125 -3.09375q0.453125 -1.328125 1.65625 -2.484375q1.203125 -1.15625 3.421875 -2.421875q2.234375 -1.265625 5.796875 -2.953125l0 -1.96875q0 -3.015625 -0.359375 -4.6875q-0.359375 -1.6875 -1.203125 -2.359375q-0.84375 -0.671875 -2.28125 -0.671875q-1.109375 0 -2.125 0.390625q-1.0 0.375 -1.65625 1.5q-0.640625 1.125 -0.640625 3.328125l0 0.734375l-2.484375 0q0 -3.984375 1.59375 -5.921875q1.609375 -1.953125 5.40625 -1.953125q3.5 0 4.890625 2.203125q1.40625 2.203125 1.40625 7.15625l0 13.96875q0 0.375 0.015625 1.46875q0.03125 1.078125 0.046875 2.09375q0.03125 1.0 0.078125 1.28125l-2.21875 0q-0.09375 -1.015625 -0.234375 -2.109375q-0.140625 -1.109375 -0.1875 -1.59375q-0.625 1.734375 -2.171875 2.9375q-1.53125 1.203125 -3.640625 1.203125zm0.625 -2.125q1.203125 0 2.15625 -0.546875q0.96875 -0.546875 1.734375 -1.4375q0.765625 -0.890625 1.25 -1.890625l0 -9.125q-2.546875 1.34375 -4.25 2.3125q-1.703125 0.953125 -2.6875 1.8125q-0.984375 0.859375 -1.421875 1.953125q-0.421875 1.078125 -0.421875 2.609375q0 2.5 1.140625 3.40625q1.15625 0.90625 2.5 0.90625zm12.910767 1.6875l0 -27.75l2.40625 0l0 2.9375q1.34375 -1.640625 3.015625 -2.515625q1.6875 -0.890625 3.5 -0.890625q1.40625 0 2.625 0.765625q1.21875 0.765625 1.703125 2.921875q1.390625 -1.765625 3.109375 -2.71875q1.734375 -0.96875 3.65625 -0.96875q1.15625 0 2.203125 0.53125q1.0625 0.515625 1.7344055 1.890625q0.671875 1.359375 0.671875 3.859375l0 21.9375l-2.4531555 0l0 -21.984375q0 -2.6875 -0.859375 -3.546875q-0.859375 -0.875 -2.109375 -0.875q-1.484375 0 -2.984375 0.890625q-1.484375 0.890625 -2.78125 2.375q0.046875 0.25 0.0625 0.5625q0.03125 0.3125 0.03125 0.640625l0 21.9375l-2.4375 0l0 -21.984375q0 -2.6875 -0.875 -3.546875q-0.859375 -0.875 -2.109375 -0.875q-1.4375 0 -2.921875 0.890625q-1.484375 0.890625 -2.78125 2.328125l0 23.1875l-2.40625 0zm36.435333 0.4375q-2.203125 0 -3.796875 -0.890625q-1.578125 -0.890625 -2.421875 -3.21875q-0.84375 -2.328125 -0.84375 -6.59375l0 -7.390625q0 -4.375 0.859375 -6.625q0.875 -2.265625 2.484375 -3.078125q1.609375 -0.8125 3.765625 -0.8125q2.59375 0 4.078125 1.109375q1.484375 1.09375 2.109375 3.515625q0.625 2.421875 0.625 6.40625l0 2.640625l-11.375 0l0 4.421875q0 3.3125 0.453125 5.1875q0.453125 1.859375 1.46875 2.640625q1.015625 0.765625 2.59375 0.765625q1.0 0 2.0 -0.328125q1.015625 -0.34375 1.6875 -1.59375q0.671875 -1.25 0.671875 -3.890625l0 -2.0625l2.5 0l0 1.828125q0 3.546875 -1.46875 5.765625q-1.453125 2.203125 -5.390625 2.203125zm-4.515625 -16.46875l8.875 0l0 -2.15625q0 -2.5 -0.265625 -4.296875q-0.25 -1.796875 -1.171875 -2.78125q-0.90625 -0.984375 -2.875 -0.984375q-1.53125 0 -2.5625 0.65625q-1.03125 0.640625 -1.515625 2.390625q-0.484375 1.75 -0.484375 5.0625l0 2.109375zm17.145142 22.796875l0.046875 -45.64061l2.34375 0l0 45.64061l-2.390625 0z" fill-rule="nonzero"/><path fill="#000000" fill-opacity="0.0" d="m558.43744 285.6012l0 0c0 -8.395447 6.805847 -15.201263 15.201233 -15.201263l0 0c4.031616 0 7.8981323 1.6015625 10.748901 4.4523315c2.85083 2.8507996 4.4523926 6.717285 4.4523926 10.748932l0 0c0 8.395416 -6.805847 15.201263 -15.201294 15.201263l0 0c-8.395386 0 -15.201233 -6.805847 -15.201233 -15.201263z" fill-rule="evenodd"/><path stroke="#3d85c6" stroke-width="4.0" stroke-linejoin="round" stroke-linecap="butt" d="m558.43744 285.6012l0 0c0 -8.395447 6.805847 -15.201263 15.201233 -15.201263l0 0c4.031616 0 7.8981323 1.6015625 10.748901 4.4523315c2.85083 2.8507996 4.4523926 6.717285 4.4523926 10.748932l0 0c0 8.395416 -6.805847 15.201263 -15.201294 15.201263l0 0c-8.395386 0 -15.201233 -6.805847 -15.201233 -15.201263z" fill-rule="evenodd"/><path fill="#efefef" d="m557.8395 305.788l18.298523 -29.895813l18.298523 29.870453z" fill-rule="evenodd"/><path fill="#595959" d="m572.68756 335.71994l0 -51.64627l42.158142 51.64627z" fill-rule="evenodd"/><path stroke="#595959" stroke-width="1.0" stroke-linejoin="round" stroke-linecap="butt" d="m572.68756 335.71994l0 -51.64627l42.158142 51.64627z" fill-rule="evenodd"/><path fill="#595959" d="m595.2502 330.3618l-22.90326 -46.28784l-10.881531 63.009216z" fill-rule="evenodd"/><path stroke="#595959" stroke-width="1.0" stroke-linejoin="round" stroke-linecap="butt" d="m595.2502 330.3618l-22.90326 -46.28784l-10.881531 63.009216z" fill-rule="evenodd"/><path fill="#595959" d="m577.4525 332.3192l0 0c-0.31878662 -1.3131409 0.48718262 -2.6366577 1.8001709 -2.9561768l9.509155 -2.3139343l0 0c0.63049316 -0.15344238 1.2960205 -0.050079346 1.8500977 0.287323c0.55407715 0.33743286 0.951355 0.8812561 1.1044312 1.5118408l7.003662 28.852112c0.31878662 1.3131409 -0.48724365 2.6366577 -1.8001709 2.9561768l-9.509155 2.3139343c-1.3129883 0.31948853 -2.6357422 -0.48602295 -2.9545288 -1.7991638z" fill-rule="evenodd"/><path stroke="#595959" stroke-width="1.0" stroke-linejoin="round" stroke-linecap="butt" d="m577.4525 332.3192l0 0c-0.31878662 -1.3131409 0.48718262 -2.6366577 1.8001709 -2.9561768l9.509155 -2.3139343l0 0c0.63049316 -0.15344238 1.2960205 -0.050079346 1.8500977 0.287323c0.55407715 0.33743286 0.951355 0.8812561 1.1044312 1.5118408l7.003662 28.852112c0.31878662 1.3131409 -0.48724365 2.6366577 -1.8001709 2.9561768l-9.509155 2.3139343c-1.3129883 0.31948853 -2.6357422 -0.48602295 -2.9545288 -1.7991638z" fill-rule="evenodd"/><path fill="#000000" fill-opacity="0.0" d="m328.81497 270.0l0 0c0 -83.49501 67.686066 -151.18109 151.18109 -151.18109l0 0c40.095734 0 78.549225 15.927956 106.90115 44.279915c28.35199 28.35196 44.27997 66.805466 44.27997 106.901184l0 0c0 83.495026 -67.6861 151.18109 -151.18112 151.18109l0 0c-83.495026 0 -151.18109 -67.686066 -151.18109 -151.18109z" fill-rule="evenodd"/><path stroke="#595959" stroke-width="8.0" stroke-linejoin="round" stroke-linecap="butt" d="m328.81497 270.0l0 0c0 -83.49501 67.686066 -151.18109 151.18109 -151.18109l0 0c40.095734 0 78.549225 15.927956 106.90115 44.279915c28.35199 28.35196 44.27997 66.805466 44.27997 106.901184l0 0c0 83.495026 -67.6861 151.18109 -151.18112 151.18109l0 0c-83.495026 0 -151.18109 -67.686066 -151.18109 -151.18109z" fill-rule="evenodd"/></g></svg>