<svg version="1.1" viewBox="0.0 0.0 960.0 540.0" fill="none" stroke="none" stroke-linecap="square" stroke-miterlimit="10" xmlns:xlink="http://www.w3.org/1999/xlink" xmlns="http://www.w3.org/2000/svg"><clipPath id="g598cfd330a_0_22.0"><path d="m0 0l960.0 0l0 540.0l-960.0 0l0 -540.0z" clip-rule="nonzero"/></clipPath><g clip-path="url(#g598cfd330a_0_22.0)"><path fill="#ffffff" d="m0 0l960.0 0l0 540.0l-960.0 0z" fill-rule="evenodd"/><path fill="#000000" fill-opacity="0.0" d="m72.47244 175.37628l0 0c0 -26.130417 21.182877 -47.313293 47.31328 -47.313293l720.4286 0c12.548218 0 24.58258 4.984787 33.455505 13.857742c8.872986 8.872955 13.857788 20.907288 13.857788 33.45555l0 189.24744c0 26.130402 -21.182922 47.313293 -47.313293 47.313293l-720.4286 0c-26.130402 0 -47.31328 -21.182892 -47.31328 -47.313293z" fill-rule="evenodd"/><path stroke="#595959" stroke-width="3.0" stroke-linejoin="round" stroke-linecap="butt" d="m72.47244 175.37628l0 0c0 -26.130417 21.182877 -47.313293 47.31328 -47.313293l720.4286 0c12.548218 0 24.58258 4.984787 33.455505 13.857742c8.872986 8.872955 13.857788 20.907288 13.857788 33.45555l0 189.24744c0 26.130402 -21.182922 47.313293 -47.313293 47.313293l-720.4286 0c-26.130402 0 -47.31328 -21.182892 -47.31328 -47.313293z" fill-rule="evenodd"/><path fill="#000000" fill-opacity="0.0" d="m347.90356 175.44975l507.49603 0l0 189.10237l-507.49603 0z" fill-rule="evenodd"/><path fill="#595959" d="m373.8567 327.60092l0 -113.75l28.28125 0q6.796875 0.078125 13.15625 1.84375q6.375 1.75 11.296875 5.3125q4.921875 3.546875 7.890625 9.015625q2.96875 5.46875 2.96875 12.96875q0 5.078125 -1.375 9.0625q-1.359375 3.984375 -3.90625 7.078125q-2.53125 3.078125 -6.09375 5.3125q-3.546875 2.21875 -7.84375 3.859375l0.078125 0.390625q5.0 1.09375 9.375 3.515625q4.375 2.421875 7.609375 6.015625q3.25 3.59375 5.125 8.171875q1.875 4.5625 1.875 9.875q0.078125 7.1875 -2.546875 12.890625q-2.609375 5.703125 -7.1875 9.765625q-4.5625 4.0625 -10.65625 6.296875q-6.09375 2.21875 -12.890625 2.375l-35.15625 0zm4.140625 -56.171875l0 51.953125l31.015625 0q5.859375 -0.078125 11.171875 -1.984375q5.3125 -1.921875 9.296875 -5.359375q3.984375 -3.4375 6.328125 -8.390625q2.34375 -4.96875 2.265625 -11.21875q0 -5.859375 -2.421875 -10.46875q-2.421875 -4.609375 -6.375 -7.765625q-3.9375 -3.171875 -9.015625 -4.890625q-5.078125 -1.71875 -10.546875 -1.875l-31.71875 0zm0 -4.21875l25.703125 0q5.703125 -0.078125 11.015625 -1.515625q5.3125 -1.453125 9.40625 -4.453125q4.109375 -3.015625 6.5625 -7.578125q2.46875 -4.578125 2.46875 -10.984375q0 -6.5625 -2.65625 -11.203125q-2.65625 -4.65625 -7.03125 -7.578125q-4.375 -2.9375 -9.96875 -4.34375q-5.578125 -1.40625 -11.359375 -1.484375l-24.140625 0l0 49.140625zm126.328125 61.953125q-8.671875 0 -15.75 -3.46875q-7.0625 -3.484375 -12.109375 -9.34375q-5.03125 -5.859375 -7.84375 -13.4375q-2.8125 -7.578125 -2.890625 -15.78125l0 -3.4375q0.078125 -7.890625 2.65625 -15.46875q2.578125 -7.578125 7.34375 -13.515625q4.765625 -5.9375 11.5625 -9.5625q6.796875 -3.640625 15.390625 -3.640625q7.65625 0 13.828125 2.890625q6.171875 2.890625 10.5 7.859375q4.34375 4.953125 6.6875 11.515625q2.34375 6.5625 2.421875 13.828125l0 4.921875l-66.171875 0l0 1.171875l0 3.4375q0.078125 7.265625 2.578125 14.109375q2.5 6.828125 6.984375 12.109375q4.5 5.265625 10.78125 8.4375q6.296875 3.15625 14.03125 3.234375q7.890625 0.078125 14.484375 -2.734375q6.609375 -2.8125 11.6875 -8.90625l3.046875 2.109375q-5.390625 7.03125 -12.9375 10.359375q-7.53125 3.3125 -16.28125 3.3125zm-1.640625 -83.4375q-7.03125 0 -12.65625 2.703125q-5.625 2.6875 -9.734375 7.21875q-4.09375 4.53125 -6.640625 10.4375q-2.53125 5.890625 -3.3125 12.21875l61.5625 0l0 -1.015625q0 -6.25 -2.15625 -11.953125q-2.140625 -5.703125 -5.96875 -10.078125q-3.828125 -4.375 -9.21875 -6.953125q-5.390625 -2.578125 -11.875 -2.578125zm123.515625 81.875q-0.9375 -3.984375 -1.25 -7.890625q-0.3125 -3.90625 -0.390625 -7.890625q-2.734375 4.296875 -6.53125 7.578125q-3.78125 3.28125 -8.234375 5.4375q-4.453125 2.140625 -9.453125 3.234375q-5.0 1.09375 -10.234375 1.09375q-5.078125 0 -9.921875 -1.53125q-4.84375 -1.515625 -8.59375 -4.40625q-3.75 -2.890625 -6.015625 -7.1875q-2.265625 -4.296875 -2.265625 -9.84375q0 -7.578125 3.671875 -12.53125q3.671875 -4.96875 9.484375 -7.890625q5.828125 -2.9375 13.015625 -4.109375q7.1875 -1.171875 14.21875 -1.25l20.859375 0l0 -12.34375q-0.15625 -5.703125 -2.34375 -9.921875q-2.1875 -4.21875 -5.828125 -6.953125q-3.625 -2.734375 -8.4375 -4.09375q-4.796875 -1.375 -10.109375 -1.375q-4.6875 0 -9.578125 1.25q-4.875 1.25 -8.859375 3.796875q-3.984375 2.53125 -6.640625 6.40625q-2.65625 3.859375 -2.890625 9.171875l-4.21875 -0.15625q0.3125 -6.171875 3.3125 -10.78125q3.015625 -4.609375 7.578125 -7.6875q4.578125 -3.09375 10.15625 -4.65625q5.59375 -1.5625 11.140625 -1.5625q6.25 0 11.828125 1.6875q5.59375 1.671875 9.8125 5.0q4.21875 3.3125 6.671875 8.359375q2.46875 5.03125 2.625 11.671875l0 42.34375q0.078125 4.296875 0.78125 8.203125q0.703125 3.90625 1.484375 8.125l0.078125 0.703125l-4.921875 0zm-36.09375 -2.578125q5.546875 0.078125 10.734375 -1.203125q5.203125 -1.296875 9.6875 -3.875q4.5 -2.578125 8.09375 -6.40625q3.59375 -3.828125 5.9375 -8.828125l0 -20.0l-20.625 0q-3.984375 0.078125 -8.25 0.46875q-4.25 0.390625 -8.3125 1.328125q-4.0625 0.9375 -7.703125 2.5q-3.625 1.5625 -6.328125 3.984375q-2.6875 2.421875 -4.296875 5.75q-1.59375 3.3125 -1.515625 7.765625q0 4.453125 2.03125 7.9375q2.03125 3.46875 5.265625 5.8125q3.25 2.34375 7.265625 3.5625q4.03125 1.203125 8.015625 1.203125zm68.59375 -40.546875q0 -5.0 0.78125 -10.109375q0.78125 -5.125 2.453125 -9.890625q1.6875 -4.765625 4.296875 -8.984375q2.625 -4.21875 6.296875 -7.296875q3.671875 -3.09375 8.546875 -4.890625q4.890625 -1.796875 11.0625 -1.796875q4.140625 0 8.078125 1.140625q3.953125 1.125 7.46875 3.234375q3.515625 2.109375 6.484375 5.078125q2.96875 2.96875 5.078125 6.640625l0 -50.0l4.21875 0l0 120.0l-4.21875 0l0 -12.65625q-2.1875 3.4375 -5.28125 6.0625q-3.078125 2.609375 -6.71875 4.453125q-3.625 1.828125 -7.53125 2.765625q-3.90625 0.9375 -7.734375 0.9375q-6.09375 0 -10.9375 -1.828125q-4.84375 -1.84375 -8.515625 -4.96875q-3.671875 -3.125 -6.296875 -7.34375q-2.609375 -4.21875 -4.25 -8.984375q-1.640625 -4.765625 -2.46875 -9.875q-0.8125 -5.125 -0.8125 -10.046875l0 -1.640625zm4.375 1.640625q0 4.296875 0.625 8.875q0.625 4.5625 1.984375 8.859375q1.375 4.296875 3.59375 8.125q2.234375 3.828125 5.390625 6.71875q3.171875 2.890625 7.421875 4.578125q4.265625 1.671875 9.8125 1.671875q4.140625 0 8.3125 -1.125q4.1875 -1.140625 7.859375 -3.328125q3.671875 -2.1875 6.59375 -5.421875q2.9375 -3.25 4.578125 -7.390625l0 -41.796875q-1.484375 -4.53125 -4.21875 -8.234375q-2.734375 -3.71875 -6.296875 -6.375q-3.546875 -2.65625 -7.8125 -4.09375q-4.25 -1.453125 -8.859375 -1.453125q-5.546875 0 -9.8125 1.6875q-4.25 1.671875 -7.5 4.53125q-3.234375 2.84375 -5.421875 6.671875q-2.1875 3.828125 -3.5625 8.125q-1.359375 4.296875 -2.03125 8.875q-0.65625 4.5625 -0.65625 8.859375l0 1.640625z" fill-rule="nonzero"/><path fill="#ffab40" d="m819.32544 306.8978q0 -3.4375 -1.328125 -6.203125q-1.328125 -2.78125 -3.59375 -4.890625q-2.265625 -2.109375 -5.203125 -3.703125q-2.921875 -1.609375 -6.125 -2.734375q-3.203125 -1.140625 -6.328125 -1.953125q-3.125 -0.828125 -5.78125 -1.375q-3.203125 -0.703125 -6.796875 -1.515625q-3.59375 -0.828125 -7.03125 -2.03125q-3.4375 -1.21875 -6.609375 -2.859375q-3.15625 -1.640625 -5.5 -3.984375q-2.34375 -2.34375 -3.75 -5.5q-1.40625 -3.171875 -1.328125 -7.3125q0 -3.90625 1.40625 -6.984375q1.40625 -3.09375 3.703125 -5.46875q2.3125 -2.390625 5.390625 -4.0625q3.09375 -1.6875 6.484375 -2.734375q3.40625 -1.0625 6.921875 -1.5625q3.515625 -0.515625 6.71875 -0.515625q5.9375 0 11.640625 1.328125q5.703125 1.328125 10.265625 4.21875q4.578125 2.890625 7.546875 7.46875q2.96875 4.5625 3.4375 11.125l-4.375 0q-0.15625 -5.390625 -2.890625 -9.171875q-2.734375 -3.796875 -6.921875 -6.171875q-4.171875 -2.390625 -9.140625 -3.484375q-4.953125 -1.09375 -9.5625 -1.09375q-3.90625 0 -8.484375 0.828125q-4.5625 0.8125 -8.546875 2.765625q-3.984375 1.953125 -6.640625 5.203125q-2.65625 3.234375 -2.734375 8.15625q-0.078125 3.59375 1.25 6.25q1.328125 2.65625 3.546875 4.65625q2.234375 1.984375 5.15625 3.390625q2.9375 1.40625 6.0625 2.421875q3.125 1.015625 6.28125 1.71875q3.171875 0.703125 5.828125 1.25q5.0 1.09375 10.5 2.734375q5.515625 1.640625 10.15625 4.375q4.65625 2.734375 7.625 6.953125q2.96875 4.21875 2.96875 10.546875q0 4.140625 -1.484375 7.390625q-1.484375 3.234375 -3.90625 5.703125q-2.421875 2.453125 -5.671875 4.21875q-3.234375 1.75 -6.796875 2.8125q-3.546875 1.046875 -7.265625 1.546875q-3.703125 0.515625 -7.140625 0.515625q-3.75 0 -7.65625 -0.515625q-3.90625 -0.5 -7.625 -1.625q-3.703125 -1.140625 -7.03125 -2.9375q-3.3125 -1.796875 -5.890625 -4.328125q-2.578125 -2.546875 -4.21875 -5.9375q-1.640625 -3.40625 -1.953125 -7.703125l4.296875 0q0.625 5.546875 3.625 9.1875q3.015625 3.625 7.265625 5.78125q4.265625 2.140625 9.34375 3.0q5.078125 0.859375 9.84375 0.859375q2.65625 0 5.78125 -0.390625q3.125 -0.390625 6.203125 -1.28125q3.09375 -0.90625 5.984375 -2.265625q2.890625 -1.375 5.109375 -3.40625q2.234375 -2.03125 3.5625 -4.640625q1.328125 -2.625 1.40625 -6.0625z" fill-rule="nonzero"/><path fill="#000000" fill-opacity="0.0" d="m285.85944 214.06862l-120.913376 0.06298828" fill-rule="evenodd"/><path stroke="#595959" stroke-width="4.0" stroke-linejoin="round" stroke-linecap="butt" d="m285.85944 214.06862l-120.913376 0.06298828" fill-rule="evenodd"/><path fill="#000000" fill-opacity="0.0" d="m288.69144 204.2884l0 142.17323" fill-rule="evenodd"/><path stroke="#595959" stroke-width="4.0" stroke-linejoin="round" stroke-linecap="butt" d="m288.69144 204.2884l0 142.17323" fill-rule="evenodd"/><path fill="#595959" d="m126.16715 214.10074l0 0c0 -20.795471 16.858055 -37.65355 37.65354 -37.65355l0 0c9.986343 0 19.56366 3.9670715 26.625076 11.028473c7.0614014 7.0614166 11.028458 16.638733 11.028458 26.625076l0 0c0 20.795471 -16.858063 37.65355 -37.653534 37.65355l0 0c-20.795486 0 -37.65354 -16.858078 -37.65354 -37.65355z" fill-rule="evenodd"/><path stroke="#595959" stroke-width="1.0" stroke-linejoin="round" stroke-linecap="butt" d="m126.16715 214.10074l0 0c0 -20.795471 16.858055 -37.65355 37.65354 -37.65355l0 0c9.986343 0 19.56366 3.9670715 26.625076 11.028473c7.0614014 7.0614166 11.028458 16.638733 11.028458 26.625076l0 0c0 20.795471 -16.858063 37.65355 -37.653534 37.65355l0 0c-20.795486 0 -37.65354 -16.858078 -37.65354 -37.65355z" fill-rule="evenodd"/><path fill="#595959" d="m251.04274 214.10074l0 0c0 -20.795471 16.858078 -37.65355 37.65355 -37.65355l0 0c9.986328 0 19.56366 3.9670715 26.625061 11.028473c7.061432 7.0614166 11.028473 16.638733 11.028473 26.625076l0 0c0 20.795471 -16.858063 37.65355 -37.653534 37.65355l0 0c-20.795471 0 -37.65355 -16.858078 -37.65355 -37.65355z" fill-rule="evenodd"/><path stroke="#595959" stroke-width="1.0" stroke-linejoin="round" stroke-linecap="butt" d="m251.04274 214.10074l0 0c0 -20.795471 16.858078 -37.65355 37.65355 -37.65355l0 0c9.986328 0 19.56366 3.9670715 26.625061 11.028473c7.061432 7.0614166 11.028473 16.638733 11.028473 26.625076l0 0c0 20.795471 -16.858063 37.65355 -37.653534 37.65355l0 0c-20.795471 0 -37.65355 -16.858078 -37.65355 -37.65355z" fill-rule="evenodd"/><path fill="#f6b26b" d="m251.04274 327.8825l0 0c0 -20.795471 16.858078 -37.653534 37.65355 -37.653534l0 0c9.986328 0 19.56366 3.967041 26.625061 11.028442c7.061432 7.061432 11.028473 16.638733 11.028473 26.625092l0 0c0 20.795471 -16.858063 37.653534 -37.653534 37.653534l0 0c-20.795471 0 -37.65355 -16.858063 -37.65355 -37.653534z" fill-rule="evenodd"/></g></svg>