<?xml version="1.0" encoding="UTF-8" standalone="no"?>
<!DOCTYPE svg PUBLIC "-//W3C//DTD SVG 1.1//EN"
 "http://www.w3.org/Graphics/SVG/1.1/DTD/svg11.dtd">
<!-- Generated by graphviz version 2.40.1 (20161225.0304)
 -->
<!-- Title: step_2 Pages: 1 -->
<svg width="818pt" height="98pt"
 viewBox="0.00 0.00 818.47 98.00" xmlns="http://www.w3.org/2000/svg" xmlns:xlink="http://www.w3.org/1999/xlink">
<g id="graph0" class="graph" transform="scale(1 1) rotate(0) translate(4 94)">
<title>step_2</title>
<polygon fill="#ffffff" stroke="transparent" points="-4,4 -4,-94 814.466,-94 814.466,4 -4,4"/>
<!-- gen_raw_1.py -->
<g id="node1" class="node">
<title>gen_raw_1.py</title>
<ellipse fill="#b2dfee" stroke="#b2dfee" cx="61.0946" cy="-72" rx="61.1893" ry="18"/>
<text text-anchor="middle" x="61.0946" y="-68.3" font-family="Times,serif" font-size="14.00" fill="#000000">gen_raw_1.py</text>
</g>
<!-- raw_data_1.txt -->
<g id="node2" class="node">
<title>raw_data_1.txt</title>
<ellipse fill="#b2dfee" stroke="#b2dfee" cx="447.6326" cy="-72" rx="63.8893" ry="18"/>
<text text-anchor="middle" x="447.6326" y="-68.3" font-family="Times,serif" font-size="14.00" fill="#000000">raw_data_1.txt</text>
</g>
<!-- gen_raw_1.py&#45;&gt;raw_data_1.txt -->
<g id="edge1" class="edge">
<title>gen_raw_1.py&#45;&gt;raw_data_1.txt</title>
<path fill="none" stroke="#000000" d="M122.3427,-72C190.5547,-72 300.7946,-72 373.7403,-72"/>
<polygon fill="#000000" stroke="#000000" points="373.7775,-75.5001 383.7775,-72 373.7775,-68.5001 373.7775,-75.5001"/>
<text text-anchor="middle" x="248.1892" y="-75.8" font-family="Times,serif" font-size="14.00" fill="#000000">python gen_raw_1.py &gt; raw_data_1.txt</text>
</g>
<!-- processed.txt -->
<g id="node3" class="node">
<title>processed.txt</title>
<ellipse fill="#b2dfee" stroke="#b2dfee" cx="753.271" cy="-37" rx="57.3905" ry="18"/>
<text text-anchor="middle" x="753.271" y="-33.3" font-family="Times,serif" font-size="14.00" fill="#000000">processed.txt</text>
</g>
<!-- raw_data_1.txt&#45;&gt;processed.txt -->
<g id="edge2" class="edge">
<title>raw_data_1.txt&#45;&gt;processed.txt</title>
<path fill="none" stroke="#000000" d="M506.9252,-65.2101C559.3572,-59.2059 635.6558,-50.4686 689.4167,-44.3122"/>
<polygon fill="#000000" stroke="#000000" points="689.9811,-47.7706 699.5179,-43.1555 689.1846,-40.816 689.9811,-47.7706"/>
<text text-anchor="middle" x="608.5761" y="-64.8" font-family="Times,serif" font-size="14.00" fill="#000000">python gen_processed.py</text>
</g>
<!-- gen_processed.py -->
<g id="node4" class="node">
<title>gen_processed.py</title>
<ellipse fill="#b2dfee" stroke="#b2dfee" cx="447.6326" cy="-18" rx="73.387" ry="18"/>
<text text-anchor="middle" x="447.6326" y="-14.3" font-family="Times,serif" font-size="14.00" fill="#000000">gen_processed.py</text>
</g>
<!-- gen_processed.py&#45;&gt;processed.txt -->
<g id="edge3" class="edge">
<title>gen_processed.py&#45;&gt;processed.txt</title>
<path fill="none" stroke="#000000" d="M521.1677,-19.1271C566.4745,-20.2544 625.7187,-22.506 678.0761,-27 682.2832,-27.3611 686.6159,-27.7886 690.9769,-28.2602"/>
<polygon fill="#000000" stroke="#000000" points="690.8236,-31.7656 701.1578,-29.4303 691.6228,-24.8113 690.8236,-31.7656"/>
<text text-anchor="middle" x="608.5761" y="-30.8" font-family="Times,serif" font-size="14.00" fill="#000000">python gen_processed.py</text>
</g>
</g>
</svg>
