<?xml version="1.0" encoding="utf-8"?>
<!-- Generator: Adobe Illustrator 23.0.1, SVG Export Plug-In . SVG Version: 6.00 Build 0)  -->
<svg version="1.1" id="Ebene_1" xmlns="http://www.w3.org/2000/svg" xmlns:xlink="http://www.w3.org/1999/xlink" x="0px" y="0px"
	 viewBox="0 0 512 256" style="enable-background:new 0 0 512 256;" xml:space="preserve">
<style type="text/css">
	.st0{fill:#FF5722;}
	.st1{fill:#7F2B11;}
</style>
<path class="st0" d="M405.12,88.65h-44.33V63.32h53.06l19-19h-72.06c-6.11,0-11.35,2.18-15.68,6.49c-4.33,4.33-6.48,9.55-6.48,15.67
	v19c0,6.13,2.15,11.34,6.48,15.67c4.33,4.33,9.57,6.49,15.68,6.49h44.33v28.49h-47.5l-19,19h66.5c6.11,0,11.33-2.16,15.66-6.49
	c4.33-4.32,6.49-9.55,6.49-15.67v-22.17c0-6.11-2.16-11.34-6.49-15.67C416.45,90.81,411.23,88.65,405.12,88.65z"/>
<path class="st1" d="M493,155.14h-25.33c-6.12,0-11.35-2.16-15.67-6.49c-4.33-4.32-6.49-9.55-6.49-15.67V63.32h-31.67l19-19h12.66
	V22.16L467.67,0v44.32H512l-19,19h-25.33v72.82H512L493,155.14z"/>
<g>
	<path class="st1" d="M69.42,99.85c0,3.84-1.36,7.11-4.07,9.82c-2.71,2.71-5.98,4.07-9.82,4.07H13.88v41.65H0V44.32h13.88v9.92
		l9.92-9.92h31.73c3.83,0,7.11,1.36,9.82,4.07c2.71,2.71,4.07,5.99,4.07,9.82V99.85z M55.53,101.84V56.22H13.88v55.53l9.92-9.92
		H55.53z"/>
	<path class="st0" d="M150.08,113.74H136.2v-10.12l-11.9,10.12H94.54c-3.84,0-7.11-1.35-9.82-4.07c-2.71-2.71-4.07-5.98-4.07-9.82
		V85.97c0-3.83,1.36-7.1,4.07-9.82c2.71-2.71,5.98-4.07,9.82-4.07h39.67l-11.9,11.7H94.54v18.05h41.65V56.22H80.66l11.9-11.9h43.63
		c3.83,0,7.11,1.36,9.82,4.07c2.71,2.71,4.07,5.99,4.07,9.82V113.74z"/>
	<path class="st1" d="M241.65,44.32l-11.9,11.9h-49.58v45.62h41.65V62.17h13.88v79.33c0,3.83-1.36,7.1-4.07,9.82
		c-2.71,2.71-5.98,4.07-9.82,4.07H164.3l11.9-11.9h45.62v-39.87l-11.9,10.12h-29.75c-3.84,0-7.11-1.35-9.82-4.07
		c-2.71-2.71-4.07-5.98-4.07-9.82V58.2c0-3.83,1.35-7.1,4.07-9.82c2.71-2.71,5.98-4.07,9.82-4.07H241.65z"/>
	<path class="st0" d="M320.33,113.74h-55.53c-3.84,0-7.11-1.35-9.82-4.07c-2.71-2.71-4.07-5.98-4.07-9.82V58.2
		c0-3.83,1.35-7.1,4.07-9.82c2.71-2.71,5.98-4.07,9.82-4.07h41.65c3.83,0,7.11,1.36,9.82,4.07c2.71,2.71,4.07,5.99,4.07,9.82v13.88
		l-13.88,13.88h-39.67l11.9-11.9h27.77V56.22h-41.65v45.62h55.53V113.74z"/>
</g>
<g>
	<path class="st1" d="M113.53,172.51l-6.61,6.5H88.59v20.6l4.45-4.34h19.41l-6.61,6.51H88.59v31.44H81V180.1
		c0-2.1,0.74-3.88,2.22-5.37c1.48-1.48,3.27-2.22,5.36-2.22H113.53z"/>
	<path class="st1" d="M157.44,225.64c0,2.09-0.74,3.89-2.22,5.36c-1.48,1.48-3.27,2.22-5.37,2.22h-22.77c-2.1,0-3.89-0.74-5.37-2.22
		c-1.48-1.47-2.22-3.27-2.22-5.36v-22.77c0-2.09,0.74-3.88,2.22-5.36c1.48-1.48,3.27-2.22,5.37-2.22h22.77
		c2.1,0,3.88,0.74,5.37,2.22c1.48,1.48,2.22,3.27,2.22,5.36V225.64z M149.85,226.72v-24.94h-22.77v24.94H149.85z"/>
	<path class="st1" d="M202.98,210.45h-7.59v-8.67h-15.18v31.44h-7.59v-37.95h7.59v5.42l5.42-5.42h9.76c2.1,0,3.89,0.74,5.37,2.22
		c1.48,1.48,2.22,3.27,2.22,5.36V210.45z"/>
	<path class="st0" d="M274.55,233.23h-7.59v-5.43l-5.42,5.43h-17.35c-2.1,0-3.89-0.74-5.37-2.22c-1.48-1.47-2.22-3.27-2.22-5.36
		v-22.77c0-2.09,0.74-3.88,2.22-5.36c1.48-1.48,3.27-2.22,5.37-2.22h22.77v-17.35l7.59-7.59V233.23z M266.96,226.72v-30.36
		l-5.42,5.43h-17.35v24.94H266.96z"/>
	<path class="st0" d="M298.94,248.41c0,2.09-0.75,3.88-2.22,5.37c-1.48,1.48-3.27,2.22-5.37,2.22h-11.93l6.61-6.51h5.31v-48.8
		l7.59-7.59V248.41z M298.94,188.77h-7.59v-8.67h7.59V188.77z"/>
	<path class="st0" d="M350.98,233.23h-7.59v-5.53l-6.51,5.53h-16.26c-2.1,0-3.89-0.74-5.37-2.22c-1.48-1.47-2.22-3.27-2.22-5.36
		v-7.6c0-2.09,0.74-3.88,2.22-5.37c1.48-1.48,3.27-2.22,5.37-2.22h21.68l-6.5,6.41h-15.18v9.87h22.77v-24.94h-30.36l6.5-6.51h23.86
		c2.1,0,3.88,0.74,5.36,2.22c1.48,1.48,2.22,3.27,2.22,5.36V233.23z"/>
	<path class="st0" d="M404.12,233.23h-7.59v-31.44h-22.77v31.44h-7.59v-37.95h7.59v5.42l5.42-5.42h17.35c2.1,0,3.88,0.74,5.36,2.22
		c1.48,1.48,2.22,3.27,2.22,5.36V233.23z"/>
	<path class="st0" d="M461.58,195.27l-6.51,6.51h-27.11v24.94h22.77v-21.69h7.59v43.38c0,2.09-0.75,3.88-2.22,5.37
		c-1.48,1.48-3.27,2.22-5.37,2.22h-31.44l6.51-6.51h24.94v-21.8l-6.5,5.53h-16.27c-2.1,0-3.88-0.74-5.36-2.22
		c-1.48-1.47-2.22-3.27-2.22-5.36v-22.77c0-2.09,0.74-3.88,2.22-5.36c1.48-1.48,3.27-2.22,5.36-2.22H461.58z"/>
	<path class="st0" d="M512,225.64c0,2.09-0.74,3.89-2.22,5.36c-1.48,1.48-3.26,2.22-5.36,2.22h-22.77c-2.1,0-3.89-0.74-5.37-2.22
		c-1.48-1.47-2.22-3.27-2.22-5.36v-22.77c0-2.09,0.74-3.88,2.22-5.36c1.48-1.48,3.27-2.22,5.37-2.22h22.77
		c2.1,0,3.88,0.74,5.36,2.22c1.48,1.48,2.22,3.27,2.22,5.36V225.64z M504.41,226.72v-24.94h-22.77v24.94H504.41z"/>
</g>
</svg>
