<svg version="1.1" viewBox="0.0 0.0 960.0 540.0" fill="none" stroke="none" stroke-linecap="square" stroke-miterlimit="10" xmlns:xlink="http://www.w3.org/1999/xlink" xmlns="http://www.w3.org/2000/svg"><clipPath id="g596a490178_0_1.0"><path d="m0 0l960.0 0l0 540.0l-960.0 0l0 -540.0z" clip-rule="nonzero"/></clipPath><g clip-path="url(#g596a490178_0_1.0)"><path fill="#ffffff" d="m0 0l960.0 0l0 540.0l-960.0 0z" fill-rule="evenodd"/><path fill="#000000" fill-opacity="0.0" d="m328.8189 243.89633l0 0c0 -83.495026 67.686066 -151.1811 151.18109 -151.1811l0 0c40.095703 0 78.549255 15.927963 106.901184 44.279922c28.351929 28.351944 44.279907 66.80545 44.279907 106.901184l0 0c0 83.495026 -67.6861 151.18109 -151.18109 151.18109l0 0c-83.495026 0 -151.18109 -67.686066 -151.18109 -151.18109z" fill-rule="evenodd"/><path stroke="#ff9900" stroke-width="8.0" stroke-linejoin="round" stroke-linecap="butt" d="m328.8189 243.89633l0 0c0 -83.495026 67.686066 -151.1811 151.18109 -151.1811l0 0c40.095703 0 78.549255 15.927963 106.901184 44.279922c28.351929 28.351944 44.279907 66.80545 44.279907 106.901184l0 0c0 83.495026 -67.6861 151.18109 -151.18109 151.18109l0 0c-83.495026 0 -151.18109 -67.686066 -151.18109 -151.18109z" fill-rule="evenodd"/><path fill="#000000" fill-opacity="0.0" d="m328.8189 222.69948l302.36218 0l0 42.393692l-302.36218 0z" fill-rule="evenodd"/><path fill="#ff9900" d="m409.03024 260.97632l0 -27.75l2.546875 0l0 2.984375q1.296875 -1.53125 2.96875 -2.46875q1.6875 -0.9375 3.609375 -0.9375q1.25 0 2.234375 0.609375q0.984375 0.59375 1.546875 1.90625q0.578125 1.3125 0.578125 3.53125l0 22.125l-2.53125 0l0 -21.84375q0 -2.546875 -0.796875 -3.453125q-0.796875 -0.90625 -2.140625 -0.90625q-1.390625 0 -2.8125 0.84375q-1.40625 0.828125 -2.65625 2.21875l0 23.140625l-2.546875 0zm25.299286 0.4375q-2.203125 0 -3.796875 -0.890625q-1.578125 -0.890625 -2.421875 -3.21875q-0.84375 -2.328125 -0.84375 -6.59375l0 -7.390625q0 -4.375 0.859375 -6.625q0.875 -2.265625 2.484375 -3.078125q1.609375 -0.8125 3.765625 -0.8125q2.59375 0 4.078125 1.109375q1.484375 1.09375 2.109375 3.515625q0.625 2.421875 0.625 6.40625l0 2.640625l-11.375 0l0 4.421875q0 3.3125 0.453125 5.1875q0.453125 1.859375 1.46875 2.640625q1.015625 0.765625 2.59375 0.765625q1.0 0 2.0 -0.328125q1.015625 -0.34375 1.6875 -1.59375q0.671875 -1.25 0.671875 -3.890625l0 -2.0625l2.5 0l0 1.828125q0 3.546875 -1.46875 5.765625q-1.453125 2.203125 -5.390625 2.203125zm-4.515625 -16.46875l8.875 0l0 -2.15625q0 -2.5 -0.265625 -4.296875q-0.25 -1.796875 -1.171875 -2.78125q-0.90625 -0.984375 -2.875 -0.984375q-1.53125 0 -2.5625 0.65625q-1.03125 0.640625 -1.515625 2.390625q-0.484375 1.75 -0.484375 5.0625l0 2.109375zm19.486664 16.03125l-4.5625 -27.75l2.265625 0l3.84375 24.828125l4.75 -24.828125l2.484375 0l4.859375 24.71875l3.59375 -24.71875l2.25 0l-4.453125 27.75l-2.640625 0l-4.796875 -24.34375l-4.703125 24.34375l-2.890625 0zm32.83383 0l0 -27.75l2.546875 0l0 2.984375q1.296875 -1.53125 2.96875 -2.46875q1.6875 -0.9375 3.609375 -0.9375q1.25 0 2.234375 0.609375q0.984375 0.59375 1.546875 1.90625q0.578125 1.3125 0.578125 3.53125l0 22.125l-2.53125 0l0 -21.84375q0 -2.546875 -0.796875 -3.453125q-0.796875 -0.90625 -2.140625 -0.90625q-1.390625 0 -2.8125 0.84375q-1.40625 0.828125 -2.65625 2.21875l0 23.140625l-2.546875 0zm25.205536 0.4375q-2.734375 0 -4.25 -1.203125q-1.515625 -1.203125 -2.125 -3.546875q-0.59375 -2.359375 -0.59375 -5.8125l0 -7.484375q0 -3.46875 0.59375 -5.8125q0.609375 -2.359375 2.125 -3.546875q1.515625 -1.203125 4.25 -1.203125q2.78125 0 4.28125 1.203125q1.5155945 1.1875 2.1093445 3.515625q0.609375 2.328125 0.609375 5.84375l0 7.484375q0 3.453125 -0.609375 5.8125q-0.59375 2.34375 -2.1093445 3.546875q-1.5 1.203125 -4.28125 1.203125zm0 -1.921875q2.015625 0 2.96875 -1.03125q0.96875 -1.03125 1.21875 -2.953125q0.265625 -1.921875 0.265625 -4.5625l0 -7.6875q0 -2.6875 -0.265625 -4.578125q-0.25 -1.890625 -1.21875 -2.921875q-0.953125 -1.03125 -2.96875 -1.03125q-2.015625 0 -2.953125 1.03125q-0.9375 1.03125 -1.203125 2.921875q-0.265625 1.890625 -0.265625 4.578125l0 7.6875q0 2.640625 0.265625 4.5625q0.265625 1.921875 1.203125 2.953125q0.9375 1.03125 2.953125 1.03125zm17.946503 1.921875q-3.59375 0 -5.0625 -2.765625q-1.46875 -2.765625 -1.46875 -9.046875l0 -4.9375q0 -3.9375 0.53125 -6.546875q0.53125 -2.625 1.921875 -3.96875q1.390625 -1.34375 3.9375 -1.34375q1.78125 0 3.015625 0.796875q1.25 0.78125 2.015625 1.75l0 -13.25l2.546875 0l0 38.875l-2.546875 0l0 -2.109375q-0.765625 0.90625 -1.984375 1.734375q-1.21875 0.8125 -2.90625 0.8125zm0.34375 -1.96875q1.390625 0 2.5625 -0.71875q1.171875 -0.71875 1.984375 -1.640625l0 -19.921875q-0.765625 -0.765625 -1.9375 -1.578125q-1.171875 -0.8125 -2.65625 -0.8125q-2.640625 0 -3.46875 2.203125q-0.8125 2.203125 -0.8125 7.0625l0 5.75q0 3.359375 0.359375 5.5q0.359375 2.140625 1.296875 3.15625q0.9375 1.0 2.671875 1.0zm19.147583 1.96875q-2.203125 0 -3.796875 -0.890625q-1.578125 -0.890625 -2.421875 -3.21875q-0.84375 -2.328125 -0.84375 -6.59375l0 -7.390625q0 -4.375 0.859375 -6.625q0.875 -2.265625 2.484375 -3.078125q1.609375 -0.8125 3.765625 -0.8125q2.59375 0 4.078125 1.109375q1.484375 1.09375 2.109375 3.515625q0.625 2.421875 0.625 6.40625l0 2.640625l-11.375 0l0 4.421875q0 3.3125 0.453125 5.1875q0.453125 1.859375 1.46875 2.640625q1.015625 0.765625 2.59375 0.765625q1.0 0 2.0 -0.328125q1.015625 -0.34375 1.6875 -1.59375q0.671875 -1.25 0.671875 -3.890625l0 -2.0625l2.5 0l0 1.828125q0 3.546875 -1.46875 5.765625q-1.453125 2.203125 -5.390625 2.203125zm-4.515625 -16.46875l8.875 0l0 -2.15625q0 -2.5 -0.265625 -4.296875q-0.25 -1.796875 -1.171875 -2.78125q-0.90625 -0.984375 -2.875 -0.984375q-1.53125 0 -2.5625 0.65625q-1.03125 0.640625 -1.515625 2.390625q-0.484375 1.75 -0.484375 5.0625l0 2.109375z" fill-rule="nonzero"/><path fill="#000000" fill-opacity="0.0" d="m478.7206 330.51733l0 0c0 -25.152863 20.390442 -45.543304 45.543304 -45.543304l0 0c12.078857 0 23.662964 4.7983093 32.20398 13.339325c8.541016 8.541046 13.339355 20.125153 13.339355 32.20398l0 0c0 25.152893 -20.390442 45.543335 -45.543335 45.543335l0 0c-25.152863 0 -45.543304 -20.390442 -45.543304 -45.543335z" fill-rule="evenodd"/><path stroke="#3d85c6" stroke-width="4.0" stroke-linejoin="round" stroke-linecap="butt" d="m478.7206 330.51733l0 0c0 -25.152863 20.390442 -45.543304 45.543304 -45.543304l0 0c12.078857 0 23.662964 4.7983093 32.20398 13.339325c8.541016 8.541046 13.339355 20.125153 13.339355 32.20398l0 0c0 25.152893 -20.390442 45.543335 -45.543335 45.543335l0 0c-25.152863 0 -45.543304 -20.390442 -45.543304 -45.543335z" fill-rule="evenodd"/><path fill="#000000" fill-opacity="0.0" d="m501.49228 330.51733l0 0c0 -12.576416 10.195221 -22.771637 22.771637 -22.771637l0 0c6.0394287 0 11.831482 2.3991394 16.10199 6.669647c4.270508 4.2705383 6.6696777 10.062592 6.6696777 16.10199l0 0c0 12.576447 -10.19519 22.771667 -22.771667 22.771667l0 0c-12.576416 0 -22.771637 -10.195221 -22.771637 -22.771667z" fill-rule="evenodd"/><path stroke="#3d85c6" stroke-width="4.0" stroke-linejoin="round" stroke-linecap="butt" d="m501.49228 330.51733l0 0c0 -12.576416 10.195221 -22.771637 22.771637 -22.771637l0 0c6.0394287 0 11.831482 2.3991394 16.10199 6.669647c4.270508 4.2705383 6.6696777 10.062592 6.6696777 16.10199l0 0c0 12.576447 -10.19519 22.771667 -22.771667 22.771667l0 0c-12.576416 0 -22.771637 -10.195221 -22.771637 -22.771667z" fill-rule="evenodd"/><path fill="#ffffff" d="m503.9213 381.10666l14.972321 -63.56137l44.46167 47.791992z" fill-rule="evenodd"/><path fill="#595959" d="m522.8391 405.5958l0 -77.36667l63.15338 77.36667z" fill-rule="evenodd"/><path stroke="#595959" stroke-width="1.0" stroke-linejoin="round" stroke-linecap="butt" d="m522.8391 405.5958l0 -77.36667l63.15338 77.36667z" fill-rule="evenodd"/><path fill="#595959" d="m556.6382 397.5692l-34.309265 -69.33969l-16.30072 94.38852z" fill-rule="evenodd"/><path stroke="#595959" stroke-width="1.0" stroke-linejoin="round" stroke-linecap="butt" d="m556.6382 397.5692l-34.309265 -69.33969l-16.30072 94.38852z" fill-rule="evenodd"/><path fill="#595959" d="m529.97705 400.5015l0 0c-0.47747803 -1.9671326 0.7298584 -3.9497986 2.6967163 -4.428406l14.244812 -3.4663086l0 0c0.94451904 -0.2298584 1.9414062 -0.07501221 2.7714233 0.43041992c0.8300171 0.50546265 1.4251709 1.3200989 1.65448 2.26474l10.491577 43.220764c0.47747803 1.9671326 -0.7298584 3.949768 -2.6967163 4.428406l-14.244812 3.4663086c-1.9667969 0.47860718 -3.9483643 -0.72805786 -4.4259033 -2.6951904z" fill-rule="evenodd"/><path stroke="#595959" stroke-width="1.0" stroke-linejoin="round" stroke-linecap="butt" d="m529.97705 400.5015l0 0c-0.47747803 -1.9671326 0.7298584 -3.9497986 2.6967163 -4.428406l14.244812 -3.4663086l0 0c0.94451904 -0.2298584 1.9414062 -0.07501221 2.7714233 0.43041992c0.8300171 0.50546265 1.4251709 1.3200989 1.65448 2.26474l10.491577 43.220764c0.47747803 1.9671326 -0.7298584 3.949768 -2.6967163 4.428406l-14.244812 3.4663086c-1.9667969 0.47860718 -3.9483643 -0.72805786 -4.4259033 -2.6951904z" fill-rule="evenodd"/><path fill="#f3f3f3" d="m14.097113 474.87158l0 0c0 -5.31131 4.3056736 -9.616974 9.616991 -9.616974l102.08885 0c2.5505905 0 4.9967117 1.0132141 6.8002396 2.816742c1.8035431 1.8035278 2.8167572 4.249634 2.8167572 6.800232l0 38.466797c0 5.3113403 -4.3056793 9.617004 -9.616997 9.617004l-102.08885 0c-5.3113174 0 -9.616991 -4.305664 -9.616991 -9.617004z" fill-rule="evenodd"/><path stroke="#595959" stroke-width="1.0" stroke-linejoin="round" stroke-linecap="butt" d="m14.097113 474.87158l0 0c0 -5.31131 4.3056736 -9.616974 9.616991 -9.616974l102.08885 0c2.5505905 0 4.9967117 1.0132141 6.8002396 2.816742c1.8035431 1.8035278 2.8167572 4.249634 2.8167572 6.800232l0 38.466797c0 5.3113403 -4.3056793 9.617004 -9.616997 9.617004l-102.08885 0c-5.3113174 0 -9.616991 -4.305664 -9.616991 -9.617004z" fill-rule="evenodd"/><path fill="#595959" d="m58.611107 506.10623q-2.078125 0 -3.078125 -0.96875q-0.984375 -0.96875 -1.296875 -2.59375q-0.296875 -1.640625 -0.296875 -3.65625l0 -4.359375q0 -2.71875 0.40625 -4.359375q0.421875 -1.65625 1.453125 -2.390625q1.03125 -0.734375 2.8125 -0.734375q1.921875 0 2.890625 0.78125q0.984375 0.78125 1.296875 2.140625q0.328125 1.359375 0.328125 3.0625l0 0.734375l-1.59375 0l0 -0.734375q0 -1.890625 -0.3125 -2.890625q-0.296875 -1.015625 -0.9375 -1.40625q-0.640625 -0.40625 -1.671875 -0.40625q-1.25 0 -1.890625 0.59375q-0.640625 0.59375 -0.859375 1.90625q-0.21875 1.296875 -0.21875 3.515625l0 4.796875q0 3.0 0.59375 4.359375q0.59375 1.34375 2.40625 1.34375q1.25 0 1.875 -0.546875q0.625 -0.546875 0.8125 -1.703125q0.203125 -1.15625 0.203125 -2.96875l0 -0.703125l1.59375 0l0 0.671875q0 1.84375 -0.296875 3.328125q-0.28125 1.46875 -1.25 2.328125q-0.953125 0.859375 -2.96875 0.859375zm7.6875305 -0.28125l0 -18.5l1.59375 0l0 1.953125q0.890625 -1.078125 2.015625 -1.671875q1.125 -0.59375 2.34375 -0.59375q0.921875 0 1.734375 0.515625q0.828125 0.5 1.140625 1.9375q0.921875 -1.171875 2.078125 -1.8125q1.15625 -0.640625 2.4375 -0.640625q0.765625 0 1.46875 0.359375q0.703125 0.34375 1.140625 1.265625q0.453125 0.90625 0.453125 2.5625l0 14.625l-1.625 0l0 -14.65625q0 -1.796875 -0.578125 -2.359375q-0.578125 -0.578125 -1.40625 -0.578125q-1.0 0 -2.0 0.59375q-0.984375 0.578125 -1.84375 1.578125q0.03125 0.15625 0.046875 0.375q0.015625 0.203125 0.015625 0.421875l0 14.625l-1.625 0l0 -14.65625q0 -1.796875 -0.578125 -2.359375q-0.578125 -0.578125 -1.40625 -0.578125q-0.96875 0 -1.96875 0.59375q-0.984375 0.578125 -1.84375 1.546875l0 15.453125l-1.59375 0zm23.936035 0.28125q-2.40625 0 -3.390625 -1.828125q-0.96875 -1.84375 -0.96875 -6.03125l0 -3.296875q0 -2.625 0.34375 -4.359375q0.359375 -1.75 1.28125 -2.640625q0.9375 -0.90625 2.640625 -0.90625q1.171875 0 2.0 0.53125q0.84375 0.515625 1.359375 1.15625l0 -8.828125l1.6875 0l0 25.921875l-1.6875 0l0 -1.40625q-0.515625 0.609375 -1.34375 1.15625q-0.8125 0.53125 -1.921875 0.53125zm0.21875 -1.3125q0.921875 0 1.703125 -0.46875q0.796875 -0.484375 1.34375 -1.09375l0 -13.28125q-0.515625 -0.515625 -1.296875 -1.046875q-0.78125 -0.546875 -1.78125 -0.546875q-1.765625 0 -2.3125 1.46875q-0.53125 1.46875 -0.53125 4.703125l0 3.84375q0 2.234375 0.234375 3.65625q0.234375 1.421875 0.859375 2.09375q0.625 0.671875 1.78125 0.671875z" fill-rule="nonzero"/><path fill="#f3f3f3" d="m176.75066 474.87158l0 0c0 -5.31131 4.3056793 -9.616974 9.616989 -9.616974l102.08887 0c2.5505676 0 4.996704 1.0132141 6.800232 2.816742c1.8035278 1.8035278 2.816742 4.249634 2.816742 6.800232l0 38.466797c0 5.3113403 -4.305664 9.617004 -9.616974 9.617004l-102.08887 0c-5.31131 0 -9.616989 -4.305664 -9.616989 -9.617004z" fill-rule="evenodd"/><path stroke="#595959" stroke-width="1.0" stroke-linejoin="round" stroke-linecap="butt" d="m176.75066 474.87158l0 0c0 -5.31131 4.3056793 -9.616974 9.616989 -9.616974l102.08887 0c2.5505676 0 4.996704 1.0132141 6.800232 2.816742c1.8035278 1.8035278 2.816742 4.249634 2.816742 6.800232l0 38.466797c0 5.3113403 -4.305664 9.617004 -9.616974 9.617004l-102.08887 0c-5.31131 0 -9.616989 -4.305664 -9.616989 -9.617004z" fill-rule="evenodd"/><path fill="#595959" d="m226.03229 506.18436q-2.5625 0 -3.921875 -1.0625q-1.359375 -1.0625 -1.875 -2.828125q-0.5 -1.78125 -0.5 -3.921875l0 -11.015625q0 -2.234375 0.53125 -3.96875q0.546875 -1.75 1.921875 -2.75q1.390625 -1.015625 3.84375 -1.015625q2.28125 0 3.546875 0.890625q1.28125 0.890625 1.828125 2.546875q0.546875 1.640625 0.546875 3.859375l0 1.3125l-1.65625 0l0 -1.3125q0 -1.859375 -0.359375 -3.15625q-0.34375 -1.296875 -1.28125 -2.0q-0.921875 -0.703125 -2.625 -0.703125q-1.859375 0 -2.859375 0.765625q-0.984375 0.765625 -1.34375 2.140625q-0.34375 1.375 -0.34375 3.203125l0 11.453125q0 1.921875 0.390625 3.28125q0.390625 1.359375 1.375 2.09375q1.0 0.734375 2.78125 0.734375q1.734375 0 2.65625 -0.734375q0.9375 -0.734375 1.265625 -2.0625q0.34375 -1.328125 0.34375 -3.078125l0 -1.578125l1.65625 0l0 1.28125q0 2.203125 -0.515625 3.9375q-0.5 1.734375 -1.78125 2.71875q-1.28125 0.96875 -3.625 0.96875zm13.3824005 -0.171875q-1.28125 0 -1.921875 -0.5q-0.640625 -0.515625 -0.84375 -1.375q-0.1875 -0.875 -0.1875 -1.953125l0 -13.734375l-2.421875 0l0 -1.125l2.421875 0l0 -5.921875l1.703125 0l0 5.921875l3.140625 0l0 1.125l-3.140625 0l0 13.5q0 1.5 0.28125 2.109375q0.296875 0.609375 1.3125 0.609375q0.328125 0 0.6875 -0.046875q0.375 -0.046875 0.6875 -0.109375l0 1.3125q-0.375 0.09375 -0.859375 0.140625q-0.484375 0.046875 -0.859375 0.046875zm4.5722656 -0.1875l0 -18.5l1.703125 0l0 2.5q0.828125 -1.375 2.0625 -2.03125q1.234375 -0.65625 2.3125 -0.65625q0.0625 0 0.140625 0q0.09375 0 0.1875 0.03125l0 1.765625q-0.140625 -0.0625 -0.34375 -0.078125q-0.203125 -0.015625 -0.359375 -0.015625q-1.28125 0 -2.296875 0.609375q-1.0 0.59375 -1.703125 1.75l0 14.625l-1.703125 0zm9.149765 0l0 -25.921875l1.703125 0l0 25.921875l-1.703125 0z" fill-rule="nonzero"/><path fill="#000000" fill-opacity="0.0" d="m135.41995 449.23883l34.204712 0l0 89.7323l-34.204712 0z" fill-rule="evenodd"/><path fill="#595959" d="m145.7637 517.045l15.296875 -51.84375l3.0 0l-15.21875 51.84375l-3.078125 0z" fill-rule="nonzero"/></g></svg>