<svg version="1.1" viewBox="0.0 0.0 960.0 540.0" fill="none" stroke="none" stroke-linecap="square" stroke-miterlimit="10" xmlns:xlink="http://www.w3.org/1999/xlink" xmlns="http://www.w3.org/2000/svg"><clipPath id="g596a490178_0_61.0"><path d="m0 0l960.0 0l0 540.0l-960.0 0l0 -540.0z" clip-rule="nonzero"/></clipPath><g clip-path="url(#g596a490178_0_61.0)"><path fill="#ffffff" d="m0 0l960.0 0l0 540.0l-960.0 0z" fill-rule="evenodd"/><path fill="#000000" fill-opacity="0.0" d="m221.40158 399.439l190.20471 0l0 26.677185l-190.20471 0z" fill-rule="evenodd"/><path fill="#595959" d="m289.12238 400.85757l0 -25.96875l-3.75 0l0 -1.78125l3.75 0l0 -3.734375q0 -1.828125 0.28125 -3.234375q0.296875 -1.421875 1.296875 -2.234375q1.015625 -0.828125 3.078125 -0.828125q0.53125 0 1.21875 0.109375q0.703125 0.09375 1.171875 0.234375l0 1.921875q-0.46875 -0.09375 -1.0 -0.171875q-0.53125 -0.078125 -1.015625 -0.078125q-1.625 0 -2.0625 0.921875q-0.421875 0.90625 -0.421875 3.3125l0 3.78125l10.078125 0l0 27.75l-2.546875 0l0 -25.96875l-7.53125 0l0 25.96875l-2.546875 0zm10.21875 -31.390625l0 -4.421875l2.40625 0l0 4.421875l-2.40625 0zm8.888916 31.390625l0 -27.75l2.53125 0l0 3.75q1.25 -2.0625 3.09375 -3.046875q1.859375 -0.984375 3.484375 -0.984375q0.09375 0 0.21875 0q0.125 0 0.265625 0.046875l0 2.640625q-0.1875 -0.09375 -0.5 -0.109375q-0.3125 -0.03125 -0.5625 -0.03125q-1.90625 0 -3.421875 0.921875q-1.515625 0.90625 -2.578125 2.625l0 21.9375l-2.53125 0zm19.53717 0.4375q-3.265625 0 -5.1875 -2.140625q-1.921875 -2.140625 -2.21875 -5.78125l2.171875 -0.625q0.234375 3.5 1.59375 5.0625q1.375 1.5625 3.734375 1.5625q2.109375 0 3.25 -1.171875q1.15625 -1.1875 1.15625 -3.34375q0 -1.484375 -0.984375 -3.09375q-0.984375 -1.609375 -3.09375 -3.390625l-3.21875 -2.734375q-2.0625 -1.765625 -3.03125 -3.375q-0.953125 -1.609375 -0.953125 -3.671875q0 -1.921875 0.796875 -3.21875q0.796875 -1.296875 2.203125 -1.984375q1.421875 -0.703125 3.296875 -0.703125q3.109375 0 4.640625 1.96875q1.546875 1.96875 1.640625 5.28125l-1.875 0.5625q-0.046875 -2.15625 -0.59375 -3.453125q-0.546875 -1.296875 -1.484375 -1.859375q-0.9375 -0.578125 -2.1875 -0.578125q-1.828125 0 -2.953125 0.9375q-1.125 0.921875 -1.125 2.75q0 1.53125 0.59375 2.671875q0.609375 1.125 2.234375 2.609375l3.3125 2.921875q1.25 1.0625 2.390625 2.265625q1.15625 1.203125 1.90625 2.671875q0.75 1.453125 0.75 3.46875q0 2.015625 -0.84375 3.4375q-0.84375 1.40625 -2.359375 2.1875q-1.5 0.765625 -3.5625 0.765625zm16.884888 -0.15625q-1.921875 0 -2.890625 -0.765625q-0.953125 -0.765625 -1.234375 -2.0625q-0.28125 -1.296875 -0.28125 -2.921875l0 -20.59375l-3.65625 0l0 -1.6875l3.65625 0l0 -8.875l2.53125 0l0 8.875l4.703125 0l0 1.6875l-4.703125 0l0 20.25q0 2.265625 0.4375 3.171875q0.4375 0.90625 1.96875 0.90625q0.484375 0 1.03125 -0.0625q0.546875 -0.078125 1.03125 -0.171875l0 1.96875q-0.578125 0.140625 -1.296875 0.203125q-0.71875 0.078125 -1.296875 0.078125z" fill-rule="nonzero"/><path fill="#595959" d="m282.08624 458.85757l0 -27.75l2.546875 0l0 2.984375q1.296875 -1.53125 2.96875 -2.46875q1.6875 -0.9375 3.609375 -0.9375q1.25 0 2.234375 0.609375q0.984375 0.59375 1.546875 1.90625q0.578125 1.3125 0.578125 3.53125l0 22.125l-2.53125 0l0 -21.84375q0 -2.546875 -0.796875 -3.453125q-0.796875 -0.90625 -2.140625 -0.90625q-1.390625 0 -2.8125 0.84375q-1.40625 0.828125 -2.65625 2.21875l0 23.140625l-2.546875 0zm25.205536 0.4375q-2.734375 0 -4.25 -1.203125q-1.515625 -1.203125 -2.125 -3.546875q-0.59375 -2.359375 -0.59375 -5.8125l0 -7.484375q0 -3.46875 0.59375 -5.8125q0.609375 -2.359375 2.125 -3.546875q1.515625 -1.203125 4.25 -1.203125q2.78125 0 4.28125 1.203125q1.515625 1.1875 2.109375 3.515625q0.609375 2.328125 0.609375 5.84375l0 7.484375q0 3.453125 -0.609375 5.8125q-0.59375 2.34375 -2.109375 3.546875q-1.5 1.203125 -4.28125 1.203125zm0 -1.921875q2.015625 0 2.96875 -1.03125q0.96875 -1.03125 1.21875 -2.953125q0.265625 -1.921875 0.265625 -4.5625l0 -7.6875q0 -2.6875 -0.265625 -4.578125q-0.25 -1.890625 -1.21875 -2.921875q-0.953125 -1.03125 -2.96875 -1.03125q-2.015625 0 -2.953125 1.03125q-0.9375 1.03125 -1.203125 2.921875q-0.265625 1.890625 -0.265625 4.578125l0 7.6875q0 2.640625 0.265625 4.5625q0.265625 1.921875 1.203125 2.953125q0.9375 1.03125 2.953125 1.03125zm17.946533 1.921875q-3.59375 0 -5.0625 -2.765625q-1.46875 -2.765625 -1.46875 -9.046875l0 -4.9375q0 -3.9375 0.53125 -6.546875q0.53125 -2.625 1.921875 -3.96875q1.390625 -1.34375 3.9375 -1.34375q1.78125 0 3.015625 0.796875q1.25 0.78125 2.015625 1.75l0 -13.25l2.546875 0l0 38.875l-2.546875 0l0 -2.109375q-0.765625 0.90625 -1.984375 1.734375q-1.21875 0.8125 -2.90625 0.8125zm0.34375 -1.96875q1.390625 0 2.5625 -0.71875q1.171875 -0.71875 1.984375 -1.640625l0 -19.921875q-0.765625 -0.765625 -1.9375 -1.578125q-1.171875 -0.8125 -2.65625 -0.8125q-2.640625 0 -3.46875 2.203125q-0.8125 2.203125 -0.8125 7.0625l0 5.75q0 3.359375 0.359375 5.5q0.359375 2.140625 1.296875 3.15625q0.9375 1.0 2.671875 1.0zm19.147552 1.96875q-2.203125 0 -3.796875 -0.890625q-1.578125 -0.890625 -2.421875 -3.21875q-0.84375 -2.328125 -0.84375 -6.59375l0 -7.390625q0 -4.375 0.859375 -6.625q0.875 -2.265625 2.484375 -3.078125q1.609375 -0.8125 3.765625 -0.8125q2.59375 0 4.078125 1.109375q1.484375 1.09375 2.109375 3.515625q0.625 2.421875 0.625 6.40625l0 2.640625l-11.375 0l0 4.421875q0 3.3125 0.453125 5.1875q0.453125 1.859375 1.46875 2.640625q1.015625 0.765625 2.59375 0.765625q1.0 0 2.0 -0.328125q1.015625 -0.34375 1.6875 -1.59375q0.671875 -1.25 0.671875 -3.890625l0 -2.0625l2.5 0l0 1.828125q0 3.546875 -1.46875 5.765625q-1.453125 2.203125 -5.390625 2.203125zm-4.515625 -16.46875l8.875 0l0 -2.15625q0 -2.5 -0.265625 -4.296875q-0.25 -1.796875 -1.171875 -2.78125q-0.90625 -0.984375 -2.875 -0.984375q-1.53125 0 -2.5625 0.65625q-1.03125 0.640625 -1.515625 2.390625q-0.484375 1.75 -0.484375 5.0625l0 2.109375z" fill-rule="nonzero"/><path fill="#000000" fill-opacity="0.0" d="m548.3937 127.22572l0 0c0 -52.523582 42.578796 -95.10236 95.102356 -95.10236l0 0c25.222717 0 49.412415 10.019684 67.24756 27.854836c17.835144 17.835152 27.854858 42.02481 27.854858 67.24753l0 0c0 52.52359 -42.578796 95.102356 -95.10242 95.102356l0 0c-52.52356 0 -95.102356 -42.578766 -95.102356 -95.102356z" fill-rule="evenodd"/><path stroke="#595959" stroke-width="8.0" stroke-linejoin="round" stroke-linecap="butt" d="m548.3937 127.22572l0 0c0 -52.523582 42.578796 -95.10236 95.102356 -95.10236l0 0c25.222717 0 49.412415 10.019684 67.24756 27.854836c17.835144 17.835152 27.854858 42.02481 27.854858 67.24753l0 0c0 52.52359 -42.578796 95.102356 -95.10242 95.102356l0 0c-52.52356 0 -95.102356 -42.578766 -95.102356 -95.102356z" fill-rule="evenodd"/><path fill="#000000" fill-opacity="0.0" d="m548.3937 113.89158l190.20477 0l0 26.677162l-190.20477 0z" fill-rule="evenodd"/><path fill="#595959" d="m597.83124 115.74766q-3.265625 0 -5.1875 -2.140625q-1.921875 -2.140625 -2.21875 -5.78125l2.171875 -0.625q0.234375 3.5 1.59375 5.0625q1.375 1.5625 3.734375 1.5625q2.109375 0 3.25 -1.171875q1.15625 -1.1875 1.15625 -3.34375q0 -1.484375 -0.984375 -3.09375q-0.984375 -1.609375 -3.09375 -3.390625l-3.21875 -2.734375q-2.0625 -1.765625 -3.03125 -3.375q-0.953125 -1.609375 -0.953125 -3.671875q0 -1.921875 0.796875 -3.21875q0.796875 -1.296875 2.203125 -1.984375q1.421875 -0.703125 3.296875 -0.703125q3.109375 0 4.640625 1.96875q1.546875 1.96875 1.640625 5.28125l-1.875 0.5625q-0.046875 -2.15625 -0.59375 -3.453125q-0.546875 -1.296875 -1.484375 -1.859375q-0.9375 -0.578125 -2.1875 -0.578125q-1.828125 0 -2.953125 0.9375q-1.125 0.921875 -1.125 2.75q0 1.53125 0.59375 2.671875q0.609375 1.125 2.234375 2.609375l3.3125 2.921875q1.25 1.0625 2.390625 2.265625q1.15625 1.203125 1.90625 2.671875q0.75 1.453125 0.75 3.46875q0 2.015625 -0.84375 3.4375q-0.84375 1.40625 -2.359375 2.1875q-1.5 0.765625 -3.5625 0.765625zm17.322388 0q-2.203125 0 -3.796875 -0.890625q-1.578125 -0.890625 -2.421875 -3.21875q-0.84375 -2.328125 -0.84375 -6.59375l0 -7.390625q0 -4.375 0.859375 -6.625q0.875 -2.265625 2.484375 -3.078125q1.609375 -0.8125 3.765625 -0.8125q2.59375 0 4.078125 1.109375q1.484375 1.09375 2.109375 3.515625q0.625 2.421875 0.625 6.40625l0 2.640625l-11.375 0l0 4.421875q0 3.3125 0.453125 5.1875q0.453125 1.859375 1.46875 2.640625q1.015625 0.765625 2.59375 0.765625q1.0 0 2.0 -0.328125q1.015625 -0.34375 1.6875 -1.59375q0.671875 -1.25 0.671875 -3.890625l0 -2.0625l2.5 0l0 1.828125q0 3.546875 -1.46875 5.765625q-1.453125 2.203125 -5.390625 2.203125zm-4.515625 -16.46875l8.875 0l0 -2.15625q0 -2.5 -0.265625 -4.296875q-0.25 -1.796875 -1.171875 -2.78125q-0.90625 -0.984375 -2.875 -0.984375q-1.53125 0 -2.5625 0.65625q-1.03125 0.640625 -1.515625 2.390625q-0.484375 1.75 -0.484375 5.0625l0 2.109375zm22.660767 16.46875q-3.125 0 -4.609375 -1.46875q-1.484375 -1.46875 -1.953125 -3.90625q-0.453125 -2.453125 -0.453125 -5.484375l0 -6.515625q0 -4.09375 0.625 -6.5625q0.625 -2.46875 2.15625 -3.5625q1.546875 -1.109375 4.234375 -1.109375q2.875 0 4.34375 1.171875q1.46875 1.171875 1.9375 3.21875q0.484375 2.03125 0.484375 4.578125l0 1.109375l-2.40625 0l0 -1.109375q0 -2.828125 -0.453125 -4.34375q-0.453125 -1.515625 -1.421875 -2.109375q-0.953125 -0.59375 -2.484375 -0.59375q-1.875 0 -2.84375 0.890625q-0.953125 0.875 -1.296875 2.84375q-0.328125 1.96875 -0.328125 5.28125l0 7.203125q0 4.515625 0.890625 6.53125q0.890625 2.015625 3.625 2.015625q1.875 0 2.8125 -0.8125q0.9375 -0.828125 1.21875 -2.546875q0.28125 -1.734375 0.28125 -4.46875l0 -1.0625l2.40625 0l0 1.015625q0 2.78125 -0.4375 5.0q-0.421875 2.203125 -1.875 3.5q-1.4375 1.296875 -4.453125 1.296875zm17.953186 0q-2.734375 0 -4.25 -1.203125q-1.515625 -1.203125 -2.125 -3.546875q-0.59375 -2.359375 -0.59375 -5.8125l0 -7.484375q0 -3.46875 0.59375 -5.8125q0.609375 -2.359375 2.125 -3.546875q1.515625 -1.203125 4.25 -1.203125q2.78125 0 4.28125 1.203125q1.515625 1.1875 2.109375 3.515625q0.609375 2.328125 0.609375 5.84375l0 7.484375q0 3.453125 -0.609375 5.8125q-0.59375 2.34375 -2.109375 3.546875q-1.5 1.203125 -4.28125 1.203125zm0 -1.921875q2.015625 0 2.96875 -1.03125q0.96875 -1.03125 1.21875 -2.953125q0.265625 -1.921875 0.265625 -4.5625l0 -7.6875q0 -2.6875 -0.265625 -4.578125q-0.25 -1.890625 -1.21875 -2.921875q-0.953125 -1.03125 -2.96875 -1.03125q-2.015625 0 -2.953125 1.03125q-0.9375 1.03125 -1.203125 2.921875q-0.265625 1.890625 -0.265625 4.578125l0 7.6875q0 2.640625 0.265625 4.5625q0.265625 1.921875 1.203125 2.953125q0.9375 1.03125 2.953125 1.03125zm11.946533 1.484375l0 -27.75l2.546875 0l0 2.984375q1.296875 -1.53125 2.96875 -2.46875q1.6875 -0.9375 3.609375 -0.9375q1.25 0 2.234375 0.609375q0.984375 0.59375 1.546875 1.90625q0.578125 1.3125 0.578125 3.53125l0 22.125l-2.53125 0l0 -21.84375q0 -2.546875 -0.796875 -3.453125q-0.796875 -0.90625 -2.140625 -0.90625q-1.390625 0 -2.8125 0.84375q-1.40625 0.828125 -2.65625 2.21875l0 23.140625l-2.546875 0zm24.768005 0.4375q-3.59375 0 -5.0625 -2.765625q-1.46875 -2.765625 -1.46875 -9.046875l0 -4.9375q0 -3.9375 0.53125 -6.546875q0.53125 -2.625 1.921875 -3.96875q1.390625 -1.34375 3.9375 -1.34375q1.78125 0 3.015625 0.796875q1.25 0.78125 2.015625 1.75l0 -13.25l2.546875 0l0 38.875l-2.546875 0l0 -2.109375q-0.765625 0.90625 -1.984375 1.734375q-1.21875 0.8125 -2.90625 0.8125zm0.34375 -1.96875q1.390625 0 2.5625 -0.71875q1.171875 -0.71875 1.984375 -1.640625l0 -19.921875q-0.765625 -0.765625 -1.9375 -1.578125q-1.171875 -0.8125 -2.65625 -0.8125q-2.640625 0 -3.46875 2.203125q-0.8125 2.203125 -0.8125 7.0625l0 5.75q0 3.359375 0.359375 5.5q0.359375 2.140625 1.296875 3.15625q0.9375 1.0 2.671875 1.0z" fill-rule="nonzero"/><path fill="#595959" d="m609.07837 173.31015l0 -27.75l2.546875 0l0 2.984375q1.296875 -1.53125 2.96875 -2.46875q1.6875 -0.9375 3.609375 -0.9375q1.25 0 2.234375 0.609375q0.984375 0.59375 1.546875 1.90625q0.578125 1.3125 0.578125 3.53125l0 22.125l-2.53125 0l0 -21.84375q0 -2.546875 -0.796875 -3.453125q-0.796875 -0.90625 -2.140625 -0.90625q-1.390625 0 -2.8125 0.84375q-1.40625 0.828125 -2.65625 2.21875l0 23.140625l-2.546875 0zm25.205566 0.4375q-2.734375 0 -4.25 -1.203125q-1.515625 -1.203125 -2.125 -3.546875q-0.59375 -2.359375 -0.59375 -5.8125l0 -7.484375q0 -3.46875 0.59375 -5.8125q0.609375 -2.359375 2.125 -3.546875q1.515625 -1.203125 4.25 -1.203125q2.78125 0 4.28125 1.203125q1.515625 1.1875 2.109375 3.515625q0.609375 2.328125 0.609375 5.84375l0 7.484375q0 3.453125 -0.609375 5.8125q-0.59375 2.34375 -2.109375 3.546875q-1.5 1.203125 -4.28125 1.203125zm0 -1.921875q2.015625 0 2.96875 -1.03125q0.96875 -1.03125 1.21875 -2.953125q0.265625 -1.921875 0.265625 -4.5625l0 -7.6875q0 -2.6875 -0.265625 -4.578125q-0.25 -1.890625 -1.21875 -2.921875q-0.953125 -1.03125 -2.96875 -1.03125q-2.015625 0 -2.953125 1.03125q-0.9375 1.03125 -1.203125 2.921875q-0.265625 1.890625 -0.265625 4.578125l0 7.6875q0 2.640625 0.265625 4.5625q0.265625 1.921875 1.203125 2.953125q0.9375 1.03125 2.953125 1.03125zm17.946533 1.921875q-3.59375 0 -5.0625 -2.765625q-1.46875 -2.765625 -1.46875 -9.046875l0 -4.9375q0 -3.9375 0.53125 -6.546875q0.53125 -2.625 1.921875 -3.96875q1.390625 -1.34375 3.9375 -1.34375q1.78125 0 3.015625 0.796875q1.25 0.78125 2.015625 1.75l0 -13.25l2.546875 0l0 38.875l-2.546875 0l0 -2.109375q-0.765625 0.90625 -1.984375 1.734375q-1.21875 0.8125 -2.90625 0.8125zm0.34375 -1.96875q1.390625 0 2.5625 -0.71875q1.171875 -0.71875 1.984375 -1.640625l0 -19.921875q-0.765625 -0.765625 -1.9375 -1.578125q-1.171875 -0.8125 -2.65625 -0.8125q-2.640625 0 -3.46875 2.203125q-0.8125 2.203125 -0.8125 7.0625l0 5.75q0 3.359375 0.359375 5.5q0.359375 2.140625 1.296875 3.15625q0.9375 1.0 2.671875 1.0zm19.147522 1.96875q-2.203125 0 -3.796875 -0.890625q-1.578125 -0.890625 -2.421875 -3.21875q-0.84375 -2.328125 -0.84375 -6.59375l0 -7.390625q0 -4.375 0.859375 -6.625q0.875 -2.265625 2.484375 -3.078125q1.609375 -0.8125 3.765625 -0.8125q2.59375 0 4.078125 1.109375q1.484375 1.09375 2.109375 3.515625q0.625 2.421875 0.625 6.40625l0 2.640625l-11.375 0l0 4.421875q0 3.3125 0.453125 5.1875q0.453125 1.859375 1.46875 2.640625q1.015625 0.765625 2.59375 0.765625q1.0 0 2.0 -0.328125q1.015625 -0.34375 1.6875 -1.59375q0.671875 -1.25 0.671875 -3.890625l0 -2.0625l2.5 0l0 1.828125q0 3.546875 -1.46875 5.765625q-1.453125 2.203125 -5.390625 2.203125zm-4.515625 -16.46875l8.875 0l0 -2.15625q0 -2.5 -0.265625 -4.296875q-0.25 -1.796875 -1.171875 -2.78125q-0.90625 -0.984375 -2.875 -0.984375q-1.53125 0 -2.5625 0.65625q-1.03125 0.640625 -1.515625 2.390625q-0.484375 1.75 -0.484375 5.0625l0 2.109375z" fill-rule="nonzero"/><path fill="#595959" d="m539.18304 199.46187l31.196838 -6.3937073l-12.456665 29.259842z" fill-rule="evenodd"/><path fill="#000000" fill-opacity="0.0" d="m221.40158 412.7743l0 0c0 -52.52359 42.578766 -95.10239 95.102356 -95.10239l0 0c25.222717 0 49.412384 10.019684 67.24753 27.854858c17.835144 17.835144 27.854828 42.02481 27.854828 67.24753l0 0c0 52.52356 -42.578766 95.102356 -95.102356 95.102356l0 0c-52.52359 0 -95.102356 -42.578796 -95.102356 -95.102356z" fill-rule="evenodd"/><path stroke="#595959" stroke-width="8.0" stroke-linejoin="round" stroke-linecap="butt" d="m221.40158 412.7743l0 0c0 -52.52359 42.578766 -95.10239 95.102356 -95.10239l0 0c25.222717 0 49.412384 10.019684 67.24753 27.854858c17.835144 17.835144 27.854828 42.02481 27.854828 67.24753l0 0c0 52.52356 -42.578766 95.102356 -95.102356 95.102356l0 0c-52.52359 0 -95.102356 -42.578796 -95.102356 -95.102356z" fill-rule="evenodd"/><path fill="#000000" fill-opacity="0.0" d="m383.75146 345.52676l164.78741 -134.64568" fill-rule="evenodd"/><path stroke="#595959" stroke-width="8.0" stroke-linejoin="round" stroke-linecap="butt" d="m383.75146 345.52676l164.78741 -134.64568" fill-rule="evenodd"/><path fill="#eeeeee" d="m344.40198 233.50656l194.77167 0l0 46.204712l-194.77167 0z" fill-rule="evenodd"/><path fill="#000000" fill-opacity="0.0" d="m341.45145 241.47946l197.73227 0l0 27.716522l-197.73227 0z" fill-rule="evenodd"/><path fill="#ff9900" d="m390.20013 269.73773l0 -23.125015l2.125 0l0 3.125q1.03125 -1.71875 2.5625 -2.53125q1.546875 -0.828125 2.90625 -0.828125q0.078125 0 0.171875 0q0.109375 0 0.234375 0.046875l0 2.1875q-0.15625 -0.078125 -0.421875 -0.09375q-0.265625 -0.015625 -0.453125 -0.015625q-1.609375 0 -2.875 0.765625q-1.25 0.75 -2.125 2.1875l0 18.281265l-2.125 0zm16.316223 0.359375q-1.84375 0 -3.171875 -0.734375q-1.3125 -0.75 -2.015625 -2.6875q-0.6875 -1.9375 -0.6875 -5.5l0 -6.1562653q0 -3.640625 0.71875 -5.515625q0.71875 -1.890625 2.046875 -2.5625q1.34375 -0.6875 3.15625 -0.6875q2.15625 0 3.390625 0.921875q1.25 0.921875 1.765625 2.953125q0.515625 2.015625 0.515625 5.328125l0 2.2031403l-9.484375 0l0 3.671875q0 2.765625 0.375 4.328125q0.390625 1.5625 1.234375 2.203125q0.84375 0.640625 2.15625 0.640625q0.84375 0 1.671875 -0.28125q0.84375 -0.28125 1.40625 -1.3125q0.5625 -1.046875 0.5625 -3.25l0 -1.71875l2.078125 0l0 1.515625q0 2.96875 -1.21875 4.8125q-1.21875 1.828125 -4.5 1.828125zm-3.765625 -13.71875l7.40625 0l0 -1.7968903q0 -2.078125 -0.21875 -3.578125q-0.21875 -1.5 -0.984375 -2.3125q-0.75 -0.828125 -2.390625 -0.828125q-1.28125 0 -2.140625 0.546875q-0.859375 0.53125 -1.265625 2.0q-0.40625 1.453125 -0.40625 4.203125l0 1.7656403zm13.488129 13.359375l0 -23.125015l2.125 0l0 2.484375q1.078125 -1.28125 2.46875 -2.0625q1.40625 -0.78125 3.0 -0.78125q1.046875 0 1.859375 0.5q0.828125 0.5 1.296875 1.609375q0.484375 1.09375 0.484375 2.9375l0 18.437515l-2.109375 0l0 -18.20314q0 -2.109375 -0.671875 -2.875q-0.65625 -0.765625 -1.78125 -0.765625q-1.15625 0 -2.34375 0.703125q-1.171875 0.703125 -2.203125 1.859375l0 19.281265l-2.125 0zm19.514984 0.359375q-1.390625 0 -2.4375 -0.640625q-1.03125 -0.640625 -1.625 -1.78125q-0.578125 -1.140625 -0.578125 -2.625q0 -1.46875 0.375 -2.5625q0.390625 -1.109375 1.390625 -2.0625q1.0 -0.96875 2.859375 -2.03125q1.859375 -1.0625 4.8125 -2.4531403l0 -1.640625q0 -2.515625 -0.296875 -3.921875q-0.296875 -1.40625 -1.0 -1.953125q-0.703125 -0.5625 -1.890625 -0.5625q-0.921875 0 -1.765625 0.328125q-0.84375 0.3125 -1.390625 1.25q-0.53125 0.9375 -0.53125 2.78125l0 0.59375l-2.078125 0q0 -3.3125 1.34375 -4.9375q1.34375 -1.625 4.5 -1.625q2.921875 0 4.078125 1.84375q1.15625 1.84375 1.15625 5.953125l0 11.64064q0 0.328125 0.015625 1.234375q0.03125 0.890625 0.046875 1.734375q0.015625 0.84375 0.0625 1.078125l-1.84375 0q-0.078125 -0.84375 -0.203125 -1.765625q-0.109375 -0.921875 -0.15625 -1.3125q-0.515625 1.4375 -1.796875 2.4375q-1.28125 1.0 -3.046875 1.0zm0.53125 -1.765625q1.0 0 1.796875 -0.453125q0.796875 -0.453125 1.4375 -1.1875q0.640625 -0.75 1.03125 -1.59375l0 -7.59375q-2.109375 1.109375 -3.53125 1.921875q-1.421875 0.796875 -2.25 1.515625q-0.8125 0.71875 -1.171875 1.625q-0.359375 0.890625 -0.359375 2.171875q0 2.078125 0.953125 2.84375q0.96875 0.75 2.09375 0.75zm10.753723 1.40625l0 -23.125015l2.0 0l0 2.4375q1.125 -1.359375 2.515625 -2.09375q1.40625 -0.734375 2.921875 -0.734375q1.15625 0 2.171875 0.640625q1.03125 0.640625 1.421875 2.4375q1.171875 -1.484375 2.609375 -2.28125q1.4375 -0.796875 3.03125 -0.796875q0.96875 0 1.84375 0.4375q0.890625 0.4375 1.4375 1.578125q0.5625 1.140625 0.5625 3.21875l0 18.281265l-2.03125 0l0 -18.312515q0 -2.25 -0.734375 -2.96875q-0.71875 -0.71875 -1.75 -0.71875q-1.234375 0 -2.484375 0.75q-1.234375 0.734375 -2.3125 1.96875q0.03125 0.203125 0.046875 0.46875q0.03125 0.25 0.03125 0.53125l0 18.281265l-2.046875 0l0 -18.312515q0 -2.25 -0.71875 -2.96875q-0.71875 -0.71875 -1.75 -0.71875q-1.203125 0 -2.453125 0.75q-1.234375 0.734375 -2.3125 1.9375l0 19.312515l-2.0 0zm30.357483 0.359375q-1.84375 0 -3.171875 -0.734375q-1.3125 -0.75 -2.015625 -2.6875q-0.6875 -1.9375 -0.6875 -5.5l0 -6.1562653q0 -3.640625 0.71875 -5.515625q0.71875 -1.890625 2.046875 -2.5625q1.34375 -0.6875 3.15625 -0.6875q2.15625 0 3.390625 0.921875q1.25 0.921875 1.765625 2.953125q0.515625 2.015625 0.515625 5.328125l0 2.2031403l-9.484375 0l0 3.671875q0 2.765625 0.375 4.328125q0.390625 1.5625 1.234375 2.203125q0.84375 0.640625 2.15625 0.640625q0.84375 0 1.671875 -0.28125q0.84375 -0.28125 1.40625 -1.3125q0.5625 -1.046875 0.5625 -3.25l0 -1.71875l2.078125 0l0 1.515625q0 2.96875 -1.21875 4.8125q-1.21875 1.828125 -4.5 1.828125zm-3.765625 -13.71875l7.40625 0l0 -1.7968903q0 -2.078125 -0.21875 -3.578125q-0.21875 -1.5 -0.984375 -2.3125q-0.75 -0.828125 -2.390625 -0.828125q-1.28125 0 -2.140625 0.546875q-0.859375 0.53125 -1.265625 2.0q-0.40625 1.453125 -0.40625 4.203125l0 1.7656403zm14.285004 19.0l0.046875 -38.04689l1.953125 0l0 38.04689l-2.0 0z" fill-rule="nonzero"/><path fill="#000000" fill-opacity="0.0" d="m500.37573 258.03427l0 0c0 -8.3954315 6.805847 -15.201279 15.201294 -15.201279l0 0c4.031616 0 7.8981323 1.6015625 10.748901 4.452347c2.850769 2.8507996 4.4523315 6.7173004 4.4523315 10.748932l0 0c0 8.395416 -6.805847 15.201233 -15.201233 15.201233l0 0c-8.395447 0 -15.201294 -6.8058167 -15.201294 -15.201233z" fill-rule="evenodd"/><path stroke="#3d85c6" stroke-width="4.0" stroke-linejoin="round" stroke-linecap="butt" d="m500.37573 258.03427l0 0c0 -8.3954315 6.805847 -15.201279 15.201294 -15.201279l0 0c4.031616 0 7.8981323 1.6015625 10.748901 4.452347c2.850769 2.8507996 4.4523315 6.7173004 4.4523315 10.748932l0 0c0 8.395416 -6.805847 15.201233 -15.201233 15.201233l0 0c-8.395447 0 -15.201294 -6.8058167 -15.201294 -15.201233z" fill-rule="evenodd"/><path fill="#efefef" d="m499.77777 278.22104l18.298523 -29.895798l18.298523 29.870468z" fill-rule="evenodd"/><path fill="#595959" d="m514.62585 308.153l0 -51.64627l42.158203 51.64627z" fill-rule="evenodd"/><path stroke="#595959" stroke-width="1.0" stroke-linejoin="round" stroke-linecap="butt" d="m514.62585 308.153l0 -51.64627l42.158203 51.64627z" fill-rule="evenodd"/><path fill="#595959" d="m537.1885 302.79486l-22.903198 -46.28784l-10.881561 63.009216z" fill-rule="evenodd"/><path stroke="#595959" stroke-width="1.0" stroke-linejoin="round" stroke-linecap="butt" d="m537.1885 302.79486l-22.903198 -46.28784l-10.881561 63.009216z" fill-rule="evenodd"/><path fill="#595959" d="m519.3908 304.7523l0 0c-0.3187256 -1.3131409 0.48724365 -2.6366882 1.8002319 -2.9561768l9.509094 -2.3139343l0 0c0.6305542 -0.15344238 1.2960205 -0.050079346 1.8500977 0.287323c0.55407715 0.33743286 0.951355 0.8812561 1.1044312 1.5118408l7.003662 28.852081c0.31878662 1.3131714 -0.48718262 2.6366882 -1.8001709 2.9562073l-9.509155 2.3139343c-1.3129272 0.31948853 -2.6357422 -0.48602295 -2.9545288 -1.7991638z" fill-rule="evenodd"/><path stroke="#595959" stroke-width="1.0" stroke-linejoin="round" stroke-linecap="butt" d="m519.3908 304.7523l0 0c-0.3187256 -1.3131409 0.48724365 -2.6366882 1.8002319 -2.9561768l9.509094 -2.3139343l0 0c0.6305542 -0.15344238 1.2960205 -0.050079346 1.8500977 0.287323c0.55407715 0.33743286 0.951355 0.8812561 1.1044312 1.5118408l7.003662 28.852081c0.31878662 1.3131714 -0.48718262 2.6366882 -1.8001709 2.9562073l-9.509155 2.3139343c-1.3129272 0.31948853 -2.6357422 -0.48602295 -2.9545288 -1.7991638z" fill-rule="evenodd"/></g></svg>