<svg version="1.1" viewBox="0.0 0.0 960.0 540.0" fill="none" stroke="none" stroke-linecap="square" stroke-miterlimit="10" xmlns:xlink="http://www.w3.org/1999/xlink" xmlns="http://www.w3.org/2000/svg"><clipPath id="g596a490178_0_84.0"><path d="m0 0l960.0 0l0 540.0l-960.0 0l0 -540.0z" clip-rule="nonzero"/></clipPath><g clip-path="url(#g596a490178_0_84.0)"><path fill="#ffffff" d="m0 0l960.0 0l0 540.0l-960.0 0z" fill-rule="evenodd"/><path fill="#000000" fill-opacity="0.0" d="m619.80054 138.20735l0 0c0 -52.52359 42.578735 -95.10236 95.102356 -95.10236l0 0c25.222717 0 49.412354 10.019684 67.2475 27.854836c17.835144 17.835152 27.854858 42.02481 27.854858 67.24753l0 0c0 52.523575 -42.578796 95.102356 -95.102356 95.102356l0 0c-52.52362 0 -95.102356 -42.57878 -95.102356 -95.102356z" fill-rule="evenodd"/><path stroke="#f3f3f3" stroke-width="8.0" stroke-linejoin="round" stroke-linecap="butt" d="m619.80054 138.20735l0 0c0 -52.52359 42.578735 -95.10236 95.102356 -95.10236l0 0c25.222717 0 49.412354 10.019684 67.2475 27.854836c17.835144 17.835152 27.854858 42.02481 27.854858 67.24753l0 0c0 52.523575 -42.578796 95.102356 -95.102356 95.102356l0 0c-52.52362 0 -95.102356 -42.57878 -95.102356 -95.102356z" fill-rule="evenodd"/><path fill="#000000" fill-opacity="0.0" d="m633.09973 166.9685l0 0c0 -52.523582 42.578796 -95.10236 95.102356 -95.10236l0 0c25.222717 0 49.412415 10.019684 67.24756 27.854836c17.835144 17.835152 27.854797 42.02481 27.854797 67.24753l0 0c0 52.523575 -42.578735 95.102356 -95.102356 95.102356l0 0c-52.52356 0 -95.102356 -42.57878 -95.102356 -95.102356z" fill-rule="evenodd"/><path stroke="#d9d9d9" stroke-width="8.0" stroke-linejoin="round" stroke-linecap="butt" d="m633.09973 166.9685l0 0c0 -52.523582 42.578796 -95.10236 95.102356 -95.10236l0 0c25.222717 0 49.412415 10.019684 67.24756 27.854836c17.835144 17.835152 27.854797 42.02481 27.854797 67.24753l0 0c0 52.523575 -42.578735 95.102356 -95.102356 95.102356l0 0c-52.52356 0 -95.102356 -42.57878 -95.102356 -95.102356z" fill-rule="evenodd"/><path fill="#000000" fill-opacity="0.0" d="m331.20294 309.52347l265.10236 -145.73228" fill-rule="evenodd"/><path stroke="#f3f3f3" stroke-width="8.0" stroke-linejoin="round" stroke-linecap="butt" d="m331.20294 309.52347l265.10236 -145.73228" fill-rule="evenodd"/><path fill="#d9d9d9" d="m602.7321 181.55592l31.716553 2.9133759l-20.37793 24.393707z" fill-rule="evenodd"/><path stroke="#d9d9d9" stroke-width="1.0" stroke-linejoin="round" stroke-linecap="butt" d="m602.7321 181.55592l31.716553 2.9133759l-20.37793 24.393707z" fill-rule="evenodd"/><path fill="#000000" fill-opacity="0.0" d="m331.20294 309.52347l277.19684 -114.29921" fill-rule="evenodd"/><path stroke="#d9d9d9" stroke-width="8.0" stroke-linejoin="round" stroke-linecap="butt" d="m331.20294 309.52347l277.19684 -114.29921" fill-rule="evenodd"/><path fill="#ffffff" d="m147.07695 357.177l0 0c-13.159164 -50.84497 17.39122 -102.73059 68.236206 -115.889755l0 0c24.416626 -6.3192444 50.34352 -2.6802216 72.07707 10.116562c21.733551 12.796783 37.49344 33.703033 43.812714 58.11966l0 0c13.159149 50.845 -17.391235 102.73059 -68.23624 115.88977l0 0c-50.844986 13.159149 -102.730606 -17.391235 -115.889755 -68.23624z" fill-rule="evenodd"/><path stroke="#595959" stroke-width="8.0" stroke-linejoin="round" stroke-linecap="butt" d="m147.07695 357.177l0 0c-13.159164 -50.84497 17.39122 -102.73059 68.236206 -115.889755l0 0c24.416626 -6.3192444 50.34352 -2.6802216 72.07707 10.116562c21.733551 12.796783 37.49344 33.703033 43.812714 58.11966l0 0c13.159149 50.845 -17.391235 102.73059 -68.23624 115.88977l0 0c-50.844986 13.159149 -102.730606 -17.391235 -115.889755 -68.23624z" fill-rule="evenodd"/><path fill="#000000" fill-opacity="0.0" d="m144.03674 320.0112l190.20471 0l0 26.677155l-190.20471 0z" fill-rule="evenodd"/><path fill="#595959" d="m211.75755 321.42978l0 -25.96875l-3.75 0l0 -1.78125l3.75 0l0 -3.734375q0 -1.828125 0.28125 -3.234375q0.296875 -1.421875 1.296875 -2.234375q1.015625 -0.828125 3.078125 -0.828125q0.53125 0 1.21875 0.109375q0.703125 0.09375 1.171875 0.234375l0 1.921875q-0.46875 -0.09375 -1.0 -0.171875q-0.53125 -0.078125 -1.015625 -0.078125q-1.625 0 -2.0625 0.921875q-0.421875 0.90625 -0.421875 3.3125l0 3.78125l10.078125 0l0 27.75l-2.546875 0l0 -25.96875l-7.53125 0l0 25.96875l-2.546875 0zm10.21875 -31.390625l0 -4.421875l2.40625 0l0 4.421875l-2.40625 0zm8.888916 31.390625l0 -27.75l2.53125 0l0 3.75q1.25 -2.0625 3.09375 -3.046875q1.859375 -0.984375 3.484375 -0.984375q0.09375 0 0.21875 0q0.125 0 0.265625 0.046875l0 2.640625q-0.1875 -0.09375 -0.5 -0.109375q-0.3125 -0.03125 -0.5625 -0.03125q-1.90625 0 -3.421875 0.921875q-1.515625 0.90625 -2.578125 2.625l0 21.9375l-2.53125 0zm19.537155 0.4375q-3.265625 0 -5.1875 -2.140625q-1.921875 -2.140625 -2.21875 -5.78125l2.171875 -0.625q0.234375 3.5 1.59375 5.0625q1.375 1.5625 3.734375 1.5625q2.109375 0 3.25 -1.171875q1.15625 -1.1875 1.15625 -3.34375q0 -1.484375 -0.984375 -3.09375q-0.984375 -1.609375 -3.09375 -3.390625l-3.21875 -2.734375q-2.0625 -1.765625 -3.03125 -3.375q-0.953125 -1.609375 -0.953125 -3.671875q0 -1.921875 0.796875 -3.21875q0.796875 -1.296875 2.203125 -1.984375q1.421875 -0.703125 3.296875 -0.703125q3.109375 0 4.640625 1.96875q1.546875 1.96875 1.640625 5.28125l-1.875 0.5625q-0.046875 -2.15625 -0.59375 -3.453125q-0.546875 -1.296875 -1.484375 -1.859375q-0.9375 -0.578125 -2.1875 -0.578125q-1.828125 0 -2.953125 0.9375q-1.125 0.921875 -1.125 2.75q0 1.53125 0.59375 2.671875q0.609375 1.125 2.234375 2.609375l3.3125 2.921875q1.25 1.0625 2.390625 2.265625q1.15625 1.203125 1.90625 2.671875q0.75 1.453125 0.75 3.46875q0 2.015625 -0.84375 3.4375q-0.84375 1.40625 -2.359375 2.1875q-1.5 0.765625 -3.5625 0.765625zm16.884888 -0.15625q-1.921875 0 -2.890625 -0.765625q-0.953125 -0.765625 -1.234375 -2.0625q-0.28125 -1.296875 -0.28125 -2.921875l0 -20.59375l-3.65625 0l0 -1.6875l3.65625 0l0 -8.875l2.53125 0l0 8.875l4.703125 0l0 1.6875l-4.703125 0l0 20.25q0 2.265625 0.4375 3.171875q0.4375 0.90625 1.96875 0.90625q0.484375 0 1.03125 -0.0625q0.546875 -0.078125 1.03125 -0.171875l0 1.96875q-0.578125 0.140625 -1.296875 0.203125q-0.71875 0.078125 -1.296875 0.078125z" fill-rule="nonzero"/><path fill="#595959" d="m204.72142 379.42978l0 -27.75l2.546875 0l0 2.984375q1.296875 -1.53125 2.96875 -2.46875q1.6875 -0.9375 3.609375 -0.9375q1.25 0 2.234375 0.609375q0.984375 0.59375 1.546875 1.90625q0.578125 1.3125 0.578125 3.53125l0 22.125l-2.53125 0l0 -21.84375q0 -2.546875 -0.796875 -3.453125q-0.796875 -0.90625 -2.140625 -0.90625q-1.390625 0 -2.8125 0.84375q-1.40625 0.828125 -2.65625 2.21875l0 23.140625l-2.546875 0zm25.205536 0.4375q-2.734375 0 -4.25 -1.203125q-1.515625 -1.203125 -2.125 -3.546875q-0.59375 -2.359375 -0.59375 -5.8125l0 -7.484375q0 -3.46875 0.59375 -5.8125q0.609375 -2.359375 2.125 -3.546875q1.515625 -1.203125 4.25 -1.203125q2.78125 0 4.28125 1.203125q1.515625 1.1875 2.109375 3.515625q0.609375 2.328125 0.609375 5.84375l0 7.484375q0 3.453125 -0.609375 5.8125q-0.59375 2.34375 -2.109375 3.546875q-1.5 1.203125 -4.28125 1.203125zm0 -1.921875q2.015625 0 2.96875 -1.03125q0.96875 -1.03125 1.21875 -2.953125q0.265625 -1.921875 0.265625 -4.5625l0 -7.6875q0 -2.6875 -0.265625 -4.578125q-0.25 -1.890625 -1.21875 -2.921875q-0.953125 -1.03125 -2.96875 -1.03125q-2.015625 0 -2.953125 1.03125q-0.9375 1.03125 -1.203125 2.921875q-0.265625 1.890625 -0.265625 4.578125l0 7.6875q0 2.640625 0.265625 4.5625q0.265625 1.921875 1.203125 2.953125q0.9375 1.03125 2.953125 1.03125zm17.946533 1.921875q-3.59375 0 -5.0625 -2.765625q-1.46875 -2.765625 -1.46875 -9.046875l0 -4.9375q0 -3.9375 0.53125 -6.546875q0.53125 -2.625 1.921875 -3.96875q1.390625 -1.34375 3.9375 -1.34375q1.78125 0 3.015625 0.796875q1.25 0.78125 2.015625 1.75l0 -13.25l2.546875 0l0 38.875l-2.546875 0l0 -2.109375q-0.765625 0.90625 -1.984375 1.734375q-1.21875 0.8125 -2.90625 0.8125zm0.34375 -1.96875q1.390625 0 2.5625 -0.71875q1.171875 -0.71875 1.984375 -1.640625l0 -19.921875q-0.765625 -0.765625 -1.9375 -1.578125q-1.171875 -0.8125 -2.65625 -0.8125q-2.640625 0 -3.46875 2.203125q-0.8125 2.203125 -0.8125 7.0625l0 5.75q0 3.359375 0.359375 5.5q0.359375 2.140625 1.296875 3.15625q0.9375 1.0 2.671875 1.0zm19.147537 1.96875q-2.203125 0 -3.796875 -0.890625q-1.578125 -0.890625 -2.421875 -3.21875q-0.84375 -2.328125 -0.84375 -6.59375l0 -7.390625q0 -4.375 0.859375 -6.625q0.875 -2.265625 2.484375 -3.078125q1.609375 -0.8125 3.765625 -0.8125q2.59375 0 4.078125 1.109375q1.484375 1.09375 2.109375 3.515625q0.625 2.421875 0.625 6.40625l0 2.640625l-11.375 0l0 4.421875q0 3.3125 0.453125 5.1875q0.453125 1.859375 1.46875 2.640625q1.015625 0.765625 2.59375 0.765625q1.0 0 2.0 -0.328125q1.015625 -0.34375 1.6875 -1.59375q0.671875 -1.25 0.671875 -3.890625l0 -2.0625l2.5 0l0 1.828125q0 3.546875 -1.46875 5.765625q-1.453125 2.203125 -5.390625 2.203125zm-4.515625 -16.46875l8.875 0l0 -2.15625q0 -2.5 -0.265625 -4.296875q-0.25 -1.796875 -1.171875 -2.78125q-0.90625 -0.984375 -2.875 -0.984375q-1.53125 0 -2.5625 0.65625q-1.03125 0.640625 -1.515625 2.390625q-0.484375 1.75 -0.484375 5.0625l0 2.109375z" fill-rule="nonzero"/><path fill="#595959" d="m614.2967 210.82507l31.669312 3.291336l-20.677185 24.141739z" fill-rule="evenodd"/><path fill="#000000" fill-opacity="0.0" d="m331.20294 309.52347l288.5984 -84.97638" fill-rule="evenodd"/><path stroke="#595959" stroke-width="8.0" stroke-linejoin="round" stroke-linecap="butt" d="m331.20294 309.52347l288.5984 -84.97638" fill-rule="evenodd"/><path fill="#000000" fill-opacity="0.0" d="m385.7966 217.45847l197.73227 0l0 27.716522l-197.73227 0z" fill-rule="evenodd"/><path fill="#595959" d="m441.22525 243.22423q-1.28125 0 -1.921875 -0.5q-0.640625 -0.515625 -0.84375 -1.375q-0.1875 -0.875 -0.1875 -1.953125l0 -13.734375l-2.421875 0l0 -1.125l2.421875 0l0 -5.921875l1.703125 0l0 5.921875l3.140625 0l0 1.125l-3.140625 0l0 13.5q0 1.5 0.28125 2.109375q0.296875 0.609375 1.3125 0.609375q0.328125 0 0.6875 -0.046875q0.375 -0.046875 0.6875 -0.109375l0 1.3125q-0.375 0.09375 -0.859375 0.140625q-0.484375 0.046875 -0.859375 0.046875zm4.5722656 -0.1875l0 -18.5l1.703125 0l0 2.5q0.828125 -1.375 2.0625 -2.03125q1.234375 -0.65625 2.3125 -0.65625q0.0625 0 0.140625 0q0.09375 0 0.1875 0.03125l0 1.765625q-0.140625 -0.0625 -0.34375 -0.078125q-0.203125 -0.015625 -0.359375 -0.015625q-1.28125 0 -2.296875 0.609375q-1.0 0.59375 -1.703125 1.75l0 14.625l-1.703125 0zm11.803009 0.28125q-1.109375 0 -1.953125 -0.5q-0.828125 -0.515625 -1.296875 -1.421875q-0.453125 -0.921875 -0.453125 -2.109375q0 -1.171875 0.296875 -2.046875q0.3125 -0.890625 1.109375 -1.65625q0.796875 -0.765625 2.28125 -1.609375q1.5 -0.859375 3.859375 -1.984375l0 -1.3125q0 -2.015625 -0.25 -3.125q-0.234375 -1.125 -0.796875 -1.5625q-0.546875 -0.453125 -1.515625 -0.453125q-0.734375 0 -1.40625 0.265625q-0.671875 0.25 -1.109375 1.0q-0.421875 0.75 -0.421875 2.21875l0 0.484375l-1.671875 0q0 -2.65625 1.078125 -3.953125q1.078125 -1.296875 3.59375 -1.296875q2.34375 0 3.265625 1.46875q0.9375 1.46875 0.9375 4.765625l0 9.3125q0 0.265625 0.015625 0.984375q0.015625 0.71875 0.03125 1.390625q0.015625 0.671875 0.046875 0.859375l-1.46875 0q-0.0625 -0.671875 -0.171875 -1.40625q-0.09375 -0.734375 -0.125 -1.0625q-0.40625 1.15625 -1.4375 1.953125q-1.015625 0.796875 -2.4375 0.796875zm0.421875 -1.40625q0.796875 0 1.4375 -0.359375q0.640625 -0.375 1.15625 -0.96875q0.515625 -0.59375 0.828125 -1.265625l0 -6.078125q-1.6875 0.90625 -2.828125 1.546875q-1.140625 0.640625 -1.796875 1.21875q-0.65625 0.5625 -0.953125 1.28125q-0.28125 0.71875 -0.28125 1.75q0 1.65625 0.765625 2.265625q0.78125 0.609375 1.671875 0.609375zm8.612396 1.125l0 -18.5l1.6875 0l0 1.984375q0.875 -1.015625 1.984375 -1.640625q1.125 -0.625 2.40625 -0.625q0.828125 0 1.484375 0.40625q0.65625 0.390625 1.03125 1.28125q0.390625 0.875 0.390625 2.34375l0 14.75l-1.6875 0l0 -14.5625q0 -1.6875 -0.53125 -2.296875q-0.53125 -0.609375 -1.421875 -0.609375q-0.9375 0 -1.875 0.5625q-0.9375 0.546875 -1.78125 1.484375l0 15.421875l-1.6875 0zm16.699524 0.28125q-2.171875 0 -3.453125 -1.421875q-1.28125 -1.421875 -1.46875 -3.84375l1.4375 -0.421875q0.15625 2.328125 1.0625 3.375q0.921875 1.046875 2.484375 1.046875q1.40625 0 2.171875 -0.78125q0.78125 -0.796875 0.78125 -2.234375q0 -0.984375 -0.65625 -2.0625q-0.65625 -1.078125 -2.078125 -2.25l-2.140625 -1.828125q-1.375 -1.1875 -2.015625 -2.25q-0.640625 -1.078125 -0.640625 -2.453125q0 -1.28125 0.53125 -2.140625q0.53125 -0.875 1.46875 -1.328125q0.953125 -0.46875 2.203125 -0.46875q2.078125 0 3.09375 1.3125q1.03125 1.3125 1.09375 3.515625l-1.25 0.390625q-0.03125 -1.453125 -0.40625 -2.3125q-0.359375 -0.859375 -0.984375 -1.234375q-0.625 -0.390625 -1.453125 -0.390625q-1.21875 0 -1.96875 0.625q-0.75 0.625 -0.75 1.828125q0 1.03125 0.390625 1.78125q0.40625 0.75 1.484375 1.75l2.21875 1.953125q0.828125 0.703125 1.59375 1.5q0.765625 0.796875 1.265625 1.78125q0.5 0.96875 0.5 2.3125q0 1.34375 -0.5625 2.296875q-0.5625 0.9375 -1.578125 1.453125q-1.0 0.5 -2.375 0.5zm7.454529 -0.28125l0 -18.5l1.734375 0l0 18.5l-1.734375 0zm0 -20.921875l0 -2.953125l1.734375 0l0 2.953125l-1.734375 0zm9.860535 21.109375q-1.28125 0 -1.921875 -0.5q-0.640625 -0.515625 -0.84375 -1.375q-0.1875 -0.875 -0.1875 -1.953125l0 -13.734375l-2.421875 0l0 -1.125l2.421875 0l0 -5.921875l1.703125 0l0 5.921875l3.140625 0l0 1.125l-3.140625 0l0 13.5q0 1.5 0.28125 2.109375q0.296875 0.609375 1.3125 0.609375q0.328125 0 0.6875 -0.046875q0.375 -0.046875 0.6875 -0.109375l0 1.3125q-0.375 0.09375 -0.859375 0.140625q-0.484375 0.046875 -0.859375 0.046875zm4.6035156 -0.1875l0 -18.5l1.734375 0l0 18.5l-1.734375 0zm0 -20.921875l0 -2.953125l1.734375 0l0 2.953125l-1.734375 0zm10.079254 21.203125q-1.828125 0 -2.84375 -0.796875q-1.0 -0.796875 -1.40625 -2.359375q-0.390625 -1.578125 -0.390625 -3.875l0 -5.0q0 -2.296875 0.390625 -3.859375q0.40625 -1.578125 1.40625 -2.375q1.015625 -0.796875 2.84375 -0.796875q1.859375 0 2.859375 0.796875q1.015625 0.796875 1.40625 2.359375q0.40625 1.546875 0.40625 3.875l0 5.0q0 2.296875 -0.40625 3.875q-0.390625 1.5625 -1.40625 2.359375q-1.0 0.796875 -2.859375 0.796875zm0 -1.265625q1.34375 0 1.984375 -0.6875q0.640625 -0.703125 0.8125 -1.96875q0.1875 -1.28125 0.1875 -3.046875l0 -5.125q0 -1.78125 -0.1875 -3.046875q-0.171875 -1.265625 -0.8125 -1.953125q-0.640625 -0.6875 -1.984375 -0.6875q-1.34375 0 -1.96875 0.6875q-0.625 0.6875 -0.796875 1.953125q-0.171875 1.265625 -0.171875 3.046875l0 5.125q0 1.765625 0.171875 3.046875q0.171875 1.265625 0.796875 1.96875q0.625 0.6875 1.96875 0.6875zm7.9747925 0.984375l0 -18.5l1.6875 0l0 1.984375q0.875 -1.015625 1.984375 -1.640625q1.125 -0.625 2.40625 -0.625q0.828125 0 1.484375 0.40625q0.65625 0.390625 1.03125 1.28125q0.390625 0.875 0.390625 2.34375l0 14.75l-1.6875 0l0 -14.5625q0 -1.6875 -0.53125 -2.296875q-0.53125 -0.609375 -1.421875 -0.609375q-0.9375 0 -1.875 0.5625q-0.9375 0.546875 -1.78125 1.484375l0 15.421875l-1.6875 0z" fill-rule="nonzero"/><path fill="#f3f3f3" d="m724.2949 309.09457l0 -50.233765l41.015625 50.233765z" fill-rule="evenodd"/><path fill="#f3f3f3" d="m746.2461 303.88297l-22.282532 -45.02188l-10.58667 61.28592z" fill-rule="evenodd"/><path fill="#f3f3f3" d="m728.9309 305.78738l0 0c-0.3102417 -1.2775269 0.47387695 -2.565094 1.7512207 -2.8758545l9.251465 -2.2506714l0 0c0.6134033 -0.14923096 1.2608643 -0.04864502 1.7999878 0.27963257c0.5390625 0.3282776 0.92559814 0.85736084 1.074585 1.4708557l6.8135986 28.06195c0.31018066 1.2775269 -0.47387695 2.565094 -1.7512817 2.8758545l-9.251404 2.2506714c-1.2774048 0.3107605 -2.564392 -0.47296143 -2.8745728 -1.7504883z" fill-rule="evenodd"/><path fill="#d9d9d9" d="m737.74115 313.27304l0 -50.233765l41.015625 50.233765z" fill-rule="evenodd"/><path fill="#d9d9d9" d="m759.69226 308.06143l-22.282532 -45.02188l-10.58667 61.28595z" fill-rule="evenodd"/><path fill="#d9d9d9" d="m742.3771 309.96585l0 0c-0.31018066 -1.2775269 0.47387695 -2.565094 1.7512817 -2.8758545l9.251404 -2.2506714l0 0c0.61346436 -0.14923096 1.2609253 -0.04864502 1.7999878 0.2796631c0.53912354 0.3282776 0.9256592 0.85736084 1.074585 1.4708557l6.8136597 28.06195c0.31018066 1.2775269 -0.47387695 2.565094 -1.7512817 2.8758545l-9.251465 2.2506409c-1.2774048 0.3107605 -2.564392 -0.47296143 -2.8745728 -1.7504883z" fill-rule="evenodd"/><path fill="#f3f3f3" d="m588.7806 151.05191l31.795288 -1.5433044l-16.771667 26.992126z" fill-rule="evenodd"/><path stroke="#f3f3f3" stroke-width="1.0" stroke-linejoin="round" stroke-linecap="butt" d="m588.7806 151.05191l31.795288 -1.5433044l-16.771667 26.992126z" fill-rule="evenodd"/><path fill="#ffffff" d="m646.54596 189.83989l0 0c0 -52.523575 42.578735 -95.102356 95.102356 -95.102356l0 0c25.222717 0 49.412354 10.019684 67.2475 27.854836c17.835144 17.835152 27.854858 42.02482 27.854858 67.24752l0 0c0 52.52359 -42.578796 95.10237 -95.102356 95.10237l0 0c-52.52362 0 -95.102356 -42.57878 -95.102356 -95.10237z" fill-rule="evenodd"/><path stroke="#595959" stroke-width="8.0" stroke-linejoin="round" stroke-linecap="butt" d="m646.54596 189.83989l0 0c0 -52.523575 42.578735 -95.102356 95.102356 -95.102356l0 0c25.222717 0 49.412354 10.019684 67.2475 27.854836c17.835144 17.835152 27.854858 42.02482 27.854858 67.24752l0 0c0 52.52359 -42.578796 95.10237 -95.102356 95.10237l0 0c-52.52362 0 -95.102356 -42.57878 -95.102356 -95.10237z" fill-rule="evenodd"/><path fill="#000000" fill-opacity="0.0" d="m646.54596 176.5005l190.20471 0l0 26.67717l-190.20471 0z" fill-rule="evenodd"/><path fill="#595959" d="m695.98346 178.35658q-3.265625 0 -5.1875 -2.140625q-1.921875 -2.140625 -2.21875 -5.78125l2.171875 -0.625q0.234375 3.5 1.59375 5.0625q1.375 1.5625 3.734375 1.5625q2.109375 0 3.25 -1.171875q1.15625 -1.1875 1.15625 -3.34375q0 -1.484375 -0.984375 -3.09375q-0.984375 -1.609375 -3.09375 -3.390625l-3.21875 -2.734375q-2.0625 -1.765625 -3.03125 -3.375q-0.953125 -1.609375 -0.953125 -3.671875q0 -1.921875 0.796875 -3.21875q0.796875 -1.296875 2.203125 -1.984375q1.421875 -0.703125 3.296875 -0.703125q3.109375 0 4.640625 1.96875q1.546875 1.96875 1.640625 5.28125l-1.875 0.5625q-0.046875 -2.15625 -0.59375 -3.453125q-0.546875 -1.296875 -1.484375 -1.859375q-0.9375 -0.578125 -2.1875 -0.578125q-1.828125 0 -2.953125 0.9375q-1.125 0.921875 -1.125 2.75q0 1.53125 0.59375 2.671875q0.609375 1.125 2.234375 2.609375l3.3125 2.921875q1.25 1.0625 2.390625 2.265625q1.15625 1.203125 1.90625 2.671875q0.75 1.453125 0.75 3.46875q0 2.015625 -0.84375 3.4375q-0.84375 1.40625 -2.359375 2.1875q-1.5 0.765625 -3.5625 0.765625zm17.322388 0q-2.203125 0 -3.796875 -0.890625q-1.578125 -0.890625 -2.421875 -3.21875q-0.84375 -2.328125 -0.84375 -6.59375l0 -7.390625q0 -4.375 0.859375 -6.625q0.875 -2.265625 2.484375 -3.078125q1.609375 -0.8125 3.765625 -0.8125q2.59375 0 4.078125 1.109375q1.484375 1.09375 2.109375 3.515625q0.625 2.421875 0.625 6.40625l0 2.640625l-11.375 0l0 4.421875q0 3.3125 0.453125 5.1875q0.453125 1.859375 1.46875 2.640625q1.015625 0.765625 2.59375 0.765625q1.0 0 2.0 -0.328125q1.015625 -0.34375 1.6875 -1.59375q0.671875 -1.25 0.671875 -3.890625l0 -2.0625l2.5 0l0 1.828125q0 3.546875 -1.46875 5.765625q-1.453125 2.203125 -5.390625 2.203125zm-4.515625 -16.46875l8.875 0l0 -2.15625q0 -2.5 -0.265625 -4.296875q-0.25 -1.796875 -1.171875 -2.78125q-0.90625 -0.984375 -2.875 -0.984375q-1.53125 0 -2.5625 0.65625q-1.03125 0.640625 -1.515625 2.390625q-0.484375 1.75 -0.484375 5.0625l0 2.109375zm22.660767 16.46875q-3.125 0 -4.609375 -1.46875q-1.484375 -1.46875 -1.953125 -3.90625q-0.453125 -2.453125 -0.453125 -5.484375l0 -6.515625q0 -4.09375 0.625 -6.5625q0.625 -2.46875 2.15625 -3.5625q1.546875 -1.109375 4.234375 -1.109375q2.875 0 4.34375 1.171875q1.46875 1.171875 1.9375 3.21875q0.484375 2.03125 0.484375 4.578125l0 1.109375l-2.40625 0l0 -1.109375q0 -2.828125 -0.453125 -4.34375q-0.453125 -1.515625 -1.421875 -2.109375q-0.953125 -0.59375 -2.484375 -0.59375q-1.875 0 -2.84375 0.890625q-0.953125 0.875 -1.296875 2.84375q-0.328125 1.96875 -0.328125 5.28125l0 7.203125q0 4.515625 0.890625 6.53125q0.890625 2.015625 3.625 2.015625q1.875 0 2.8125 -0.8125q0.9375 -0.828125 1.21875 -2.546875q0.28125 -1.734375 0.28125 -4.46875l0 -1.0625l2.40625 0l0 1.015625q0 2.78125 -0.4375 5.0q-0.421875 2.203125 -1.875 3.5q-1.4375 1.296875 -4.453125 1.296875zm17.953186 0q-2.734375 0 -4.25 -1.203125q-1.515625 -1.203125 -2.125 -3.546875q-0.59375 -2.359375 -0.59375 -5.8125l0 -7.484375q0 -3.46875 0.59375 -5.8125q0.609375 -2.359375 2.125 -3.546875q1.515625 -1.203125 4.25 -1.203125q2.78125 0 4.28125 1.203125q1.515625 1.1875 2.109375 3.515625q0.609375 2.328125 0.609375 5.84375l0 7.484375q0 3.453125 -0.609375 5.8125q-0.59375 2.34375 -2.109375 3.546875q-1.5 1.203125 -4.28125 1.203125zm0 -1.921875q2.015625 0 2.96875 -1.03125q0.96875 -1.03125 1.21875 -2.953125q0.265625 -1.921875 0.265625 -4.5625l0 -7.6875q0 -2.6875 -0.265625 -4.578125q-0.25 -1.890625 -1.21875 -2.921875q-0.953125 -1.03125 -2.96875 -1.03125q-2.015625 0 -2.953125 1.03125q-0.9375 1.03125 -1.203125 2.921875q-0.265625 1.890625 -0.265625 4.578125l0 7.6875q0 2.640625 0.265625 4.5625q0.265625 1.921875 1.203125 2.953125q0.9375 1.03125 2.953125 1.03125zm11.946533 1.484375l0 -27.75l2.546875 0l0 2.984375q1.296875 -1.53125 2.96875 -2.46875q1.6875 -0.9375 3.609375 -0.9375q1.25 0 2.234375 0.609375q0.984375 0.59375 1.546875 1.90625q0.578125 1.3125 0.578125 3.53125l0 22.125l-2.53125 0l0 -21.84375q0 -2.546875 -0.796875 -3.453125q-0.796875 -0.90625 -2.140625 -0.90625q-1.390625 0 -2.8125 0.84375q-1.40625 0.828125 -2.65625 2.21875l0 23.140625l-2.546875 0zm24.768005 0.4375q-3.59375 0 -5.0625 -2.765625q-1.46875 -2.765625 -1.46875 -9.046875l0 -4.9375q0 -3.9375 0.53125 -6.546875q0.53125 -2.625 1.921875 -3.96875q1.390625 -1.34375 3.9375 -1.34375q1.78125 0 3.015625 0.796875q1.25 0.78125 2.015625 1.75l0 -13.25l2.546875 0l0 38.875l-2.546875 0l0 -2.109375q-0.765625 0.90625 -1.984375 1.734375q-1.21875 0.8125 -2.90625 0.8125zm0.34375 -1.96875q1.390625 0 2.5625 -0.71875q1.171875 -0.71875 1.984375 -1.640625l0 -19.921875q-0.765625 -0.765625 -1.9375 -1.578125q-1.171875 -0.8125 -2.65625 -0.8125q-2.640625 0 -3.46875 2.203125q-0.8125 2.203125 -0.8125 7.0625l0 5.75q0 3.359375 0.359375 5.5q0.359375 2.140625 1.296875 3.15625q0.9375 1.0 2.671875 1.0z" fill-rule="nonzero"/><path fill="#595959" d="m707.2306 235.91908l0 -27.75l2.546875 0l0 2.984375q1.296875 -1.53125 2.96875 -2.46875q1.6875 -0.9375 3.609375 -0.9375q1.25 0 2.234375 0.609375q0.984375 0.59375 1.546875 1.90625q0.578125 1.3125 0.578125 3.53125l0 22.125l-2.53125 0l0 -21.84375q0 -2.546875 -0.796875 -3.453125q-0.796875 -0.90625 -2.140625 -0.90625q-1.390625 0 -2.8125 0.84375q-1.40625 0.828125 -2.65625 2.21875l0 23.140625l-2.546875 0zm25.205566 0.4375q-2.734375 0 -4.25 -1.203125q-1.515625 -1.203125 -2.125 -3.546875q-0.59375 -2.359375 -0.59375 -5.8125l0 -7.484375q0 -3.46875 0.59375 -5.8125q0.609375 -2.359375 2.125 -3.546875q1.515625 -1.203125 4.25 -1.203125q2.78125 0 4.28125 1.203125q1.515625 1.1875 2.109375 3.515625q0.609375 2.328125 0.609375 5.84375l0 7.484375q0 3.453125 -0.609375 5.8125q-0.59375 2.34375 -2.109375 3.546875q-1.5 1.203125 -4.28125 1.203125zm0 -1.921875q2.015625 0 2.96875 -1.03125q0.96875 -1.03125 1.21875 -2.953125q0.265625 -1.921875 0.265625 -4.5625l0 -7.6875q0 -2.6875 -0.265625 -4.578125q-0.25 -1.890625 -1.21875 -2.921875q-0.953125 -1.03125 -2.96875 -1.03125q-2.015625 0 -2.953125 1.03125q-0.9375 1.03125 -1.203125 2.921875q-0.265625 1.890625 -0.265625 4.578125l0 7.6875q0 2.640625 0.265625 4.5625q0.265625 1.921875 1.203125 2.953125q0.9375 1.03125 2.953125 1.03125zm17.946533 1.921875q-3.59375 0 -5.0625 -2.765625q-1.46875 -2.765625 -1.46875 -9.046875l0 -4.9375q0 -3.9375 0.53125 -6.546875q0.53125 -2.625 1.921875 -3.96875q1.390625 -1.34375 3.9375 -1.34375q1.78125 0 3.015625 0.796875q1.25 0.78125 2.015625 1.75l0 -13.25l2.546875 0l0 38.875l-2.546875 0l0 -2.109375q-0.765625 0.90625 -1.984375 1.734375q-1.21875 0.8125 -2.90625 0.8125zm0.34375 -1.96875q1.390625 0 2.5625 -0.71875q1.171875 -0.71875 1.984375 -1.640625l0 -19.921875q-0.765625 -0.765625 -1.9375 -1.578125q-1.171875 -0.8125 -2.65625 -0.8125q-2.640625 0 -3.46875 2.203125q-0.8125 2.203125 -0.8125 7.0625l0 5.75q0 3.359375 0.359375 5.5q0.359375 2.140625 1.296875 3.15625q0.9375 1.0 2.671875 1.0zm19.147522 1.96875q-2.203125 0 -3.796875 -0.890625q-1.578125 -0.890625 -2.421875 -3.21875q-0.84375 -2.328125 -0.84375 -6.59375l0 -7.390625q0 -4.375 0.859375 -6.625q0.875 -2.265625 2.484375 -3.078125q1.609375 -0.8125 3.765625 -0.8125q2.59375 0 4.078125 1.109375q1.484375 1.09375 2.109375 3.515625q0.625 2.421875 0.625 6.40625l0 2.640625l-11.375 0l0 4.421875q0 3.3125 0.453125 5.1875q0.453125 1.859375 1.46875 2.640625q1.015625 0.765625 2.59375 0.765625q1.0 0 2.0 -0.328125q1.015625 -0.34375 1.6875 -1.59375q0.671875 -1.25 0.671875 -3.890625l0 -2.0625l2.5 0l0 1.828125q0 3.546875 -1.46875 5.765625q-1.453125 2.203125 -5.390625 2.203125zm-4.515625 -16.46875l8.875 0l0 -2.15625q0 -2.5 -0.265625 -4.296875q-0.25 -1.796875 -1.171875 -2.78125q-0.90625 -0.984375 -2.875 -0.984375q-1.53125 0 -2.5625 0.65625q-1.03125 0.640625 -1.515625 2.390625q-0.484375 1.75 -0.484375 5.0625l0 2.109375z" fill-rule="nonzero"/><path fill="#595959" d="m752.8499 316.79077l0 -44.802063l36.57135 44.802063z" fill-rule="evenodd"/><path stroke="#595959" stroke-width="1.0" stroke-linejoin="round" stroke-linecap="butt" d="m752.8499 316.79077l0 -44.802063l36.57135 44.802063z" fill-rule="evenodd"/><path fill="#595959" d="m772.42255 312.14267l-19.868103 -40.153717l-9.439514 54.65915z" fill-rule="evenodd"/><path stroke="#595959" stroke-width="1.0" stroke-linejoin="round" stroke-linecap="butt" d="m772.42255 312.14267l-19.868103 -40.153717l-9.439514 54.65915z" fill-rule="evenodd"/><path fill="#595959" d="m756.98346 313.8407l0 0c-0.2765503 -1.1391296 0.42260742 -2.287262 1.5615845 -2.5644226l8.248962 -2.0072937l0 0c0.5469971 -0.13308716 1.1242676 -0.043426514 1.6049194 0.24926758c0.48065186 0.2926941 0.8253174 0.7644348 0.95806885 1.3114624l6.0755615 25.028595c0.27648926 1.1391296 -0.42266846 2.287262 -1.5616455 2.5644226l-8.248962 2.0072937c-1.138977 0.27716064 -2.286438 -0.42160034 -2.5629883 -1.56073z" fill-rule="evenodd"/><path stroke="#595959" stroke-width="1.0" stroke-linejoin="round" stroke-linecap="butt" d="m756.98346 313.8407l0 0c-0.2765503 -1.1391296 0.42260742 -2.287262 1.5615845 -2.5644226l8.248962 -2.0072937l0 0c0.5469971 -0.13308716 1.1242676 -0.043426514 1.6049194 0.24926758c0.48065186 0.2926941 0.8253174 0.7644348 0.95806885 1.3114624l6.0755615 25.028595c0.27648926 1.1391296 -0.42266846 2.287262 -1.5616455 2.5644226l-8.248962 2.0072937c-1.138977 0.27716064 -2.286438 -0.42160034 -2.5629883 -1.56073z" fill-rule="evenodd"/><path fill="#000000" fill-opacity="0.0" d="m135.41995 449.23883l34.204712 0l0 89.7323l-34.204712 0z" fill-rule="evenodd"/><path fill="#f3f3f3" d="m14.097113 474.87158l0 0c0 -5.31131 4.3056736 -9.616974 9.616991 -9.616974l102.08885 0c2.5505905 0 4.9967117 1.0132141 6.8002396 2.816742c1.8035431 1.8035278 2.8167572 4.249634 2.8167572 6.800232l0 38.466797c0 5.3113403 -4.3056793 9.617004 -9.616997 9.617004l-102.08885 0c-5.3113174 0 -9.616991 -4.305664 -9.616991 -9.617004z" fill-rule="evenodd"/><path stroke="#595959" stroke-width="1.0" stroke-linejoin="round" stroke-linecap="butt" d="m14.097113 474.87158l0 0c0 -5.31131 4.3056736 -9.616974 9.616991 -9.616974l102.08885 0c2.5505905 0 4.9967117 1.0132141 6.8002396 2.816742c1.8035431 1.8035278 2.8167572 4.249634 2.8167572 6.800232l0 38.466797c0 5.3113403 -4.3056793 9.617004 -9.616997 9.617004l-102.08885 0c-5.3113174 0 -9.616991 -4.305664 -9.616991 -9.617004z" fill-rule="evenodd"/><path fill="#595959" d="m58.611107 506.10623q-2.078125 0 -3.078125 -0.96875q-0.984375 -0.96875 -1.296875 -2.59375q-0.296875 -1.640625 -0.296875 -3.65625l0 -4.359375q0 -2.71875 0.40625 -4.359375q0.421875 -1.65625 1.453125 -2.390625q1.03125 -0.734375 2.8125 -0.734375q1.921875 0 2.890625 0.78125q0.984375 0.78125 1.296875 2.140625q0.328125 1.359375 0.328125 3.0625l0 0.734375l-1.59375 0l0 -0.734375q0 -1.890625 -0.3125 -2.890625q-0.296875 -1.015625 -0.9375 -1.40625q-0.640625 -0.40625 -1.671875 -0.40625q-1.25 0 -1.890625 0.59375q-0.640625 0.59375 -0.859375 1.90625q-0.21875 1.296875 -0.21875 3.515625l0 4.796875q0 3.0 0.59375 4.359375q0.59375 1.34375 2.40625 1.34375q1.25 0 1.875 -0.546875q0.625 -0.546875 0.8125 -1.703125q0.203125 -1.15625 0.203125 -2.96875l0 -0.703125l1.59375 0l0 0.671875q0 1.84375 -0.296875 3.328125q-0.28125 1.46875 -1.25 2.328125q-0.953125 0.859375 -2.96875 0.859375zm7.6875305 -0.28125l0 -18.5l1.59375 0l0 1.953125q0.890625 -1.078125 2.015625 -1.671875q1.125 -0.59375 2.34375 -0.59375q0.921875 0 1.734375 0.515625q0.828125 0.5 1.140625 1.9375q0.921875 -1.171875 2.078125 -1.8125q1.15625 -0.640625 2.4375 -0.640625q0.765625 0 1.46875 0.359375q0.703125 0.34375 1.140625 1.265625q0.453125 0.90625 0.453125 2.5625l0 14.625l-1.625 0l0 -14.65625q0 -1.796875 -0.578125 -2.359375q-0.578125 -0.578125 -1.40625 -0.578125q-1.0 0 -2.0 0.59375q-0.984375 0.578125 -1.84375 1.578125q0.03125 0.15625 0.046875 0.375q0.015625 0.203125 0.015625 0.421875l0 14.625l-1.625 0l0 -14.65625q0 -1.796875 -0.578125 -2.359375q-0.578125 -0.578125 -1.40625 -0.578125q-0.96875 0 -1.96875 0.59375q-0.984375 0.578125 -1.84375 1.546875l0 15.453125l-1.59375 0zm23.936035 0.28125q-2.40625 0 -3.390625 -1.828125q-0.96875 -1.84375 -0.96875 -6.03125l0 -3.296875q0 -2.625 0.34375 -4.359375q0.359375 -1.75 1.28125 -2.640625q0.9375 -0.90625 2.640625 -0.90625q1.171875 0 2.0 0.53125q0.84375 0.515625 1.359375 1.15625l0 -8.828125l1.6875 0l0 25.921875l-1.6875 0l0 -1.40625q-0.515625 0.609375 -1.34375 1.15625q-0.8125 0.53125 -1.921875 0.53125zm0.21875 -1.3125q0.921875 0 1.703125 -0.46875q0.796875 -0.484375 1.34375 -1.09375l0 -13.28125q-0.515625 -0.515625 -1.296875 -1.046875q-0.78125 -0.546875 -1.78125 -0.546875q-1.765625 0 -2.3125 1.46875q-0.53125 1.46875 -0.53125 4.703125l0 3.84375q0 2.234375 0.234375 3.65625q0.234375 1.421875 0.859375 2.09375q0.625 0.671875 1.78125 0.671875z" fill-rule="nonzero"/><path fill="#f3f3f3" d="m176.75066 474.87158l0 0c0 -5.31131 4.3056793 -9.616974 9.616989 -9.616974l102.08887 0c2.5505676 0 4.996704 1.0132141 6.800232 2.816742c1.8035278 1.8035278 2.816742 4.249634 2.816742 6.800232l0 38.466797c0 5.3113403 -4.305664 9.617004 -9.616974 9.617004l-102.08887 0c-5.31131 0 -9.616989 -4.305664 -9.616989 -9.617004z" fill-rule="evenodd"/><path stroke="#595959" stroke-width="1.0" stroke-linejoin="round" stroke-linecap="butt" d="m176.75066 474.87158l0 0c0 -5.31131 4.3056793 -9.616974 9.616989 -9.616974l102.08887 0c2.5505676 0 4.996704 1.0132141 6.800232 2.816742c1.8035278 1.8035278 2.816742 4.249634 2.816742 6.800232l0 38.466797c0 5.3113403 -4.305664 9.617004 -9.616974 9.617004l-102.08887 0c-5.31131 0 -9.616989 -4.305664 -9.616989 -9.617004z" fill-rule="evenodd"/><path fill="#595959" d="m226.03229 506.18436q-2.5625 0 -3.921875 -1.0625q-1.359375 -1.0625 -1.875 -2.828125q-0.5 -1.78125 -0.5 -3.921875l0 -11.015625q0 -2.234375 0.53125 -3.96875q0.546875 -1.75 1.921875 -2.75q1.390625 -1.015625 3.84375 -1.015625q2.28125 0 3.546875 0.890625q1.28125 0.890625 1.828125 2.546875q0.546875 1.640625 0.546875 3.859375l0 1.3125l-1.65625 0l0 -1.3125q0 -1.859375 -0.359375 -3.15625q-0.34375 -1.296875 -1.28125 -2.0q-0.921875 -0.703125 -2.625 -0.703125q-1.859375 0 -2.859375 0.765625q-0.984375 0.765625 -1.34375 2.140625q-0.34375 1.375 -0.34375 3.203125l0 11.453125q0 1.921875 0.390625 3.28125q0.390625 1.359375 1.375 2.09375q1.0 0.734375 2.78125 0.734375q1.734375 0 2.65625 -0.734375q0.9375 -0.734375 1.265625 -2.0625q0.34375 -1.328125 0.34375 -3.078125l0 -1.578125l1.65625 0l0 1.28125q0 2.203125 -0.515625 3.9375q-0.5 1.734375 -1.78125 2.71875q-1.28125 0.96875 -3.625 0.96875zm13.3824005 -0.171875q-1.28125 0 -1.921875 -0.5q-0.640625 -0.515625 -0.84375 -1.375q-0.1875 -0.875 -0.1875 -1.953125l0 -13.734375l-2.421875 0l0 -1.125l2.421875 0l0 -5.921875l1.703125 0l0 5.921875l3.140625 0l0 1.125l-3.140625 0l0 13.5q0 1.5 0.28125 2.109375q0.296875 0.609375 1.3125 0.609375q0.328125 0 0.6875 -0.046875q0.375 -0.046875 0.6875 -0.109375l0 1.3125q-0.375 0.09375 -0.859375 0.140625q-0.484375 0.046875 -0.859375 0.046875zm4.5722656 -0.1875l0 -18.5l1.703125 0l0 2.5q0.828125 -1.375 2.0625 -2.03125q1.234375 -0.65625 2.3125 -0.65625q0.0625 0 0.140625 0q0.09375 0 0.1875 0.03125l0 1.765625q-0.140625 -0.0625 -0.34375 -0.078125q-0.203125 -0.015625 -0.359375 -0.015625q-1.28125 0 -2.296875 0.609375q-1.0 0.59375 -1.703125 1.75l0 14.625l-1.703125 0zm9.149765 0l0 -25.921875l1.703125 0l0 25.921875l-1.703125 0z" fill-rule="nonzero"/><path fill="#000000" fill-opacity="0.0" d="m135.41995 449.23883l34.204712 0l0 89.7323l-34.204712 0z" fill-rule="evenodd"/><path fill="#595959" d="m145.7637 517.045l15.296875 -51.84375l3.0 0l-15.21875 51.84375l-3.078125 0z" fill-rule="nonzero"/></g></svg>