<svg version="1.1" viewBox="0.0 0.0 960.0 540.0" fill="none" stroke="none" stroke-linecap="square" stroke-miterlimit="10" xmlns:xlink="http://www.w3.org/1999/xlink" xmlns="http://www.w3.org/2000/svg"><clipPath id="g5b8017f6a7_0_0.0"><path d="m0 0l960.0 0l0 540.0l-960.0 0l0 -540.0z" clip-rule="nonzero"/></clipPath><g clip-path="url(#g5b8017f6a7_0_0.0)"><path fill="#ffffff" d="m0 0l960.0 0l0 540.0l-960.0 0z" fill-rule="evenodd"/><path fill="#000000" fill-opacity="0.0" d="m510.13745 122.16444l0 0c44.97821 -8.36998 91.43921 1.4703751 129.16205 27.3563c37.7229 25.885925 63.617554 65.69699 71.98755 110.675186l-169.59058 31.559082z" fill-rule="evenodd"/><path fill="#000000" fill-opacity="0.0" d="m510.13745 122.16444l0 0c44.97821 -8.36998 91.43921 1.4703751 129.16205 27.3563c37.7229 25.885925 63.617554 65.69699 71.98755 110.675186" fill-rule="evenodd"/><path stroke="#595959" stroke-width="4.0" stroke-linejoin="round" stroke-linecap="butt" d="m510.13745 122.16444l0 0c44.97821 -8.36998 91.43921 1.4703751 129.16205 27.3563c37.7229 25.885925 63.617554 65.69699 71.98755 110.675186" fill-rule="evenodd"/><path fill="#000000" fill-opacity="0.0" d="m497.1773 152.80357l161.03937 117.511795" fill-rule="evenodd"/><path stroke="#595959" stroke-width="4.0" stroke-linejoin="round" stroke-linecap="butt" d="m497.1773 152.80357l161.03937 117.511795" fill-rule="evenodd"/><path fill="#ffffff" d="m385.11462 137.06287l0 0c-8.471252 -32.745712 11.207062 -66.15866 43.95276 -74.62993l0 0c15.725037 -4.0680428 32.42206 -1.7227249 46.417877 6.5200195c13.995819 8.242737 24.144012 21.707695 28.212036 37.43274l0 0c8.471283 32.745697 -11.207031 66.15866 -43.95273 74.62991l0 0c-32.745728 8.471268 -66.15866 -11.2070465 -74.629944 -43.952744z" fill-rule="evenodd"/><path stroke="#595959" stroke-width="4.0" stroke-linejoin="round" stroke-linecap="butt" d="m385.11462 137.06287l0 0c-8.471252 -32.745712 11.207062 -66.15866 43.95276 -74.62993l0 0c15.725037 -4.0680428 32.42206 -1.7227249 46.417877 6.5200195c13.995819 8.242737 24.144012 21.707695 28.212036 37.43274l0 0c8.471283 32.745697 -11.207031 66.15866 -43.95273 74.62991l0 0c-32.745728 8.471268 -66.15866 -11.2070465 -74.629944 -43.952744z" fill-rule="evenodd"/><path fill="#ffffff" d="m663.7483 334.44473l0 0c-8.471252 -32.745728 11.207092 -66.15866 43.95276 -74.629944l0 0c15.725037 -4.068039 32.42206 -1.7227173 46.417908 6.5200195c13.995789 8.242737 24.143982 21.707703 28.212036 37.43274l0 0c8.471252 32.745697 -11.207092 66.15866 -43.95276 74.629944l0 0c-32.745728 8.471252 -66.15869 -11.207062 -74.629944 -43.95276z" fill-rule="evenodd"/><path stroke="#595959" stroke-width="4.0" stroke-linejoin="round" stroke-linecap="butt" d="m663.7483 334.44473l0 0c-8.471252 -32.745728 11.207092 -66.15866 43.95276 -74.629944l0 0c15.725037 -4.068039 32.42206 -1.7227173 46.417908 6.5200195c13.995789 8.242737 24.143982 21.707703 28.212036 37.43274l0 0c8.471252 32.745697 -11.207092 66.15866 -43.95276 74.629944l0 0c-32.745728 8.471252 -66.15869 -11.207062 -74.629944 -43.95276z" fill-rule="evenodd"/><path fill="#000000" fill-opacity="0.0" d="m661.8002 310.49063l122.48822 0l0 17.196838l-122.48822 0z" fill-rule="evenodd"/><path fill="#595959" d="m710.67755 327.62906l0 -19.4375l6.71875 0l0 1.046875l-5.40625 0l0 7.8125l4.4375 0l0 1.0l-4.4375 0l0 8.546875l5.46875 0l0 1.03125l-6.78125 0zm9.025757 0l0 -13.875l1.265625 0l0 1.484375q0.640625 -0.765625 1.484375 -1.234375q0.84375 -0.46875 1.796875 -0.46875q0.625 0 1.109375 0.3125q0.5 0.296875 0.78125 0.953125q0.296875 0.65625 0.296875 1.765625l0 11.0625l-1.265625 0l0 -10.921875q0 -1.265625 -0.40625 -1.71875q-0.390625 -0.46875 -1.0625 -0.46875q-0.6875 0 -1.40625 0.421875q-0.703125 0.421875 -1.328125 1.125l0 11.5625l-1.265625 0zm12.383972 0.21875q-1.8125 0 -2.546875 -1.375q-0.71875 -1.390625 -0.71875 -4.53125l0 -2.46875q0 -1.96875 0.25 -3.28125q0.265625 -1.3125 0.96875 -1.984375q0.703125 -0.671875 1.96875 -0.671875q0.890625 0 1.515625 0.40625q0.625 0.390625 1.0 0.875l0 -6.625l1.28125 0l0 19.4375l-1.28125 0l0 -1.0625q-0.375 0.46875 -1.0 0.875q-0.609375 0.40625 -1.4375 0.40625zm0.15625 -0.984375q0.703125 0 1.28125 -0.359375q0.59375 -0.359375 1.0 -0.8125l0 -9.96875q-0.375 -0.375 -0.96875 -0.78125q-0.59375 -0.421875 -1.328125 -0.421875q-1.328125 0 -1.734375 1.109375q-0.40625 1.109375 -0.40625 3.53125l0 2.875q0 1.6875 0.171875 2.75q0.1875 1.0625 0.65625 1.578125q0.46875 0.5 1.328125 0.5z" fill-rule="nonzero"/><path fill="#000000" fill-opacity="0.0" d="m383.1665 113.10877l122.48819 0l0 17.196846l-122.48819 0z" fill-rule="evenodd"/><path fill="#595959" d="m396.71487 130.2472l0 -19.4375l1.296875 0l0 19.4375l-1.296875 0zm4.4908447 0l0 -13.875l1.265625 0l0 1.484375q0.640625 -0.765625 1.484375 -1.234375q0.84375 -0.46875 1.796875 -0.46875q0.625 0 1.109375 0.3125q0.5 0.296875 0.78125 0.953125q0.296875 0.65625 0.296875 1.765625l0 11.0625l-1.265625 0l0 -10.921875q0 -1.265625 -0.40625 -1.71875q-0.390625 -0.46875 -1.0625 -0.46875q-0.6875 0 -1.40625 0.421875q-0.703125 0.421875 -1.328125 1.125l0 11.5625l-1.265625 0zm12.430847 0.140625q-0.96875 0 -1.453125 -0.375q-0.46875 -0.390625 -0.625 -1.03125q-0.140625 -0.65625 -0.140625 -1.46875l0 -10.296875l-1.8125 0l0 -0.84375l1.8125 0l0 -4.4375l1.28125 0l0 4.4375l2.34375 0l0 0.84375l-2.34375 0l0 10.125q0 1.125 0.203125 1.59375q0.21875 0.453125 1.0 0.453125q0.234375 0 0.5 -0.03125q0.28125 -0.046875 0.53125 -0.09375l0 0.984375q-0.296875 0.078125 -0.65625 0.109375q-0.359375 0.03125 -0.640625 0.03125zm6.515106 0.078125q-1.09375 0 -1.890625 -0.4375q-0.796875 -0.453125 -1.21875 -1.609375q-0.40625 -1.171875 -0.40625 -3.3125l0 -3.6875q0 -2.1875 0.421875 -3.3125q0.4375 -1.125 1.234375 -1.53125q0.8125 -0.421875 1.890625 -0.421875q1.296875 0 2.03125 0.5625q0.75 0.546875 1.0625 1.765625q0.3125 1.203125 0.3125 3.203125l0 1.3125l-5.6875 0l0 2.203125q0 1.65625 0.21875 2.59375q0.234375 0.9375 0.734375 1.328125q0.515625 0.375 1.296875 0.375q0.515625 0 1.015625 -0.15625q0.5 -0.171875 0.828125 -0.796875q0.34375 -0.625 0.34375 -1.9375l0 -1.046875l1.25 0l0 0.921875q0 1.78125 -0.734375 2.890625q-0.734375 1.09375 -2.703125 1.09375zm-2.25 -8.234375l4.4375 0l0 -1.078125q0 -1.25 -0.140625 -2.140625q-0.125 -0.90625 -0.578125 -1.390625q-0.453125 -0.5 -1.4375 -0.5q-0.765625 0 -1.28125 0.328125q-0.515625 0.3125 -0.765625 1.1875q-0.234375 0.875 -0.234375 2.53125l0 1.0625zm8.252228 8.015625l0 -13.875l1.28125 0l0 1.875q0.625 -1.03125 1.546875 -1.515625q0.921875 -0.5 1.734375 -0.5q0.046875 0 0.109375 0q0.0625 0 0.140625 0.03125l0 1.3125q-0.109375 -0.046875 -0.265625 -0.0625q-0.15625 -0.015625 -0.265625 -0.015625q-0.96875 0 -1.71875 0.46875q-0.75 0.453125 -1.28125 1.3125l0 10.96875l-1.28125 0zm6.635742 0l0 -13.875l1.1875 0l0 1.46875q0.671875 -0.8125 1.515625 -1.25q0.84375 -0.453125 1.75 -0.453125q0.703125 0 1.3125 0.390625q0.609375 0.375 0.84375 1.453125q0.703125 -0.890625 1.5625 -1.359375q0.875 -0.484375 1.828125 -0.484375q0.578125 0 1.109375 0.265625q0.53125 0.265625 0.859375 0.953125q0.34375 0.671875 0.34375 1.921875l0 10.96875l-1.234375 0l0 -10.984375q0 -1.359375 -0.4375 -1.78125q-0.421875 -0.4375 -1.046875 -0.4375q-0.75 0 -1.5 0.453125q-0.734375 0.4375 -1.375 1.1875q0.015625 0.109375 0.03125 0.265625q0.015625 0.15625 0.015625 0.328125l0 10.96875l-1.234375 0l0 -10.984375q0 -1.359375 -0.4375 -1.78125q-0.421875 -0.4375 -1.046875 -0.4375q-0.71875 0 -1.46875 0.453125q-0.734375 0.4375 -1.390625 1.15625l0 11.59375l-1.1875 0zm18.201935 0.21875q-1.09375 0 -1.890625 -0.4375q-0.796875 -0.453125 -1.21875 -1.609375q-0.40625 -1.171875 -0.40625 -3.3125l0 -3.6875q0 -2.1875 0.421875 -3.3125q0.4375 -1.125 1.234375 -1.53125q0.8125 -0.421875 1.890625 -0.421875q1.296875 0 2.03125 0.5625q0.75 0.546875 1.0625 1.765625q0.3125 1.203125 0.3125 3.203125l0 1.3125l-5.6875 0l0 2.203125q0 1.65625 0.21875 2.59375q0.234375 0.9375 0.734375 1.328125q0.515625 0.375 1.296875 0.375q0.515625 0 1.015625 -0.15625q0.5 -0.171875 0.828125 -0.796875q0.34375 -0.625 0.34375 -1.9375l0 -1.046875l1.25 0l0 0.921875q0 1.78125 -0.734375 2.890625q-0.734375 1.09375 -2.703125 1.09375zm-2.25 -8.234375l4.4375 0l0 -1.078125q0 -1.25 -0.140625 -2.140625q-0.125 -0.90625 -0.578125 -1.390625q-0.453125 -0.5 -1.4375 -0.5q-0.765625 0 -1.28125 0.328125q-0.515625 0.3125 -0.765625 1.1875q-0.234375 0.875 -0.234375 2.53125l0 1.0625zm11.095978 8.234375q-1.8125 0 -2.546875 -1.375q-0.71875 -1.390625 -0.71875 -4.53125l0 -2.46875q0 -1.96875 0.25 -3.28125q0.265625 -1.3125 0.96875 -1.984375q0.703125 -0.671875 1.96875 -0.671875q0.890625 0 1.515625 0.40625q0.625 0.390625 1.0 0.875l0 -6.625l1.28125 0l0 19.4375l-1.28125 0l0 -1.0625q-0.375 0.46875 -1.0 0.875q-0.609375 0.40625 -1.4375 0.40625zm0.15625 -0.984375q0.703125 0 1.28125 -0.359375q0.59375 -0.359375 1.0 -0.8125l0 -9.96875q-0.375 -0.375 -0.96875 -0.78125q-0.59375 -0.421875 -1.328125 -0.421875q-1.328125 0 -1.734375 1.109375q-0.40625 1.109375 -0.40625 3.53125l0 2.875q0 1.6875 0.171875 2.75q0.1875 1.0625 0.65625 1.578125q0.46875 0.5 1.328125 0.5zm6.5112305 0.765625l0 -13.875l1.296875 0l0 13.875l-1.296875 0zm0 -15.703125l0 -2.203125l1.296875 0l0 2.203125l-1.296875 0zm6.676605 15.921875q-0.84375 0 -1.46875 -0.375q-0.625 -0.390625 -0.984375 -1.078125q-0.34375 -0.6875 -0.34375 -1.578125q0 -0.890625 0.234375 -1.546875q0.234375 -0.65625 0.828125 -1.234375q0.59375 -0.578125 1.703125 -1.203125q1.125 -0.640625 2.90625 -1.484375l0 -0.984375q0 -1.515625 -0.1875 -2.34375q-0.171875 -0.84375 -0.59375 -1.171875q-0.421875 -0.34375 -1.140625 -0.34375q-0.546875 0 -1.0625 0.1875q-0.5 0.1875 -0.828125 0.765625q-0.3125 0.5625 -0.3125 1.65625l0 0.359375l-1.25 0q0 -1.984375 0.796875 -2.953125q0.8125 -0.984375 2.703125 -0.984375q1.75 0 2.4375 1.109375q0.703125 1.109375 0.703125 3.578125l0 6.984375q0 0.1875 0.015625 0.734375q0.015625 0.53125 0.015625 1.046875q0.015625 0.5 0.046875 0.640625l-1.109375 0q-0.046875 -0.5 -0.125 -1.046875q-0.0625 -0.5625 -0.09375 -0.796875q-0.3125 0.859375 -1.078125 1.46875q-0.765625 0.59375 -1.8125 0.59375zm0.3125 -1.0625q0.59375 0 1.0625 -0.265625q0.484375 -0.28125 0.875 -0.71875q0.390625 -0.453125 0.625 -0.953125l0 -4.5625q-1.28125 0.671875 -2.140625 1.15625q-0.84375 0.46875 -1.34375 0.90625q-0.484375 0.4375 -0.703125 0.984375q-0.203125 0.53125 -0.203125 1.296875q0 1.25 0.578125 1.703125q0.578125 0.453125 1.25 0.453125zm9.454224 0.984375q-0.96875 0 -1.453125 -0.375q-0.46875 -0.390625 -0.625 -1.03125q-0.140625 -0.65625 -0.140625 -1.46875l0 -10.296875l-1.8125 0l0 -0.84375l1.8125 0l0 -4.4375l1.28125 0l0 4.4375l2.34375 0l0 0.84375l-2.34375 0l0 10.125q0 1.125 0.203125 1.59375q0.21875 0.453125 1.0 0.453125q0.234375 0 0.5 -0.03125q0.28125 -0.046875 0.53125 -0.09375l0 0.984375q-0.296875 0.078125 -0.65625 0.109375q-0.359375 0.03125 -0.640625 0.03125zm6.515106 0.078125q-1.09375 0 -1.890625 -0.4375q-0.796875 -0.453125 -1.21875 -1.609375q-0.40625 -1.171875 -0.40625 -3.3125l0 -3.6875q0 -2.1875 0.421875 -3.3125q0.4375 -1.125 1.234375 -1.53125q0.8125 -0.421875 1.890625 -0.421875q1.296875 0 2.03125 0.5625q0.75 0.546875 1.0625 1.765625q0.3125 1.203125 0.3125 3.203125l0 1.3125l-5.6875 0l0 2.203125q0 1.65625 0.21875 2.59375q0.234375 0.9375 0.734375 1.328125q0.515625 0.375 1.296875 0.375q0.515625 0 1.015625 -0.15625q0.5 -0.171875 0.828125 -0.796875q0.34375 -0.625 0.34375 -1.9375l0 -1.046875l1.25 0l0 0.921875q0 1.78125 -0.734375 2.890625q-0.734375 1.09375 -2.703125 1.09375zm-2.25 -8.234375l4.4375 0l0 -1.078125q0 -1.25 -0.140625 -2.140625q-0.125 -0.90625 -0.578125 -1.390625q-0.453125 -0.5 -1.4375 -0.5q-0.765625 0 -1.28125 0.328125q-0.515625 0.3125 -0.765625 1.1875q-0.234375 0.875 -0.234375 2.53125l0 1.0625z" fill-rule="nonzero"/><path fill="#595959" d="m524.275 131.89282l-25.086609 -8.267715l21.086609 -15.889763z" fill-rule="evenodd"/><path fill="#000000" fill-opacity="0.0" d="m587.65454 113.107956l164.03156 0l0 22.992126l-164.03156 0z" fill-rule="evenodd"/><path fill="#595959" d="m656.4499 133.36276q-0.890625 0 -1.53125 -0.453125q-0.625 -0.46875 -1.015625 -0.921875l0 1.15625l-1.265625 0l0 -19.437492l1.265625 0l0 6.734375q0.390625 -0.5 1.046875 -0.9375q0.65625 -0.453125 1.609375 -0.453125q0.96875 0 1.578125 0.40625q0.609375 0.390625 0.953125 1.15625q0.359375 0.75 0.484375 1.8125q0.140625 1.046875 0.140625 2.34375l0 2.65625q0 1.9531174 -0.3125 3.2812424q-0.296875 1.3125 -1.0 1.984375q-0.703125 0.671875 -1.953125 0.671875zm-0.171875 -0.984375q0.890625 0 1.34375 -0.515625q0.453125 -0.515625 0.625 -1.609375q0.171875 -1.09375 0.171875 -2.7656174l0 -2.71875q0 -1.65625 -0.15625 -2.703125q-0.15625 -1.046875 -0.609375 -1.53125q-0.4375 -0.5 -1.34375 -0.5q-0.78125 0 -1.40625 0.453125q-0.609375 0.4375 -1.0 0.84375l0 9.796867q0.40625 0.484375 1.015625 0.875q0.609375 0.375 1.359375 0.375zm8.215454 0.984375q-0.84375 0 -1.46875 -0.375q-0.625 -0.390625 -0.984375 -1.078125q-0.34375 -0.6875 -0.34375 -1.578125q0 -0.890625 0.234375 -1.546875q0.234375 -0.65625 0.828125 -1.2343674q0.59375 -0.578125 1.703125 -1.203125q1.125 -0.640625 2.90625 -1.484375l0 -0.984375q0 -1.515625 -0.1875 -2.34375q-0.171875 -0.84375 -0.59375 -1.171875q-0.421875 -0.34375 -1.140625 -0.34375q-0.546875 0 -1.0625 0.1875q-0.5 0.1875 -0.828125 0.765625q-0.3125 0.5625 -0.3125 1.65625l0 0.359375l-1.25 0q0 -1.984375 0.796875 -2.953125q0.8125 -0.984375 2.703125 -0.984375q1.75 0 2.4375 1.109375q0.703125 1.109375 0.703125 3.578125l0 6.9843674q0 0.1875 0.015625 0.734375q0.015625 0.53125 0.015625 1.046875q0.015625 0.5 0.046875 0.640625l-1.109375 0q-0.046875 -0.5 -0.125 -1.046875q-0.0625 -0.5625 -0.09375 -0.796875q-0.3125 0.859375 -1.078125 1.46875q-0.765625 0.59375 -1.8125 0.59375zm0.3125 -1.0625q0.59375 0 1.0625 -0.265625q0.484375 -0.28125 0.875 -0.71875q0.390625 -0.453125 0.625 -0.953125l0 -4.5624924q-1.28125 0.671875 -2.140625 1.15625q-0.84375 0.46875 -1.34375 0.90625q-0.484375 0.43749237 -0.703125 0.9843674q-0.203125 0.53125 -0.203125 1.296875q0 1.25 0.578125 1.703125q0.578125 0.453125 1.25 0.453125zm9.689697 1.0625q-1.5625 0 -2.3125 -0.734375q-0.734375 -0.734375 -0.96875 -1.953125q-0.21875 -1.234375 -0.21875 -2.7343674l0 -3.265625q0 -2.046875 0.3125 -3.28125q0.3125 -1.234375 1.078125 -1.78125q0.765625 -0.5625 2.109375 -0.5625q1.4375 0 2.171875 0.59375q0.734375 0.59375 0.96875 1.609375q0.234375 1.015625 0.234375 2.296875l0 0.546875l-1.1875 0l0 -0.546875q0 -1.421875 -0.234375 -2.171875q-0.21875 -0.765625 -0.703125 -1.0625q-0.484375 -0.296875 -1.25 -0.296875q-0.9375 0 -1.421875 0.453125q-0.46875 0.4375 -0.640625 1.421875q-0.171875 0.984375 -0.171875 2.640625l0 3.5937424q0 2.25 0.4375 3.265625q0.453125 1.0 1.8125 1.0q0.9375 0 1.40625 -0.40625q0.46875 -0.40625 0.609375 -1.265625q0.15625 -0.859375 0.15625 -2.234375l0 -0.5312424l1.1875 0l0 0.49999237q0 1.40625 -0.21875 2.515625q-0.203125 1.09375 -0.921875 1.75q-0.71875 0.640625 -2.234375 0.640625zm5.765625 -0.21875l0 -19.437492l1.265625 0l0 12.8125l5.15625 -7.25l1.375 0l-3.65625 5.3125l3.453125 8.562492l-1.28125 0l-3.125 -7.7968674l-1.921875 2.59375l0 5.2031174l-1.265625 0z" fill-rule="nonzero"/><path fill="#595959" d="m663.6727 262.50723l9.370056 18.251953l-20.299194 -2.6614075z" fill-rule="evenodd"/><path fill="#000000" fill-opacity="0.0" d="m530.88 190.37344l127.33856 0l0 17.858261l-127.33856 0z" fill-rule="evenodd"/><path fill="#595959" d="m582.28894 208.06133q-1.640625 0 -2.609375 -1.0625q-0.953125 -1.078125 -1.09375 -2.90625l1.078125 -0.3125q0.125 1.765625 0.8125 2.546875q0.6875 0.765625 1.859375 0.765625q1.046875 0 1.625 -0.578125q0.578125 -0.59375 0.578125 -1.671875q0 -0.75 -0.5 -1.546875q-0.484375 -0.8125 -1.53125 -1.6875l-1.609375 -1.375q-1.03125 -0.890625 -1.515625 -1.6875q-0.484375 -0.8125 -0.484375 -1.84375q0 -0.953125 0.390625 -1.59375q0.40625 -0.65625 1.109375 -1.0q0.71875 -0.359375 1.640625 -0.359375q1.5625 0 2.328125 0.984375q0.78125 0.984375 0.828125 2.640625l-0.9375 0.296875q-0.03125 -1.078125 -0.3125 -1.71875q-0.265625 -0.65625 -0.734375 -0.9375q-0.46875 -0.296875 -1.09375 -0.296875q-0.90625 0 -1.484375 0.46875q-0.5625 0.46875 -0.5625 1.375q0 0.765625 0.296875 1.328125q0.3125 0.5625 1.125 1.3125l1.65625 1.46875q0.625 0.53125 1.203125 1.125q0.578125 0.59375 0.9375 1.328125q0.375 0.734375 0.375 1.75q0 1.0 -0.421875 1.71875q-0.40625 0.703125 -1.171875 1.09375q-0.75 0.375 -1.78125 0.375zm8.450256 -0.078125q-0.96875 0 -1.453125 -0.375q-0.46875 -0.390625 -0.625 -1.03125q-0.140625 -0.65625 -0.140625 -1.46875l0 -10.296875l-1.8125 0l0 -0.84375l1.8125 0l0 -4.4375l1.28125 0l0 4.4375l2.34375 0l0 0.84375l-2.34375 0l0 10.125q0 1.125 0.203125 1.59375q0.21875 0.453125 1.0 0.453125q0.234375 0 0.5 -0.03125q0.28125 -0.046875 0.53125 -0.09375l0 0.984375q-0.296875 0.078125 -0.65625 0.109375q-0.359375 0.03125 -0.640625 0.03125zm6.5151367 0.078125q-1.09375 0 -1.890625 -0.4375q-0.79693604 -0.453125 -1.218811 -1.609375q-0.40625 -1.171875 -0.40625 -3.3125l0 -3.6875q0 -2.1875 0.421875 -3.3125q0.4375 -1.125 1.234436 -1.53125q0.8125 -0.421875 1.890625 -0.421875q1.296875 0 2.03125 0.5625q0.75 0.546875 1.0625 1.765625q0.3125 1.203125 0.3125 3.203125l0 1.3125l-5.6875 0l0 2.203125q0 1.65625 0.21875 2.59375q0.234375 0.9375 0.734375 1.328125q0.515625 0.375 1.296875 0.375q0.515625 0 1.015625 -0.15625q0.5 -0.171875 0.828125 -0.796875q0.34375 -0.625 0.34375 -1.9375l0 -1.046875l1.25 0l0 0.921875q0 1.78125 -0.734375 2.890625q-0.734375 1.09375 -2.703125 1.09375zm-2.25 -8.234375l4.4375 0l0 -1.078125q0 -1.25 -0.140625 -2.140625q-0.125 -0.90625 -0.578125 -1.390625q-0.453125 -0.5 -1.4375 -0.5q-0.765625 0 -1.28125 0.328125q-0.515625 0.3125 -0.765625 1.1875q-0.234375 0.875 -0.234375 2.53125l0 1.0625zm8.095947 12.578125l0 -18.4375l1.265625 0l0 1.171875q0.40625 -0.5 1.046875 -0.9375q0.65625 -0.453125 1.609375 -0.453125q0.96875 0 1.578125 0.40625q0.609375 0.390625 0.953125 1.15625q0.359375 0.75 0.484375 1.8125q0.140625 1.046875 0.140625 2.34375l0 2.65625q0 1.953125 -0.3125 3.28125q-0.296875 1.3125 -1.0 1.984375q-0.703125 0.671875 -1.953125 0.671875q-0.890625 0 -1.53125 -0.453125q-0.625 -0.46875 -1.015625 -0.921875l0 5.71875l-1.265625 0zm3.671875 -5.328125q0.859375 0 1.328125 -0.515625q0.46875 -0.515625 0.625 -1.609375q0.171875 -1.09375 0.171875 -2.765625l0 -2.71875q0 -1.65625 -0.15625 -2.703125q-0.15625 -1.046875 -0.609375 -1.53125q-0.453125 -0.5 -1.359375 -0.5q-0.78125 0 -1.40625 0.453125q-0.609375 0.4375 -1.0 0.84375l0 9.796875q0.40625 0.484375 1.03125 0.875q0.625 0.375 1.375 0.375z" fill-rule="nonzero"/><path fill="#000000" fill-opacity="0.0" d="m240.96051 323.31503l0 0c-8.48497 -45.59613 1.7478943 -92.6882 28.389893 -130.65144c26.641968 -37.963226 67.44849 -63.599197 113.21289 -71.123985l27.987762 170.21637z" fill-rule="evenodd"/><path fill="#000000" fill-opacity="0.0" d="m240.96051 323.31503l0 0c-8.48497 -45.59613 1.7478943 -92.6882 28.389893 -130.65144c26.641968 -37.963226 67.44849 -63.599197 113.21289 -71.123985" fill-rule="evenodd"/><path stroke="#595959" stroke-width="4.0" stroke-linejoin="round" stroke-linecap="butt" d="m240.96051 323.31503l0 0c-8.48497 -45.59613 1.7478943 -92.6882 28.389893 -130.65144c26.641968 -37.963226 67.44849 -63.599197 113.21289 -71.123985" fill-rule="evenodd"/><path fill="#000000" fill-opacity="0.0" d="m272.55237 336.28568l117.51181 -161.03935" fill-rule="evenodd"/><path stroke="#595959" stroke-width="4.0" stroke-linejoin="round" stroke-linecap="butt" d="m272.55237 336.28568l117.51181 -161.03935" fill-rule="evenodd"/><path fill="#ffffff" d="m256.81168 448.34836l0 0c-32.745712 8.471252 -66.15866 -11.207062 -74.62993 -43.95276l0 0c-4.068039 -15.725037 -1.7227325 -32.42206 6.5200195 -46.417877c8.242737 -13.995819 21.707687 -24.144012 37.43274 -28.212036l0 0c32.745712 -8.471283 66.158646 11.207031 74.62993 43.95273l0 0c8.471252 32.745728 -11.207062 66.15866 -43.95276 74.629944z" fill-rule="evenodd"/><path stroke="#595959" stroke-width="4.0" stroke-linejoin="round" stroke-linecap="butt" d="m256.81168 448.34836l0 0c-32.745712 8.471252 -66.15866 -11.207062 -74.62993 -43.95276l0 0c-4.068039 -15.725037 -1.7227325 -32.42206 6.5200195 -46.417877c8.242737 -13.995819 21.707687 -24.144012 37.43274 -28.212036l0 0c32.745712 -8.471283 66.158646 11.207031 74.62993 43.95273l0 0c8.471252 32.745728 -11.207062 66.15866 -43.95276 74.629944z" fill-rule="evenodd"/><path fill="#000000" fill-opacity="0.0" d="m180.22005 380.44742l122.488205 0l0 17.196838l-122.488205 0z" fill-rule="evenodd"/><path fill="#595959" d="m221.65634 397.58582l0 -19.4375l1.296875 0l0 19.4375l-1.296875 0zm4.49086 0l0 -13.875l1.265625 0l0 1.484375q0.640625 -0.765625 1.484375 -1.234375q0.84375 -0.46875 1.796875 -0.46875q0.625 0 1.109375 0.3125q0.5 0.296875 0.78125 0.953125q0.296875 0.65625 0.296875 1.765625l0 11.0625l-1.265625 0l0 -10.921875q0 -1.265625 -0.40625 -1.71875q-0.390625 -0.46875 -1.0625 -0.46875q-0.6875 0 -1.40625 0.421875q-0.703125 0.421875 -1.328125 1.125l0 11.5625l-1.265625 0zm9.571472 0l0 -13.875l1.296875 0l0 13.875l-1.296875 0zm0 -15.703125l0 -2.203125l1.296875 0l0 2.203125l-1.296875 0zm7.395355 15.84375q-0.96875 0 -1.453125 -0.375q-0.46875 -0.390625 -0.625 -1.03125q-0.140625 -0.65625 -0.140625 -1.46875l0 -10.296875l-1.8125 0l0 -0.84375l1.8125 0l0 -4.4375l1.28125 0l0 4.4375l2.34375 0l0 0.84375l-2.34375 0l0 10.125q0 1.125 0.203125 1.59375q0.21875 0.453125 1.0 0.453125q0.234375 0 0.5 -0.03125q0.28125 -0.046875 0.53125 -0.09375l0 0.984375q-0.296875 0.078125 -0.65625 0.109375q-0.359375 0.03125 -0.640625 0.03125zm3.4526062 -0.140625l0 -13.875l1.296875 0l0 13.875l-1.296875 0zm0 -15.703125l0 -2.203125l1.296875 0l0 2.203125l-1.296875 0zm6.676605 15.921875q-0.84375 0 -1.46875 -0.375q-0.625 -0.390625 -0.984375 -1.078125q-0.34375 -0.6875 -0.34375 -1.578125q0 -0.890625 0.234375 -1.546875q0.234375 -0.65625 0.828125 -1.234375q0.59375 -0.578125 1.703125 -1.203125q1.125 -0.640625 2.9062347 -1.484375l0 -0.984375q0 -1.515625 -0.18748474 -2.34375q-0.171875 -0.84375 -0.59375 -1.171875q-0.421875 -0.34375 -1.140625 -0.34375q-0.546875 0 -1.0625 0.1875q-0.5 0.1875 -0.828125 0.765625q-0.3125 0.5625 -0.3125 1.65625l0 0.359375l-1.25 0q0 -1.984375 0.796875 -2.953125q0.8125 -0.984375 2.703125 -0.984375q1.75 0 2.4374847 1.109375q0.703125 1.109375 0.703125 3.578125l0 6.984375q0 0.1875 0.015625 0.734375q0.015625 0.53125 0.015625 1.046875q0.015625 0.5 0.046875 0.640625l-1.109375 0q-0.046875 -0.5 -0.125 -1.046875q-0.0625 -0.5625 -0.09375 -0.796875q-0.31248474 0.859375 -1.0781097 1.46875q-0.765625 0.59375 -1.8125 0.59375zm0.3125 -1.0625q0.59375 0 1.0625 -0.265625q0.484375 -0.28125 0.875 -0.71875q0.390625 -0.453125 0.62498474 -0.953125l0 -4.5625q-1.2812347 0.671875 -2.1406097 1.15625q-0.84375 0.46875 -1.34375 0.90625q-0.484375 0.4375 -0.703125 0.984375q-0.203125 0.53125 -0.203125 1.296875q0 1.25 0.578125 1.703125q0.578125 0.453125 1.25 0.453125zm6.6897125 0.84375l0 -19.4375l1.265625 0l0 19.4375l-1.265625 0z" fill-rule="nonzero"/><path fill="#595959" d="m251.64165 309.188l-8.267715 25.086609l-15.889755 -21.086609z" fill-rule="evenodd"/><path fill="#000000" fill-opacity="0.0" d="m162.33133 152.28767l164.0315 0l0 22.992126l-164.0315 0z" fill-rule="evenodd"/><path fill="#595959" d="m231.12663 172.54248q-0.890625 0 -1.53125 -0.453125q-0.625 -0.46875 -1.015625 -0.921875l0 1.15625l-1.265625 0l0 -19.4375l1.265625 0l0 6.734375q0.390625 -0.5 1.046875 -0.9375q0.65625 -0.453125 1.609375 -0.453125q0.96875 0 1.578125 0.40625q0.609375 0.390625 0.953125 1.15625q0.359375 0.75 0.484375 1.8125q0.140625 1.046875 0.140625 2.34375l0 2.65625q0 1.953125 -0.3125 3.28125q-0.296875 1.3125 -1.0 1.984375q-0.703125 0.671875 -1.953125 0.671875zm-0.171875 -0.984375q0.890625 0 1.34375 -0.515625q0.453125 -0.515625 0.625 -1.609375q0.171875 -1.09375 0.171875 -2.765625l0 -2.71875q0 -1.65625 -0.15625 -2.703125q-0.15625 -1.046875 -0.609375 -1.53125q-0.4375 -0.5 -1.34375 -0.5q-0.78125 0 -1.40625 0.453125q-0.609375 0.4375 -1.0 0.84375l0 9.796875q0.40625 0.484375 1.015625 0.875q0.609375 0.375 1.359375 0.375zm8.215469 0.984375q-0.84375 0 -1.46875 -0.375q-0.625 -0.390625 -0.984375 -1.078125q-0.34375 -0.6875 -0.34375 -1.578125q0 -0.890625 0.234375 -1.546875q0.234375 -0.65625 0.828125 -1.234375q0.59375 -0.578125 1.703125 -1.203125q1.125 -0.640625 2.90625 -1.484375l0 -0.984375q0 -1.515625 -0.1875 -2.34375q-0.171875 -0.84375 -0.59375 -1.171875q-0.421875 -0.34375 -1.140625 -0.34375q-0.546875 0 -1.0625 0.1875q-0.5 0.1875 -0.828125 0.765625q-0.3125 0.5625 -0.3125 1.65625l0 0.359375l-1.25 0q0 -1.984375 0.796875 -2.953125q0.8125 -0.984375 2.703125 -0.984375q1.75 0 2.4375 1.109375q0.703125 1.109375 0.703125 3.578125l0 6.984375q0 0.1875 0.015625 0.734375q0.015625 0.53125 0.015625 1.046875q0.015625 0.5 0.046875 0.640625l-1.109375 0q-0.046875 -0.5 -0.125 -1.046875q-0.0625 -0.5625 -0.09375 -0.796875q-0.3125 0.859375 -1.078125 1.46875q-0.765625 0.59375 -1.8125 0.59375zm0.3125 -1.0625q0.59375 0 1.0625 -0.265625q0.484375 -0.28125 0.875 -0.71875q0.390625 -0.453125 0.625 -0.953125l0 -4.5625q-1.28125 0.671875 -2.140625 1.15625q-0.84375 0.46875 -1.34375 0.90625q-0.484375 0.4375 -0.703125 0.984375q-0.203125 0.53125 -0.203125 1.296875q0 1.25 0.578125 1.703125q0.578125 0.453125 1.25 0.453125zm9.689728 1.0625q-1.5625 0 -2.3125 -0.734375q-0.734375 -0.734375 -0.96875 -1.953125q-0.21875 -1.234375 -0.21875 -2.734375l0 -3.265625q0 -2.046875 0.3125 -3.28125q0.3125 -1.234375 1.078125 -1.78125q0.765625 -0.5625 2.109375 -0.5625q1.4375 0 2.171875 0.59375q0.734375 0.59375 0.96875 1.609375q0.234375 1.015625 0.234375 2.296875l0 0.546875l-1.1875 0l0 -0.546875q0 -1.421875 -0.234375 -2.171875q-0.21875 -0.765625 -0.703125 -1.0625q-0.484375 -0.296875 -1.25 -0.296875q-0.9375 0 -1.421875 0.453125q-0.46875 0.4375 -0.640625 1.421875q-0.171875 0.984375 -0.171875 2.640625l0 3.59375q0 2.25 0.4375 3.265625q0.453125 1.0 1.8125 1.0q0.9375 0 1.40625 -0.40625q0.46875 -0.40625 0.609375 -1.265625q0.15625 -0.859375 0.15625 -2.234375l0 -0.53125l1.1875 0l0 0.5q0 1.40625 -0.21875 2.515625q-0.203125 1.09375 -0.921875 1.75q-0.71875 0.640625 -2.234375 0.640625zm5.7655945 -0.21875l0 -19.4375l1.265625 0l0 12.8125l5.15625 -7.25l1.375 0l-3.65625 5.3125l3.453125 8.5625l-1.28125 0l-3.125 -7.796875l-1.921875 2.59375l0 5.203125l-1.265625 0z" fill-rule="nonzero"/><path fill="#595959" d="m382.2561 169.79036l18.251953 -9.370087l-2.6614075 20.299225z" fill-rule="evenodd"/><path fill="#000000" fill-opacity="0.0" d="m262.7238 215.77307l127.33859 0l0 17.858261l-127.33859 0z" fill-rule="evenodd"/><path fill="#595959" d="m314.13275 233.46095q-1.640625 0 -2.609375 -1.0625q-0.953125 -1.078125 -1.09375 -2.90625l1.078125 -0.3125q0.125 1.765625 0.8125 2.546875q0.6875 0.765625 1.859375 0.765625q1.046875 0 1.625 -0.578125q0.578125 -0.59375 0.578125 -1.671875q0 -0.75 -0.5 -1.546875q-0.484375 -0.8125 -1.53125 -1.6875l-1.609375 -1.375q-1.03125 -0.890625 -1.515625 -1.6875q-0.484375 -0.8125 -0.484375 -1.84375q0 -0.953125 0.390625 -1.59375q0.40625 -0.65625 1.109375 -1.0q0.71875 -0.359375 1.640625 -0.359375q1.5625 0 2.328125 0.984375q0.78125 0.984375 0.828125 2.640625l-0.9375 0.296875q-0.03125 -1.078125 -0.3125 -1.71875q-0.265625 -0.65625 -0.734375 -0.9375q-0.46875 -0.296875 -1.09375 -0.296875q-0.90625 0 -1.484375 0.46875q-0.5625 0.46875 -0.5625 1.375q0 0.765625 0.296875 1.328125q0.3125 0.5625 1.125 1.3125l1.65625 1.46875q0.625 0.53125 1.203125 1.125q0.578125 0.59375 0.9375 1.328125q0.375 0.734375 0.375 1.75q0 1.0 -0.421875 1.71875q-0.40625 0.703125 -1.171875 1.09375q-0.75 0.375 -1.78125 0.375zm8.450226 -0.078125q-0.96875 0 -1.453125 -0.375q-0.46875 -0.390625 -0.625 -1.03125q-0.140625 -0.65625 -0.140625 -1.46875l0 -10.296875l-1.8125 0l0 -0.84375l1.8125 0l0 -4.4375l1.28125 0l0 4.4375l2.34375 0l0 0.84375l-2.34375 0l0 10.125q0 1.125 0.203125 1.59375q0.21875 0.453125 1.0 0.453125q0.234375 0 0.5 -0.03125q0.28125 -0.046875 0.53125 -0.09375l0 0.984375q-0.296875 0.078125 -0.65625 0.109375q-0.359375 0.03125 -0.640625 0.03125zm6.515106 0.078125q-1.09375 0 -1.890625 -0.4375q-0.796875 -0.453125 -1.21875 -1.609375q-0.40625 -1.171875 -0.40625 -3.3125l0 -3.6875q0 -2.1875 0.421875 -3.3125q0.4375 -1.125 1.234375 -1.53125q0.8125 -0.421875 1.890625 -0.421875q1.296875 0 2.03125 0.5625q0.75 0.546875 1.0625 1.765625q0.3125 1.203125 0.3125 3.203125l0 1.3125l-5.6875 0l0 2.203125q0 1.65625 0.21875 2.59375q0.234375 0.9375 0.734375 1.328125q0.515625 0.375 1.296875 0.375q0.515625 0 1.015625 -0.15625q0.5 -0.171875 0.828125 -0.796875q0.34375 -0.625 0.34375 -1.9375l0 -1.046875l1.25 0l0 0.921875q0 1.78125 -0.734375 2.890625q-0.734375 1.09375 -2.703125 1.09375zm-2.25 -8.234375l4.4375 0l0 -1.078125q0 -1.25 -0.140625 -2.140625q-0.125 -0.90625 -0.578125 -1.390625q-0.453125 -0.5 -1.4375 -0.5q-0.765625 0 -1.28125 0.328125q-0.515625 0.3125 -0.765625 1.1875q-0.234375 0.875 -0.234375 2.53125l0 1.0625zm8.095978 12.578125l0 -18.4375l1.265625 0l0 1.171875q0.40625 -0.5 1.046875 -0.9375q0.65625 -0.453125 1.609375 -0.453125q0.96875 0 1.578125 0.40625q0.609375 0.390625 0.953125 1.15625q0.359375 0.75 0.484375 1.8125q0.140625 1.046875 0.140625 2.34375l0 2.65625q0 1.953125 -0.3125 3.28125q-0.296875 1.3125 -1.0 1.984375q-0.703125 0.671875 -1.953125 0.671875q-0.890625 0 -1.53125 -0.453125q-0.625 -0.46875 -1.015625 -0.921875l0 5.71875l-1.265625 0zm3.671875 -5.328125q0.859375 0 1.328125 -0.515625q0.46875 -0.515625 0.625 -1.609375q0.171875 -1.09375 0.171875 -2.765625l0 -2.71875q0 -1.65625 -0.15625 -2.703125q-0.15625 -1.046875 -0.609375 -1.53125q-0.453125 -0.5 -1.359375 -0.5q-0.78125 0 -1.40625 0.453125q-0.609375 0.4375 -1.0 0.84375l0 9.796875q0.40625 0.484375 1.03125 0.875q0.625 0.375 1.375 0.375z" fill-rule="nonzero"/><path fill="#000000" fill-opacity="0.0" d="m302.70825 389.04584l359.0866 -69.95276" fill-rule="evenodd"/><path stroke="#595959" stroke-width="4.0" stroke-linejoin="round" stroke-linecap="butt" d="m302.70825 389.04584l359.0866 -69.95276" fill-rule="evenodd"/><path fill="#595959" d="m640.08154 309.12094l25.228333 7.9055176l-20.881836 16.22049z" fill-rule="evenodd"/><path fill="#000000" fill-opacity="0.0" d="m418.5796 315.17294l127.33856 0l0 17.858276l-127.33856 0z" fill-rule="evenodd"/><path fill="#595959" d="m463.4462 332.6421l0 -12.984375l-1.875 0l0 -0.890625l1.875 0l0 -1.875q0 -0.90625 0.140625 -1.609375q0.140625 -0.71875 0.640625 -1.125q0.515625 -0.40625 1.546875 -0.40625q0.265625 0 0.609375 0.046875q0.34375 0.046875 0.59375 0.125l0 0.953125q-0.25 -0.046875 -0.515625 -0.078125q-0.25 -0.03125 -0.5 -0.03125q-0.8125 0 -1.03125 0.453125q-0.21875 0.453125 -0.21875 1.65625l0 1.890625l5.046875 0l0 13.875l-1.28125 0l0 -12.984375l-3.765625 0l0 12.984375l-1.265625 0zm5.109375 -15.703125l0 -2.203125l1.203125 0l0 2.203125l-1.203125 0zm4.2803345 15.703125l0 -13.875l1.265625 0l0 1.484375q0.640625 -0.765625 1.484375 -1.234375q0.84375 -0.46875 1.796875 -0.46875q0.625 0 1.109375 0.3125q0.5 0.296875 0.78125 0.953125q0.296875 0.65625 0.296875 1.765625l0 11.0625l-1.265625 0l0 -10.921875q0 -1.265625 -0.40625 -1.71875q-0.390625 -0.46875 -1.0625 -0.46875q-0.6875 0 -1.40625 0.421875q-0.703125 0.421875 -1.328125 1.125l0 11.5625l-1.265625 0zm9.571472 0l0 -13.875l1.2969055 0l0 13.875l-1.2969055 0zm0 -15.703125l0 -2.203125l1.2969055 0l0 2.203125l-1.2969055 0zm7.4891357 15.921875q-1.640625 0 -2.609375 -1.0625q-0.953125 -1.078125 -1.09375 -2.90625l1.078125 -0.3125q0.125 1.765625 0.8125 2.546875q0.6875 0.765625 1.859375 0.765625q1.046875 0 1.625 -0.578125q0.578125 -0.59375 0.578125 -1.671875q0 -0.75 -0.5 -1.546875q-0.484375 -0.8125 -1.53125 -1.6875l-1.609375 -1.375q-1.03125 -0.890625 -1.515625 -1.6875q-0.484375 -0.8125 -0.484375 -1.84375q0 -0.953125 0.390625 -1.59375q0.40625 -0.65625 1.109375 -1.0q0.71875 -0.359375 1.640625 -0.359375q1.5625 0 2.328125 0.984375q0.78125 0.984375 0.828125 2.640625l-0.9375 0.296875q-0.03125 -1.078125 -0.3125 -1.71875q-0.265625 -0.65625 -0.734375 -0.9375q-0.46875 -0.296875 -1.09375 -0.296875q-0.90625 0 -1.484375 0.46875q-0.5625 0.46875 -0.5625 1.375q0 0.765625 0.296875 1.328125q0.3125 0.5625 1.125 1.3125l1.65625 1.46875q0.625 0.53125 1.203125 1.125q0.578125 0.59375 0.9375 1.328125q0.375 0.734375 0.375 1.75q0 1.0 -0.421875 1.71875q-0.40625 0.703125 -1.171875 1.09375q-0.75 0.375 -1.78125 0.375zm5.403351 -0.21875l0 -19.4375l1.265625 0l0 7.03125q0.671875 -0.765625 1.5 -1.21875q0.84375 -0.46875 1.8125 -0.46875q0.625 0 1.109375 0.3125q0.5 0.296875 0.78125 0.953125q0.296875 0.65625 0.296875 1.765625l0 11.0625l-1.296875 0l0 -10.921875q0 -1.265625 -0.390625 -1.71875q-0.375 -0.46875 -1.046875 -0.46875q-0.703125 0 -1.421875 0.421875q-0.71875 0.421875 -1.34375 1.125l0 11.5625l-1.265625 0z" fill-rule="nonzero"/></g></svg>