<?xml version="1.0" encoding="UTF-8"?>
<svg width="40px" height="36px" viewBox="0 0 40 36" version="1.1" xmlns="http://www.w3.org/2000/svg" xmlns:xlink="http://www.w3.org/1999/xlink">
    <!-- Generator: Sketch 53.2 (72643) - https://sketchapp.com -->
    <title>icon/image/photo_camera_24px</title>
    <desc>Created with Sketch.</desc>
    <g id="Dashboard--Launch-Version-(beta)" stroke="none" stroke-width="1" fill="none" fill-rule="evenodd">
        <g id="Drive-mode" transform="translate(-1119.000000, -601.000000)" fill="#FFFFFF" fill-rule="nonzero">
            <path d="M1139,615 C1135.68629,615 1133,617.686292 1133,621 C1133,624.313708 1135.68629,627 1139,627 C1142.31371,627 1145,624.313708 1145,621 C1145,617.686292 1142.31371,615 1139,615 Z M1155,605 L1148.66,605 L1146.18,602.3 C1145.44,601.48 1144.36,601 1143.24,601 L1134.76,601 C1133.64,601 1132.56,601.48 1131.8,602.3 L1129.34,605 L1123,605 C1120.8,605 1119,606.8 1119,609 L1119,633 C1119,635.2 1120.8,637 1123,637 L1155,637 C1157.2,637 1159,635.2 1159,633 L1159,609 C1159,606.8 1157.2,605 1155,605 Z M1139,631 C1133.48,631 1129,626.52 1129,621 C1129,615.48 1133.48,611 1139,611 C1144.52,611 1149,615.48 1149,621 C1149,626.52 1144.52,631 1139,631 Z" id="icon/image/photo_camera_24px"></path>
        </g>
    </g>
</svg>