<?xml version="1.0" encoding="UTF-8"?>
<svg width="36px" height="33px" viewBox="0 0 36 33" version="1.1" xmlns="http://www.w3.org/2000/svg" xmlns:xlink="http://www.w3.org/1999/xlink">
    <!-- Generator: Sketch 53.2 (72643) - https://sketchapp.com -->
    <title>Path</title>
    <desc>Created with Sketch.</desc>
    <g id="Dashboard--Launch-Version-(beta)" stroke="none" stroke-width="1" fill="none" fill-rule="evenodd">
        <g id="Drive-mode" transform="translate(-231.000000, -412.000000)" fill="#FFFFFF" fill-rule="nonzero">
            <path d="M251.490502,412.006397 C242.461688,411.74978 235.064801,419.24666 235.064801,428.503199 L231.889639,428.503199 C231.091413,428.503199 230.70117,429.493007 231.268797,430.06123 L236.217793,435.175238 C236.57256,435.541834 237.122448,435.541834 237.477215,435.175238 L242.426211,430.06123 C242.9761,429.493007 242.585856,428.503199 241.787631,428.503199 L238.612469,428.503199 C238.612469,421.354585 244.25326,415.580704 251.206688,415.672353 C257.80535,415.764002 263.35745,421.501223 263.446142,428.319901 C263.534833,435.486845 257.947257,441.334044 251.029305,441.334044 C248.812013,441.334044 246.736627,440.710832 244.927317,439.666034 C244.235522,439.262779 243.384082,439.409417 242.834193,439.99597 C242.01823,440.83914 242.177875,442.287193 243.18896,442.873746 C245.512682,444.211819 248.173433,445 251.029305,445 C259.987166,445 267.242146,437.356482 266.993809,428.026624 C266.763211,419.429958 259.809782,412.244684 251.490502,412.006397 Z" id="Path"></path>
        </g>
    </g>
</svg>